<mxfile host="app.diagrams.net" modified="2023-03-16T06:36:53.588Z" agent="5.0 (Windows NT 10.0; Win64; x64) AppleWebKit/537.36 (KHTML, like Gecko) Chrome/110.0.0.0 Safari/537.36 Edg/110.0.1587.69" etag="rQG21nKP6SPHKB-sapla" version="21.0.6" type="github" pages="15">
  <diagram id="YNhH0matYlgtwRMePpy-" name="Kanban">
    <mxGraphModel dx="1434" dy="829" grid="1" gridSize="10" guides="1" tooltips="1" connect="1" arrows="1" fold="1" page="1" pageScale="1" pageWidth="1040" pageHeight="1000" math="0" shadow="0">
      <root>
        <mxCell id="0" />
        <mxCell id="1" parent="0" />
        <mxCell id="sQsjrjN2aDBts0AqB7bt-1" value="ELCID" style="swimlane;fontStyle=1;childLayout=stackLayout;horizontal=1;startSize=28;horizontalStack=1;resizeParent=1;resizeParentMax=0;resizeLast=0;collapsible=0;marginBottom=0;swimlaneFillColor=none;fontFamily=Permanent Marker;fontSize=12;points=[];verticalAlign=top;stackBorder=0;resizable=1;strokeWidth=2;sketch=1;disableMultiStroke=1;fillColor=#fff2cc;strokeColor=#d6b656;shadow=0;" parent="1" vertex="1">
          <mxGeometry x="10" y="10" width="1010" height="3540" as="geometry" />
        </mxCell>
        <object label="TO DO" status="New" id="sQsjrjN2aDBts0AqB7bt-2">
          <mxCell style="swimlane;strokeWidth=2;fontFamily=Permanent Marker;html=0;startSize=1;verticalAlign=bottom;spacingBottom=5;points=[];childLayout=stackLayout;stackBorder=20;stackSpacing=20;resizeLast=0;resizeParent=1;horizontalStack=0;collapsible=0;sketch=1;strokeColor=#b85450;fillStyle=solid;fillColor=#f8cecc;" parent="sQsjrjN2aDBts0AqB7bt-1" vertex="1">
            <mxGeometry y="28" width="230" height="3512" as="geometry" />
          </mxCell>
        </object>
        <object label="Make sure every table is working properly&lt;br style=&quot;border-color: var(--border-color);&quot;&gt;&lt;span style=&quot;font-weight: normal;&quot;&gt;&lt;i&gt;&lt;font style=&quot;font-size: 10px&quot;&gt;%status%&lt;/font&gt;&lt;/i&gt;&lt;/span&gt;" placeholders="1" id="RuUKVgwNkQRj4nLTe_cS-1">
          <mxCell style="whiteSpace=wrap;html=1;strokeWidth=2;fillColor=swimlane;fontStyle=1;spacingTop=0;rounded=1;arcSize=9;points=[];sketch=1;fontFamily=Permanent Marker;hachureGap=8;fillWeight=1;direction=south;" parent="sQsjrjN2aDBts0AqB7bt-2" vertex="1">
            <mxGeometry x="20" y="21" width="190" height="89" as="geometry" />
          </mxCell>
        </object>
        <object label="&lt;font style=&quot;&quot;&gt;When clicking certain row, it should show the data on the textboxes&lt;br&gt;&lt;/font&gt;&lt;font style=&quot;font-weight: normal; font-style: italic; font-size: 10px;&quot;&gt;%status%&lt;/font&gt;" placeholders="1" id="RuUKVgwNkQRj4nLTe_cS-3">
          <mxCell style="whiteSpace=wrap;html=1;strokeWidth=2;fillColor=swimlane;fontStyle=1;spacingTop=0;rounded=1;arcSize=9;points=[];sketch=1;fontFamily=Permanent Marker;hachureGap=8;fillWeight=1;direction=south;" parent="sQsjrjN2aDBts0AqB7bt-2" vertex="1">
            <mxGeometry x="20" y="130" width="190" height="89" as="geometry" />
          </mxCell>
        </object>
        <object label="&lt;font style=&quot;&quot;&gt;Add OTP verification in user registration&lt;br&gt;&lt;/font&gt;&lt;font style=&quot;font-weight: normal; font-style: italic; font-size: 10px;&quot;&gt;%status%&lt;/font&gt;" placeholders="1" id="FMs3bLKS2XqBx0wkWiiC-1">
          <mxCell style="whiteSpace=wrap;html=1;strokeWidth=2;fillColor=swimlane;fontStyle=1;spacingTop=0;rounded=1;arcSize=9;points=[];sketch=1;fontFamily=Permanent Marker;hachureGap=8;fillWeight=1;direction=south;" parent="sQsjrjN2aDBts0AqB7bt-2" vertex="1">
            <mxGeometry x="20" y="239" width="190" height="89" as="geometry" />
          </mxCell>
        </object>
        <object label="NICO" status="In progress" id="jk4ZuAFncWzifWcSEG9R-6">
          <mxCell style="swimlane;strokeWidth=2;fontFamily=Permanent Marker;html=0;startSize=1;verticalAlign=bottom;spacingBottom=5;points=[];childLayout=stackLayout;stackBorder=20;stackSpacing=20;resizeLast=0;resizeParent=1;horizontalStack=0;collapsible=0;sketch=1;strokeColor=#6c8ebf;fillStyle=solid;fillColor=#dae8fc;glass=0;rounded=0;shadow=0;" parent="sQsjrjN2aDBts0AqB7bt-1" vertex="1">
            <mxGeometry x="230" y="28" width="180" height="3512" as="geometry" />
          </mxCell>
        </object>
        <object label="Login with RFID&lt;br style=&quot;border-color: var(--border-color);&quot;&gt;&lt;span style=&quot;font-weight: normal&quot;&gt;&lt;i&gt;&lt;font style=&quot;font-size: 10px&quot;&gt;%status%&lt;/font&gt;&lt;/i&gt;&lt;/span&gt;" placeholders="1" id="6WkQx13fl0O6JysKAOzu-31">
          <mxCell style="whiteSpace=wrap;html=1;strokeWidth=2;fillColor=swimlane;fontStyle=1;spacingTop=0;rounded=1;arcSize=9;points=[];sketch=1;fontFamily=Permanent Marker;hachureGap=8;fillWeight=1;direction=south;" vertex="1" parent="jk4ZuAFncWzifWcSEG9R-6">
            <mxGeometry x="20" y="21" width="140" height="89" as="geometry" />
          </mxCell>
        </object>
        <object label="" status="In progress" id="A4bzXRDnEpqqfuXnQtNc-5">
          <mxCell style="swimlane;strokeWidth=2;fontFamily=Permanent Marker;html=0;startSize=1;verticalAlign=bottom;spacingBottom=5;points=[];childLayout=stackLayout;stackBorder=20;stackSpacing=20;resizeLast=0;resizeParent=1;horizontalStack=0;collapsible=0;sketch=1;strokeColor=#6c8ebf;fillStyle=solid;fillColor=#dae8fc;direction=south;" parent="sQsjrjN2aDBts0AqB7bt-1" vertex="1">
            <mxGeometry x="410" y="28" width="190" height="3512" as="geometry" />
          </mxCell>
        </object>
        <object label="User Registration&lt;br&gt;- CRUD User in admin window&amp;nbsp;&lt;br style=&quot;border-color: var(--border-color);&quot;&gt;&lt;span style=&quot;font-weight: normal&quot;&gt;&lt;i&gt;&lt;font style=&quot;font-size: 10px&quot;&gt;%status%&lt;/font&gt;&lt;/i&gt;&lt;/span&gt;" placeholders="1" id="sQsjrjN2aDBts0AqB7bt-4">
          <mxCell style="whiteSpace=wrap;html=1;strokeWidth=2;fillColor=swimlane;fontStyle=1;spacingTop=0;rounded=1;arcSize=9;points=[];sketch=1;fontFamily=Permanent Marker;hachureGap=8;fillWeight=1;" parent="A4bzXRDnEpqqfuXnQtNc-5" vertex="1">
            <mxGeometry x="20" y="21" width="150" height="80" as="geometry" />
          </mxCell>
        </object>
        <object label="Add transaction in admin window&lt;br style=&quot;border-color: var(--border-color);&quot;&gt;&lt;span style=&quot;font-weight: normal;&quot;&gt;&lt;i&gt;&lt;font style=&quot;font-size: 10px&quot;&gt;%status%&lt;/font&gt;&lt;/i&gt;&lt;/span&gt;" placeholders="1" id="RuUKVgwNkQRj4nLTe_cS-2">
          <mxCell style="whiteSpace=wrap;html=1;strokeWidth=2;fillColor=swimlane;fontStyle=1;spacingTop=0;rounded=1;arcSize=9;points=[];sketch=1;fontFamily=Permanent Marker;hachureGap=8;fillWeight=1;direction=south;" parent="A4bzXRDnEpqqfuXnQtNc-5" vertex="1">
            <mxGeometry x="20" y="121" width="150" height="89" as="geometry" />
          </mxCell>
        </object>
        <object label="KENNETH" status="In progress" id="A4bzXRDnEpqqfuXnQtNc-31">
          <mxCell style="swimlane;strokeWidth=2;fontFamily=Permanent Marker;html=0;startSize=1;verticalAlign=bottom;spacingBottom=5;points=[];childLayout=stackLayout;stackBorder=20;stackSpacing=20;resizeLast=0;resizeParent=1;horizontalStack=0;collapsible=0;sketch=1;strokeColor=#6c8ebf;fillStyle=solid;fillColor=#dae8fc;glass=0;rounded=0;shadow=0;" parent="sQsjrjN2aDBts0AqB7bt-1" vertex="1">
            <mxGeometry x="600" y="28" width="180" height="3512" as="geometry" />
          </mxCell>
        </object>
        <object label="Load Users and Transactions Table Data Function&lt;br style=&quot;border-color: var(--border-color);&quot;&gt;&lt;span style=&quot;font-weight: normal&quot;&gt;&lt;i&gt;&lt;font style=&quot;font-size: 10px&quot;&gt;%status%&lt;/font&gt;&lt;/i&gt;&lt;/span&gt;" placeholders="1" id="sQsjrjN2aDBts0AqB7bt-14">
          <mxCell style="whiteSpace=wrap;html=1;strokeWidth=2;fillColor=swimlane;fontStyle=1;spacingTop=0;rounded=1;arcSize=9;points=[];sketch=1;fontFamily=Permanent Marker;hachureGap=8;fillWeight=1;" parent="A4bzXRDnEpqqfuXnQtNc-31" vertex="1">
            <mxGeometry x="20" y="21" width="140" height="80" as="geometry" />
          </mxCell>
        </object>
        <object label="DONE" status="Completed" id="sQsjrjN2aDBts0AqB7bt-9">
          <mxCell style="swimlane;strokeWidth=2;fontFamily=Permanent Marker;html=0;startSize=1;verticalAlign=bottom;spacingBottom=5;points=[];childLayout=stackLayout;stackBorder=20;stackSpacing=20;resizeLast=0;resizeParent=1;horizontalStack=0;collapsible=0;sketch=1;strokeColor=#82b366;fillStyle=solid;fillColor=#d5e8d4;" parent="sQsjrjN2aDBts0AqB7bt-1" vertex="1">
            <mxGeometry x="780" y="28" width="230" height="3512" as="geometry" />
          </mxCell>
        </object>
        <object label="Get UID from RFID&lt;br style=&quot;border-color: var(--border-color);&quot;&gt;&lt;span style=&quot;font-weight: normal&quot;&gt;&lt;i&gt;&lt;font style=&quot;font-size: 10px&quot;&gt;%status%&lt;/font&gt;&lt;/i&gt;&lt;/span&gt;" placeholders="1" id="A4bzXRDnEpqqfuXnQtNc-38">
          <mxCell style="whiteSpace=wrap;html=1;strokeWidth=2;fillColor=swimlane;fontStyle=1;spacingTop=0;rounded=1;arcSize=9;points=[];sketch=1;fontFamily=Permanent Marker;hachureGap=8;fillWeight=1;direction=south;" parent="sQsjrjN2aDBts0AqB7bt-9" vertex="1">
            <mxGeometry x="20" y="21" width="190" height="89" as="geometry" />
          </mxCell>
        </object>
        <object label="OTP functions&lt;br style=&quot;border-color: var(--border-color);&quot;&gt;&lt;span style=&quot;font-weight: normal;&quot;&gt;&lt;i&gt;&lt;font style=&quot;font-size: 10px&quot;&gt;%status%&lt;/font&gt;&lt;/i&gt;&lt;/span&gt;" placeholders="1" id="If3_SnB8smgJJ_zUAqX0-1">
          <mxCell style="whiteSpace=wrap;html=1;strokeWidth=2;fillColor=swimlane;fontStyle=1;spacingTop=0;rounded=1;arcSize=9;points=[];sketch=1;fontFamily=Permanent Marker;hachureGap=8;fillWeight=1;direction=south;" parent="sQsjrjN2aDBts0AqB7bt-9" vertex="1">
            <mxGeometry x="20" y="130" width="190" height="89" as="geometry" />
          </mxCell>
        </object>
        <object label="Logout Button Functionality&lt;br style=&quot;border-color: var(--border-color);&quot;&gt;&lt;span style=&quot;font-weight: normal;&quot;&gt;&lt;i&gt;&lt;font style=&quot;font-size: 10px&quot;&gt;%status%&lt;/font&gt;&lt;/i&gt;&lt;/span&gt;" placeholders="1" id="tE-L8PPl8Dztt9B8-D4o-1">
          <mxCell style="whiteSpace=wrap;html=1;strokeWidth=2;fillColor=swimlane;fontStyle=1;spacingTop=0;rounded=1;arcSize=9;points=[];sketch=1;fontFamily=Permanent Marker;hachureGap=8;fillWeight=1;direction=south;" parent="sQsjrjN2aDBts0AqB7bt-9" vertex="1">
            <mxGeometry x="20" y="239" width="190" height="89" as="geometry" />
          </mxCell>
        </object>
        <object label="Study modules, how they work&amp;nbsp;&lt;br style=&quot;border-color: var(--border-color);&quot;&gt;&lt;span style=&quot;font-weight: normal&quot;&gt;&lt;i&gt;&lt;font style=&quot;font-size: 10px&quot;&gt;%status%&lt;/font&gt;&lt;/i&gt;&lt;/span&gt;" placeholders="1" id="tE-L8PPl8Dztt9B8-D4o-2">
          <mxCell style="whiteSpace=wrap;html=1;strokeWidth=2;fillColor=swimlane;fontStyle=1;spacingTop=0;rounded=1;arcSize=9;points=[];sketch=1;fontFamily=Permanent Marker;hachureGap=8;fillWeight=1;" parent="sQsjrjN2aDBts0AqB7bt-9" vertex="1">
            <mxGeometry x="20" y="348" width="190" height="80" as="geometry" />
          </mxCell>
        </object>
        <object label="&lt;font style=&quot;&quot;&gt;Update Business window UI&lt;br&gt;- making tabs&lt;br&gt;&lt;/font&gt;&lt;font style=&quot;font-weight: normal; font-style: italic; font-size: 10px;&quot;&gt;%status%&lt;/font&gt;" placeholders="1" id="0ejm54ke16URSIGelpPG-1">
          <mxCell style="whiteSpace=wrap;html=1;strokeWidth=2;fillColor=swimlane;fontStyle=1;spacingTop=0;rounded=1;arcSize=9;points=[];sketch=1;fontFamily=Permanent Marker;hachureGap=8;fillWeight=1;direction=south;" parent="sQsjrjN2aDBts0AqB7bt-9" vertex="1">
            <mxGeometry x="20" y="448" width="190" height="89" as="geometry" />
          </mxCell>
        </object>
        <object label="Fixing project structure&lt;br&gt;&lt;span style=&quot;font-weight: normal;&quot;&gt;&lt;i&gt;&lt;font style=&quot;font-size: 10px&quot;&gt;%status%&lt;/font&gt;&lt;/i&gt;&lt;/span&gt;" placeholders="1" id="2BsAKDOQm49fS9F0Et8G-1">
          <mxCell style="whiteSpace=wrap;html=1;strokeWidth=2;fillColor=swimlane;fontStyle=1;spacingTop=0;rounded=1;arcSize=9;points=[];sketch=1;fontFamily=Permanent Marker;hachureGap=8;fillWeight=1;" parent="sQsjrjN2aDBts0AqB7bt-9" vertex="1">
            <mxGeometry x="20" y="557" width="190" height="129" as="geometry" />
          </mxCell>
        </object>
        <object label="Navigation function from login to user type menu.&lt;br&gt;&lt;i&gt;After I login, depending on userType, the designated window will open up.&lt;/i&gt;&lt;br style=&quot;border-color: var(--border-color);&quot;&gt;&lt;span style=&quot;font-weight: normal&quot;&gt;&lt;i&gt;&lt;font style=&quot;font-size: 10px&quot;&gt;%status%&lt;/font&gt;&lt;/i&gt;&lt;/span&gt;" placeholders="1" id="kagd9e0XEU1kHWNo0j-2-1">
          <mxCell style="whiteSpace=wrap;html=1;strokeWidth=2;fillColor=swimlane;fontStyle=1;spacingTop=0;rounded=1;arcSize=9;points=[];sketch=1;fontFamily=Permanent Marker;hachureGap=8;fillWeight=1;" parent="sQsjrjN2aDBts0AqB7bt-9" vertex="1">
            <mxGeometry x="20" y="706" width="190" height="129" as="geometry" />
          </mxCell>
        </object>
        <object label="Load Users Table Data Function&lt;br style=&quot;border-color: var(--border-color);&quot;&gt;&lt;span style=&quot;font-weight: normal&quot;&gt;&lt;i&gt;&lt;font style=&quot;font-size: 10px&quot;&gt;%status%&lt;/font&gt;&lt;/i&gt;&lt;/span&gt;" placeholders="1" id="A4bzXRDnEpqqfuXnQtNc-39">
          <mxCell style="whiteSpace=wrap;html=1;strokeWidth=2;fillColor=swimlane;fontStyle=1;spacingTop=0;rounded=1;arcSize=9;points=[];sketch=1;fontFamily=Permanent Marker;hachureGap=8;fillWeight=1;" parent="sQsjrjN2aDBts0AqB7bt-9" vertex="1">
            <mxGeometry x="20" y="855" width="190" height="80" as="geometry" />
          </mxCell>
        </object>
        <object label="Function that checks for user type then loads the window for the specific user type.&lt;br&gt;Example: &lt;br&gt;user_type = administrator&lt;br&gt;&lt;i&gt;loads admin window&lt;/i&gt;&lt;br style=&quot;border-color: var(--border-color);&quot;&gt;&lt;span style=&quot;font-weight: normal&quot;&gt;&lt;i&gt;&lt;font style=&quot;font-size: 10px&quot;&gt;%status%&lt;/font&gt;&lt;/i&gt;&lt;/span&gt;" placeholders="1" id="A4bzXRDnEpqqfuXnQtNc-1">
          <mxCell style="whiteSpace=wrap;html=1;strokeWidth=2;fillColor=swimlane;fontStyle=1;spacingTop=0;rounded=1;arcSize=9;points=[];sketch=1;fontFamily=Permanent Marker;hachureGap=8;fillWeight=1;" parent="sQsjrjN2aDBts0AqB7bt-9" vertex="1">
            <mxGeometry x="20" y="955" width="190" height="119" as="geometry" />
          </mxCell>
        </object>
        <object label="Create basic database queries in database.py (CRUD)&amp;nbsp;&lt;br style=&quot;border-color: var(--border-color);&quot;&gt;&lt;span style=&quot;font-weight: normal&quot;&gt;&lt;i&gt;&lt;font style=&quot;font-size: 10px&quot;&gt;%status%&lt;/font&gt;&lt;/i&gt;&lt;/span&gt;" placeholders="1" id="A4bzXRDnEpqqfuXnQtNc-2">
          <mxCell style="whiteSpace=wrap;html=1;strokeWidth=2;fillColor=swimlane;fontStyle=1;spacingTop=0;rounded=1;arcSize=9;points=[];sketch=1;fontFamily=Permanent Marker;hachureGap=8;fillWeight=1;" parent="sQsjrjN2aDBts0AqB7bt-9" vertex="1">
            <mxGeometry x="20" y="1094" width="190" height="80" as="geometry" />
          </mxCell>
        </object>
        <object label="Admin Window&lt;br style=&quot;border-color: var(--border-color);&quot;&gt;&lt;span style=&quot;font-weight: normal;&quot;&gt;&lt;i&gt;&lt;font style=&quot;font-size: 10px&quot;&gt;%status%&lt;/font&gt;&lt;/i&gt;&lt;/span&gt;" placeholders="1" id="C-Gqak-4U_bp7HljnxZR-5">
          <mxCell style="whiteSpace=wrap;html=1;strokeWidth=2;fillColor=swimlane;fontStyle=1;spacingTop=0;rounded=1;arcSize=9;points=[];sketch=1;fontFamily=Permanent Marker;hachureGap=8;fillWeight=1;" parent="sQsjrjN2aDBts0AqB7bt-9" vertex="1">
            <mxGeometry x="20" y="1194" width="190" height="80" as="geometry" />
          </mxCell>
        </object>
        <object label="Upload initial project on Github&lt;br style=&quot;border-color: var(--border-color);&quot;&gt;&lt;span style=&quot;font-weight: normal&quot;&gt;&lt;i&gt;&lt;font style=&quot;font-size: 10px&quot;&gt;%status%&lt;/font&gt;&lt;/i&gt;&lt;/span&gt;" placeholders="1" id="sQsjrjN2aDBts0AqB7bt-10">
          <mxCell style="whiteSpace=wrap;html=1;strokeWidth=2;fillColor=swimlane;fontStyle=1;spacingTop=0;rounded=1;arcSize=9;points=[];sketch=1;fontFamily=Permanent Marker;hachureGap=8;fillWeight=1;" parent="sQsjrjN2aDBts0AqB7bt-9" vertex="1">
            <mxGeometry x="20" y="1294" width="190" height="80" as="geometry" />
          </mxCell>
        </object>
        <object label="Study the full stack course&amp;nbsp;&lt;br style=&quot;border-color: var(--border-color);&quot;&gt;&lt;span style=&quot;font-weight: normal&quot;&gt;&lt;i&gt;&lt;font style=&quot;font-size: 10px&quot;&gt;%status%&lt;/font&gt;&lt;/i&gt;&lt;/span&gt;" placeholders="1" id="sQsjrjN2aDBts0AqB7bt-7">
          <mxCell style="whiteSpace=wrap;html=1;strokeWidth=2;fillColor=swimlane;fontStyle=1;spacingTop=0;rounded=1;arcSize=9;points=[];sketch=1;fontFamily=Permanent Marker;hachureGap=8;fillWeight=1;" parent="sQsjrjN2aDBts0AqB7bt-9" vertex="1">
            <mxGeometry x="20" y="1394" width="190" height="80" as="geometry" />
          </mxCell>
        </object>
        <object label="Login&amp;nbsp;&lt;br style=&quot;border-color: var(--border-color);&quot;&gt;&lt;span style=&quot;font-weight: normal;&quot;&gt;&lt;i&gt;&lt;font style=&quot;font-size: 10px&quot;&gt;%status%&lt;/font&gt;&lt;/i&gt;&lt;/span&gt;" placeholders="1" id="sQsjrjN2aDBts0AqB7bt-3">
          <mxCell style="whiteSpace=wrap;html=1;strokeWidth=2;fillColor=swimlane;fontStyle=1;spacingTop=0;rounded=1;arcSize=9;points=[];sketch=1;fontFamily=Permanent Marker;hachureGap=8;fillWeight=1;" parent="sQsjrjN2aDBts0AqB7bt-9" vertex="1">
            <mxGeometry x="20" y="1494" width="190" height="80" as="geometry" />
          </mxCell>
        </object>
        <object label="Login Window&lt;br style=&quot;border-color: var(--border-color);&quot;&gt;&lt;span style=&quot;font-weight: normal;&quot;&gt;&lt;i&gt;&lt;font style=&quot;font-size: 10px&quot;&gt;%status%&lt;/font&gt;&lt;/i&gt;&lt;/span&gt;" placeholders="1" id="C-Gqak-4U_bp7HljnxZR-1">
          <mxCell style="whiteSpace=wrap;html=1;strokeWidth=2;fillColor=swimlane;fontStyle=1;spacingTop=0;rounded=1;arcSize=9;points=[];sketch=1;fontFamily=Permanent Marker;hachureGap=8;fillWeight=1;" parent="sQsjrjN2aDBts0AqB7bt-9" vertex="1">
            <mxGeometry x="20" y="1594" width="190" height="80" as="geometry" />
          </mxCell>
        </object>
        <object label="User Window&lt;br style=&quot;border-color: var(--border-color);&quot;&gt;&lt;span style=&quot;font-weight: normal;&quot;&gt;&lt;i&gt;&lt;font style=&quot;font-size: 10px&quot;&gt;%status%&lt;/font&gt;&lt;/i&gt;&lt;/span&gt;" placeholders="1" id="C-Gqak-4U_bp7HljnxZR-2">
          <mxCell style="whiteSpace=wrap;html=1;strokeWidth=2;fillColor=swimlane;fontStyle=1;spacingTop=0;rounded=1;arcSize=9;points=[];sketch=1;fontFamily=Permanent Marker;hachureGap=8;fillWeight=1;" parent="sQsjrjN2aDBts0AqB7bt-9" vertex="1">
            <mxGeometry x="20" y="1694" width="190" height="80" as="geometry" />
          </mxCell>
        </object>
        <object label="Teller Window&lt;br style=&quot;border-color: var(--border-color);&quot;&gt;&lt;span style=&quot;font-weight: normal;&quot;&gt;&lt;i&gt;&lt;font style=&quot;font-size: 10px&quot;&gt;%status%&lt;/font&gt;&lt;/i&gt;&lt;/span&gt;" placeholders="1" id="C-Gqak-4U_bp7HljnxZR-3">
          <mxCell style="whiteSpace=wrap;html=1;strokeWidth=2;fillColor=swimlane;fontStyle=1;spacingTop=0;rounded=1;arcSize=9;points=[];sketch=1;fontFamily=Permanent Marker;hachureGap=8;fillWeight=1;" parent="sQsjrjN2aDBts0AqB7bt-9" vertex="1">
            <mxGeometry x="20" y="1794" width="190" height="80" as="geometry" />
          </mxCell>
        </object>
        <object label="Business Window&lt;br style=&quot;border-color: var(--border-color);&quot;&gt;&lt;span style=&quot;font-weight: normal;&quot;&gt;&lt;i&gt;&lt;font style=&quot;font-size: 10px&quot;&gt;%status%&lt;/font&gt;&lt;/i&gt;&lt;/span&gt;" placeholders="1" id="C-Gqak-4U_bp7HljnxZR-4">
          <mxCell style="whiteSpace=wrap;html=1;strokeWidth=2;fillColor=swimlane;fontStyle=1;spacingTop=0;rounded=1;arcSize=9;points=[];sketch=1;fontFamily=Permanent Marker;hachureGap=8;fillWeight=1;" parent="sQsjrjN2aDBts0AqB7bt-9" vertex="1">
            <mxGeometry x="20" y="1894" width="190" height="80" as="geometry" />
          </mxCell>
        </object>
      </root>
    </mxGraphModel>
  </diagram>
  <diagram id="t6VV7wtrgpuZEQJkNF4m" name="Source File Tree">
    <mxGraphModel dx="1434" dy="756" grid="1" gridSize="10" guides="1" tooltips="1" connect="1" arrows="1" fold="1" page="1" pageScale="1" pageWidth="1980" pageHeight="1000" math="0" shadow="0">
      <root>
        <mxCell id="0" />
        <mxCell id="1" parent="0" />
        <mxCell id="XKY8erjdQ5eV4MXEld7f-168" value="" style="swimlane;startSize=20;horizontal=1;childLayout=treeLayout;horizontalTree=0;resizable=0;containerType=tree;fontSize=12;" parent="1" vertex="1">
          <mxGeometry width="1977" height="370" as="geometry" />
        </mxCell>
        <mxCell id="XKY8erjdQ5eV4MXEld7f-169" value="src/" style="whiteSpace=wrap;html=1;" parent="XKY8erjdQ5eV4MXEld7f-168" vertex="1">
          <mxGeometry x="1043.692" y="40" width="100" height="40" as="geometry" />
        </mxCell>
        <mxCell id="XKY8erjdQ5eV4MXEld7f-182" value="functions/" style="whiteSpace=wrap;html=1;" parent="XKY8erjdQ5eV4MXEld7f-168" vertex="1">
          <mxGeometry x="230" y="130" width="100" height="40" as="geometry" />
        </mxCell>
        <mxCell id="XKY8erjdQ5eV4MXEld7f-183" value="" style="edgeStyle=elbowEdgeStyle;elbow=vertical;html=1;rounded=1;curved=0;sourcePerimeterSpacing=0;targetPerimeterSpacing=0;startSize=6;endSize=6;" parent="XKY8erjdQ5eV4MXEld7f-168" source="XKY8erjdQ5eV4MXEld7f-169" target="XKY8erjdQ5eV4MXEld7f-182" edge="1">
          <mxGeometry relative="1" as="geometry">
            <mxPoint x="-7065.478" y="80" as="sourcePoint" />
            <mxPoint x="-7135.478" y="130" as="targetPoint" />
          </mxGeometry>
        </mxCell>
        <mxCell id="XKY8erjdQ5eV4MXEld7f-184" value="" style="edgeStyle=elbowEdgeStyle;elbow=vertical;html=1;rounded=1;curved=0;sourcePerimeterSpacing=0;targetPerimeterSpacing=0;startSize=6;endSize=6;" parent="XKY8erjdQ5eV4MXEld7f-168" source="XKY8erjdQ5eV4MXEld7f-182" target="XKY8erjdQ5eV4MXEld7f-185" edge="1">
          <mxGeometry relative="1" as="geometry">
            <mxPoint x="-6925.478" y="80" as="sourcePoint" />
            <mxPoint x="-7135.478" y="130" as="targetPoint" />
          </mxGeometry>
        </mxCell>
        <mxCell id="XKY8erjdQ5eV4MXEld7f-185" value="login.py" style="whiteSpace=wrap;html=1;" parent="XKY8erjdQ5eV4MXEld7f-168" vertex="1">
          <mxGeometry x="20" y="220" width="100" height="40" as="geometry" />
        </mxCell>
        <mxCell id="XKY8erjdQ5eV4MXEld7f-186" value="otp.py" style="whiteSpace=wrap;html=1;" parent="XKY8erjdQ5eV4MXEld7f-168" vertex="1">
          <mxGeometry x="160" y="220" width="100" height="40" as="geometry" />
        </mxCell>
        <mxCell id="XKY8erjdQ5eV4MXEld7f-187" value="" style="edgeStyle=elbowEdgeStyle;elbow=vertical;html=1;rounded=1;curved=0;sourcePerimeterSpacing=0;targetPerimeterSpacing=0;startSize=6;endSize=6;" parent="XKY8erjdQ5eV4MXEld7f-168" source="XKY8erjdQ5eV4MXEld7f-182" target="XKY8erjdQ5eV4MXEld7f-186" edge="1">
          <mxGeometry relative="1" as="geometry">
            <mxPoint x="-6785.478" y="170" as="sourcePoint" />
            <mxPoint x="-6785.478" y="220" as="targetPoint" />
          </mxGeometry>
        </mxCell>
        <mxCell id="XKY8erjdQ5eV4MXEld7f-188" value="database.py" style="whiteSpace=wrap;html=1;" parent="XKY8erjdQ5eV4MXEld7f-168" vertex="1">
          <mxGeometry x="300" y="220" width="100" height="40" as="geometry" />
        </mxCell>
        <mxCell id="XKY8erjdQ5eV4MXEld7f-189" value="" style="edgeStyle=elbowEdgeStyle;elbow=vertical;html=1;rounded=1;curved=0;sourcePerimeterSpacing=0;targetPerimeterSpacing=0;startSize=6;endSize=6;" parent="XKY8erjdQ5eV4MXEld7f-168" source="XKY8erjdQ5eV4MXEld7f-182" target="XKY8erjdQ5eV4MXEld7f-188" edge="1">
          <mxGeometry relative="1" as="geometry">
            <mxPoint x="-6589.478" y="170" as="sourcePoint" />
            <mxPoint x="-6659.478" y="220" as="targetPoint" />
          </mxGeometry>
        </mxCell>
        <mxCell id="XKY8erjdQ5eV4MXEld7f-190" value="windows/" style="whiteSpace=wrap;html=1;" parent="XKY8erjdQ5eV4MXEld7f-168" vertex="1">
          <mxGeometry x="1326.92" y="130" width="100" height="40" as="geometry" />
        </mxCell>
        <mxCell id="XKY8erjdQ5eV4MXEld7f-191" value="" style="edgeStyle=elbowEdgeStyle;elbow=vertical;html=1;rounded=1;curved=0;sourcePerimeterSpacing=0;targetPerimeterSpacing=0;startSize=6;endSize=6;" parent="XKY8erjdQ5eV4MXEld7f-168" source="XKY8erjdQ5eV4MXEld7f-169" target="XKY8erjdQ5eV4MXEld7f-190" edge="1">
          <mxGeometry relative="1" as="geometry">
            <mxPoint x="-6561.478" y="80" as="sourcePoint" />
            <mxPoint x="-6435.478000000001" y="130" as="targetPoint" />
          </mxGeometry>
        </mxCell>
        <mxCell id="XKY8erjdQ5eV4MXEld7f-196" value="aup_card.py" style="whiteSpace=wrap;html=1;" parent="XKY8erjdQ5eV4MXEld7f-168" vertex="1">
          <mxGeometry x="440" y="220" width="100" height="40" as="geometry" />
        </mxCell>
        <mxCell id="XKY8erjdQ5eV4MXEld7f-197" value="" style="edgeStyle=elbowEdgeStyle;elbow=vertical;html=1;rounded=1;curved=0;sourcePerimeterSpacing=0;targetPerimeterSpacing=0;startSize=6;endSize=6;" parent="XKY8erjdQ5eV4MXEld7f-168" source="XKY8erjdQ5eV4MXEld7f-182" target="XKY8erjdQ5eV4MXEld7f-196" edge="1">
          <mxGeometry relative="1" as="geometry">
            <mxPoint x="-5987.478000000001" y="170" as="sourcePoint" />
            <mxPoint x="-5847.478000000001" y="220" as="targetPoint" />
          </mxGeometry>
        </mxCell>
        <mxCell id="XKY8erjdQ5eV4MXEld7f-202" value="ui/" style="whiteSpace=wrap;html=1;" parent="XKY8erjdQ5eV4MXEld7f-168" vertex="1">
          <mxGeometry x="838.84" y="220" width="100" height="40" as="geometry" />
        </mxCell>
        <mxCell id="XKY8erjdQ5eV4MXEld7f-203" value="" style="edgeStyle=elbowEdgeStyle;elbow=vertical;html=1;rounded=1;curved=0;sourcePerimeterSpacing=0;targetPerimeterSpacing=0;startSize=6;endSize=6;" parent="XKY8erjdQ5eV4MXEld7f-168" source="XKY8erjdQ5eV4MXEld7f-190" target="XKY8erjdQ5eV4MXEld7f-202" edge="1">
          <mxGeometry relative="1" as="geometry">
            <mxPoint x="-5021.478" y="170" as="sourcePoint" />
            <mxPoint x="-5021.478" y="220" as="targetPoint" />
          </mxGeometry>
        </mxCell>
        <mxCell id="XKY8erjdQ5eV4MXEld7f-206" value="" style="edgeStyle=elbowEdgeStyle;elbow=vertical;html=1;rounded=1;curved=0;sourcePerimeterSpacing=0;targetPerimeterSpacing=0;startSize=6;endSize=6;" parent="XKY8erjdQ5eV4MXEld7f-168" source="XKY8erjdQ5eV4MXEld7f-202" target="XKY8erjdQ5eV4MXEld7f-207" edge="1">
          <mxGeometry relative="1" as="geometry">
            <mxPoint x="-4622.478" y="170" as="sourcePoint" />
            <mxPoint x="-5021.478" y="220" as="targetPoint" />
          </mxGeometry>
        </mxCell>
        <mxCell id="XKY8erjdQ5eV4MXEld7f-207" value="loginWindow_ui.py" style="whiteSpace=wrap;html=1;" parent="XKY8erjdQ5eV4MXEld7f-168" vertex="1">
          <mxGeometry x="1146.6100000000001" y="310" width="115.78" height="40" as="geometry" />
        </mxCell>
        <mxCell id="XKY8erjdQ5eV4MXEld7f-210" value="adminWindow_ui.py" style="whiteSpace=wrap;html=1;" parent="XKY8erjdQ5eV4MXEld7f-168" vertex="1">
          <mxGeometry x="986.3600000000001" y="310" width="120.25" height="40" as="geometry" />
        </mxCell>
        <mxCell id="XKY8erjdQ5eV4MXEld7f-211" value="" style="edgeStyle=elbowEdgeStyle;elbow=vertical;html=1;rounded=1;curved=0;sourcePerimeterSpacing=0;targetPerimeterSpacing=0;startSize=6;endSize=6;" parent="XKY8erjdQ5eV4MXEld7f-168" source="XKY8erjdQ5eV4MXEld7f-202" target="XKY8erjdQ5eV4MXEld7f-210" edge="1">
          <mxGeometry relative="1" as="geometry">
            <mxPoint x="-4552.478" y="260" as="sourcePoint" />
            <mxPoint x="-4552.478" y="310" as="targetPoint" />
          </mxGeometry>
        </mxCell>
        <mxCell id="XKY8erjdQ5eV4MXEld7f-212" value="userWindow_ui.py" style="whiteSpace=wrap;html=1;" parent="XKY8erjdQ5eV4MXEld7f-168" vertex="1">
          <mxGeometry x="835.7300000000001" y="310" width="110.63" height="40" as="geometry" />
        </mxCell>
        <mxCell id="XKY8erjdQ5eV4MXEld7f-213" value="" style="edgeStyle=elbowEdgeStyle;elbow=vertical;html=1;rounded=1;curved=0;sourcePerimeterSpacing=0;targetPerimeterSpacing=0;startSize=6;endSize=6;" parent="XKY8erjdQ5eV4MXEld7f-168" source="XKY8erjdQ5eV4MXEld7f-202" target="XKY8erjdQ5eV4MXEld7f-212" edge="1">
          <mxGeometry relative="1" as="geometry">
            <mxPoint x="-4510.478" y="260" as="sourcePoint" />
            <mxPoint x="-4440.477999999999" y="310" as="targetPoint" />
          </mxGeometry>
        </mxCell>
        <mxCell id="XKY8erjdQ5eV4MXEld7f-214" value="tellerWindow_ui.py" style="whiteSpace=wrap;html=1;" parent="XKY8erjdQ5eV4MXEld7f-168" vertex="1">
          <mxGeometry x="679.4300000000001" y="310" width="116.3" height="40" as="geometry" />
        </mxCell>
        <mxCell id="XKY8erjdQ5eV4MXEld7f-215" value="" style="edgeStyle=elbowEdgeStyle;elbow=vertical;html=1;rounded=1;curved=0;sourcePerimeterSpacing=0;targetPerimeterSpacing=0;startSize=6;endSize=6;" parent="XKY8erjdQ5eV4MXEld7f-168" source="XKY8erjdQ5eV4MXEld7f-202" target="XKY8erjdQ5eV4MXEld7f-214" edge="1">
          <mxGeometry relative="1" as="geometry">
            <mxPoint x="-4466.178" y="260" as="sourcePoint" />
            <mxPoint x="-4323.178" y="310" as="targetPoint" />
          </mxGeometry>
        </mxCell>
        <mxCell id="XKY8erjdQ5eV4MXEld7f-216" value="businessWindow_ui.py" style="whiteSpace=wrap;html=1;" parent="XKY8erjdQ5eV4MXEld7f-168" vertex="1">
          <mxGeometry x="515.2900000000001" y="310" width="124.14" height="40" as="geometry" />
        </mxCell>
        <mxCell id="XKY8erjdQ5eV4MXEld7f-217" value="" style="edgeStyle=elbowEdgeStyle;elbow=vertical;html=1;rounded=1;curved=0;sourcePerimeterSpacing=0;targetPerimeterSpacing=0;startSize=6;endSize=6;" parent="XKY8erjdQ5eV4MXEld7f-168" source="XKY8erjdQ5eV4MXEld7f-202" target="XKY8erjdQ5eV4MXEld7f-216" edge="1">
          <mxGeometry relative="1" as="geometry">
            <mxPoint x="-4421.878" y="260" as="sourcePoint" />
            <mxPoint x="-4204.878" y="310" as="targetPoint" />
          </mxGeometry>
        </mxCell>
        <mxCell id="XKY8erjdQ5eV4MXEld7f-266" value="loginWindow.py" style="whiteSpace=wrap;html=1;" parent="XKY8erjdQ5eV4MXEld7f-168" vertex="1">
          <mxGeometry x="1237.6799999999998" y="220" width="100" height="40" as="geometry" />
        </mxCell>
        <mxCell id="XKY8erjdQ5eV4MXEld7f-267" value="" style="edgeStyle=elbowEdgeStyle;elbow=vertical;html=1;rounded=1;curved=0;sourcePerimeterSpacing=0;targetPerimeterSpacing=0;startSize=6;endSize=6;" parent="XKY8erjdQ5eV4MXEld7f-168" source="XKY8erjdQ5eV4MXEld7f-190" target="XKY8erjdQ5eV4MXEld7f-266" edge="1">
          <mxGeometry relative="1" as="geometry">
            <mxPoint x="-4069.478" y="170" as="sourcePoint" />
            <mxPoint x="-4069.478" y="220" as="targetPoint" />
          </mxGeometry>
        </mxCell>
        <mxCell id="XKY8erjdQ5eV4MXEld7f-268" value="__main__.py" style="whiteSpace=wrap;html=1;" parent="XKY8erjdQ5eV4MXEld7f-168" vertex="1">
          <mxGeometry x="1857.384" y="130" width="100" height="40" as="geometry" />
        </mxCell>
        <mxCell id="XKY8erjdQ5eV4MXEld7f-269" value="" style="edgeStyle=elbowEdgeStyle;elbow=vertical;html=1;rounded=1;curved=0;sourcePerimeterSpacing=0;targetPerimeterSpacing=0;startSize=6;endSize=6;" parent="XKY8erjdQ5eV4MXEld7f-168" source="XKY8erjdQ5eV4MXEld7f-169" target="XKY8erjdQ5eV4MXEld7f-268" edge="1">
          <mxGeometry relative="1" as="geometry">
            <mxPoint x="-3355.928" y="80" as="sourcePoint" />
            <mxPoint x="-2951.928" y="130" as="targetPoint" />
          </mxGeometry>
        </mxCell>
        <mxCell id="XKY8erjdQ5eV4MXEld7f-270" value="adminWindow.py" style="whiteSpace=wrap;html=1;" parent="XKY8erjdQ5eV4MXEld7f-168" vertex="1">
          <mxGeometry x="1377.6799999999998" y="220" width="100" height="40" as="geometry" />
        </mxCell>
        <mxCell id="XKY8erjdQ5eV4MXEld7f-271" value="" style="edgeStyle=elbowEdgeStyle;elbow=vertical;html=1;rounded=1;curved=0;sourcePerimeterSpacing=0;targetPerimeterSpacing=0;startSize=6;endSize=6;" parent="XKY8erjdQ5eV4MXEld7f-168" source="XKY8erjdQ5eV4MXEld7f-190" target="XKY8erjdQ5eV4MXEld7f-270" edge="1">
          <mxGeometry relative="1" as="geometry">
            <mxPoint x="-2337.798" y="170" as="sourcePoint" />
            <mxPoint x="-2137.798" y="220" as="targetPoint" />
          </mxGeometry>
        </mxCell>
        <mxCell id="XKY8erjdQ5eV4MXEld7f-272" value="userWindow.py" style="whiteSpace=wrap;html=1;" parent="XKY8erjdQ5eV4MXEld7f-168" vertex="1">
          <mxGeometry x="1517.6799999999998" y="220" width="100" height="40" as="geometry" />
        </mxCell>
        <mxCell id="XKY8erjdQ5eV4MXEld7f-273" value="" style="edgeStyle=elbowEdgeStyle;elbow=vertical;html=1;rounded=1;curved=0;sourcePerimeterSpacing=0;targetPerimeterSpacing=0;startSize=6;endSize=6;" parent="XKY8erjdQ5eV4MXEld7f-168" source="XKY8erjdQ5eV4MXEld7f-190" target="XKY8erjdQ5eV4MXEld7f-272" edge="1">
          <mxGeometry relative="1" as="geometry">
            <mxPoint x="-1503.9" y="170" as="sourcePoint" />
            <mxPoint x="-1233.9" y="220" as="targetPoint" />
          </mxGeometry>
        </mxCell>
        <mxCell id="XKY8erjdQ5eV4MXEld7f-274" value="tellerWindow.py" style="whiteSpace=wrap;html=1;" parent="XKY8erjdQ5eV4MXEld7f-168" vertex="1">
          <mxGeometry x="1657.6799999999998" y="220" width="100" height="40" as="geometry" />
        </mxCell>
        <mxCell id="XKY8erjdQ5eV4MXEld7f-275" value="" style="edgeStyle=elbowEdgeStyle;elbow=vertical;html=1;rounded=1;curved=0;sourcePerimeterSpacing=0;targetPerimeterSpacing=0;startSize=6;endSize=6;" parent="XKY8erjdQ5eV4MXEld7f-168" source="XKY8erjdQ5eV4MXEld7f-190" target="XKY8erjdQ5eV4MXEld7f-274" edge="1">
          <mxGeometry relative="1" as="geometry">
            <mxPoint x="-607.0020000000004" y="170" as="sourcePoint" />
            <mxPoint x="-267.0020000000004" y="220" as="targetPoint" />
          </mxGeometry>
        </mxCell>
        <mxCell id="XKY8erjdQ5eV4MXEld7f-276" value="businessWindow.py" style="whiteSpace=wrap;html=1;" parent="XKY8erjdQ5eV4MXEld7f-168" vertex="1">
          <mxGeometry x="1800.1799999999998" y="220" width="112.32" height="40" as="geometry" />
        </mxCell>
        <mxCell id="XKY8erjdQ5eV4MXEld7f-277" value="" style="edgeStyle=elbowEdgeStyle;elbow=vertical;html=1;rounded=1;curved=0;sourcePerimeterSpacing=0;targetPerimeterSpacing=0;startSize=6;endSize=6;" parent="XKY8erjdQ5eV4MXEld7f-168" source="XKY8erjdQ5eV4MXEld7f-190" target="XKY8erjdQ5eV4MXEld7f-276" edge="1">
          <mxGeometry relative="1" as="geometry">
            <mxPoint x="352.8959999999996" y="170" as="sourcePoint" />
            <mxPoint x="762.8959999999996" y="220" as="targetPoint" />
          </mxGeometry>
        </mxCell>
      </root>
    </mxGraphModel>
  </diagram>
  <diagram id="hCtM9y0RMGifUUl_RX75" name="Application Flow">
    <mxGraphModel dx="1434" dy="756" grid="1" gridSize="10" guides="1" tooltips="1" connect="1" arrows="1" fold="1" page="1" pageScale="1" pageWidth="850" pageHeight="1100" math="0" shadow="0">
      <root>
        <mxCell id="0" />
        <mxCell id="1" parent="0" />
        <mxCell id="rCt0cQx2AFqA7m24ibWl-3" value="" style="edgeStyle=orthogonalEdgeStyle;rounded=0;orthogonalLoop=1;jettySize=auto;html=1;" parent="1" source="rCt0cQx2AFqA7m24ibWl-1" target="rCt0cQx2AFqA7m24ibWl-4" edge="1">
          <mxGeometry relative="1" as="geometry">
            <mxPoint x="425" y="135" as="targetPoint" />
          </mxGeometry>
        </mxCell>
        <mxCell id="rCt0cQx2AFqA7m24ibWl-1" value="Start" style="html=1;dashed=0;whitespace=wrap;shape=mxgraph.dfd.start" parent="1" vertex="1">
          <mxGeometry x="385" y="40" width="80" height="30" as="geometry" />
        </mxCell>
        <mxCell id="rCt0cQx2AFqA7m24ibWl-8" value="" style="edgeStyle=orthogonalEdgeStyle;rounded=0;orthogonalLoop=1;jettySize=auto;html=1;" parent="1" source="rCt0cQx2AFqA7m24ibWl-4" target="rCt0cQx2AFqA7m24ibWl-7" edge="1">
          <mxGeometry relative="1" as="geometry" />
        </mxCell>
        <mxCell id="rCt0cQx2AFqA7m24ibWl-4" value="Login" style="html=1;strokeWidth=2;shape=manualInput;whiteSpace=wrap;rounded=1;size=26;arcSize=11;" parent="1" vertex="1">
          <mxGeometry x="375" y="120" width="100" height="60" as="geometry" />
        </mxCell>
        <mxCell id="rCt0cQx2AFqA7m24ibWl-10" value="" style="edgeStyle=orthogonalEdgeStyle;rounded=0;orthogonalLoop=1;jettySize=auto;html=1;sketch=0;" parent="1" source="rCt0cQx2AFqA7m24ibWl-7" target="rCt0cQx2AFqA7m24ibWl-9" edge="1">
          <mxGeometry relative="1" as="geometry" />
        </mxCell>
        <mxCell id="rCt0cQx2AFqA7m24ibWl-12" style="edgeStyle=orthogonalEdgeStyle;rounded=0;sketch=0;orthogonalLoop=1;jettySize=auto;html=1;" parent="1" source="rCt0cQx2AFqA7m24ibWl-7" target="rCt0cQx2AFqA7m24ibWl-11" edge="1">
          <mxGeometry relative="1" as="geometry" />
        </mxCell>
        <mxCell id="rCt0cQx2AFqA7m24ibWl-14" value="" style="edgeStyle=orthogonalEdgeStyle;rounded=0;sketch=0;orthogonalLoop=1;jettySize=auto;html=1;" parent="1" source="rCt0cQx2AFqA7m24ibWl-7" target="rCt0cQx2AFqA7m24ibWl-13" edge="1">
          <mxGeometry relative="1" as="geometry" />
        </mxCell>
        <mxCell id="rCt0cQx2AFqA7m24ibWl-16" value="" style="edgeStyle=orthogonalEdgeStyle;rounded=0;sketch=0;orthogonalLoop=1;jettySize=auto;html=1;" parent="1" source="rCt0cQx2AFqA7m24ibWl-7" target="rCt0cQx2AFqA7m24ibWl-15" edge="1">
          <mxGeometry relative="1" as="geometry" />
        </mxCell>
        <mxCell id="rCt0cQx2AFqA7m24ibWl-7" value="Which userType does the user belong to" style="whiteSpace=wrap;html=1;strokeWidth=2;rounded=1;arcSize=11;" parent="1" vertex="1">
          <mxGeometry x="365" y="260" width="120" height="60" as="geometry" />
        </mxCell>
        <mxCell id="rCt0cQx2AFqA7m24ibWl-18" value="" style="edgeStyle=orthogonalEdgeStyle;rounded=0;sketch=0;orthogonalLoop=1;jettySize=auto;html=1;" parent="1" source="rCt0cQx2AFqA7m24ibWl-9" target="rCt0cQx2AFqA7m24ibWl-17" edge="1">
          <mxGeometry relative="1" as="geometry">
            <Array as="points">
              <mxPoint x="170" y="430" />
            </Array>
          </mxGeometry>
        </mxCell>
        <mxCell id="rCt0cQx2AFqA7m24ibWl-9" value="User" style="rhombus;whiteSpace=wrap;html=1;strokeWidth=2;rounded=1;arcSize=11;" parent="1" vertex="1">
          <mxGeometry x="230" y="390" width="80" height="80" as="geometry" />
        </mxCell>
        <mxCell id="rCt0cQx2AFqA7m24ibWl-28" style="edgeStyle=orthogonalEdgeStyle;rounded=0;sketch=0;orthogonalLoop=1;jettySize=auto;html=1;" parent="1" source="rCt0cQx2AFqA7m24ibWl-11" target="rCt0cQx2AFqA7m24ibWl-27" edge="1">
          <mxGeometry relative="1" as="geometry" />
        </mxCell>
        <mxCell id="rCt0cQx2AFqA7m24ibWl-11" value="Teller" style="rhombus;whiteSpace=wrap;html=1;strokeWidth=2;rounded=1;arcSize=11;" parent="1" vertex="1">
          <mxGeometry x="385" y="390" width="80" height="80" as="geometry" />
        </mxCell>
        <mxCell id="xAtRO2zCqhHwcdbKaXVL-2" value="" style="edgeStyle=orthogonalEdgeStyle;rounded=0;sketch=0;orthogonalLoop=1;jettySize=auto;html=1;" parent="1" source="rCt0cQx2AFqA7m24ibWl-13" target="xAtRO2zCqhHwcdbKaXVL-1" edge="1">
          <mxGeometry relative="1" as="geometry" />
        </mxCell>
        <mxCell id="rCt0cQx2AFqA7m24ibWl-13" value="Business" style="rhombus;whiteSpace=wrap;html=1;strokeWidth=2;rounded=1;arcSize=11;" parent="1" vertex="1">
          <mxGeometry x="540" y="390" width="80" height="80" as="geometry" />
        </mxCell>
        <mxCell id="xAtRO2zCqhHwcdbKaXVL-7" value="" style="edgeStyle=orthogonalEdgeStyle;rounded=0;sketch=0;orthogonalLoop=1;jettySize=auto;html=1;" parent="1" source="rCt0cQx2AFqA7m24ibWl-15" target="xAtRO2zCqhHwcdbKaXVL-6" edge="1">
          <mxGeometry relative="1" as="geometry" />
        </mxCell>
        <mxCell id="rCt0cQx2AFqA7m24ibWl-15" value="Administrator" style="rhombus;whiteSpace=wrap;html=1;strokeWidth=2;rounded=1;arcSize=11;" parent="1" vertex="1">
          <mxGeometry x="700" y="390" width="80" height="80" as="geometry" />
        </mxCell>
        <mxCell id="rCt0cQx2AFqA7m24ibWl-23" value="" style="edgeStyle=orthogonalEdgeStyle;rounded=0;sketch=0;orthogonalLoop=1;jettySize=auto;html=1;" parent="1" source="rCt0cQx2AFqA7m24ibWl-17" target="rCt0cQx2AFqA7m24ibWl-22" edge="1">
          <mxGeometry relative="1" as="geometry" />
        </mxCell>
        <mxCell id="rCt0cQx2AFqA7m24ibWl-24" style="edgeStyle=orthogonalEdgeStyle;rounded=0;sketch=0;orthogonalLoop=1;jettySize=auto;html=1;" parent="1" source="rCt0cQx2AFqA7m24ibWl-17" target="rCt0cQx2AFqA7m24ibWl-21" edge="1">
          <mxGeometry relative="1" as="geometry" />
        </mxCell>
        <mxCell id="rCt0cQx2AFqA7m24ibWl-26" value="" style="edgeStyle=orthogonalEdgeStyle;rounded=0;sketch=0;orthogonalLoop=1;jettySize=auto;html=1;" parent="1" source="rCt0cQx2AFqA7m24ibWl-17" target="rCt0cQx2AFqA7m24ibWl-25" edge="1">
          <mxGeometry relative="1" as="geometry" />
        </mxCell>
        <mxCell id="rCt0cQx2AFqA7m24ibWl-17" value="Options" style="whiteSpace=wrap;html=1;strokeWidth=2;rounded=1;arcSize=11;" parent="1" vertex="1">
          <mxGeometry x="110" y="480" width="120" height="60" as="geometry" />
        </mxCell>
        <mxCell id="rCt0cQx2AFqA7m24ibWl-21" value="See Balance" style="rhombus;whiteSpace=wrap;html=1;strokeWidth=2;rounded=1;arcSize=11;" parent="1" vertex="1">
          <mxGeometry x="230" y="610" width="80" height="80" as="geometry" />
        </mxCell>
        <mxCell id="rCt0cQx2AFqA7m24ibWl-22" value="Change OTP" style="rhombus;whiteSpace=wrap;html=1;strokeWidth=2;rounded=1;arcSize=11;" parent="1" vertex="1">
          <mxGeometry x="130" y="610" width="80" height="80" as="geometry" />
        </mxCell>
        <mxCell id="rCt0cQx2AFqA7m24ibWl-25" value="See History" style="rhombus;whiteSpace=wrap;html=1;strokeWidth=2;rounded=1;arcSize=11;" parent="1" vertex="1">
          <mxGeometry x="30" y="610" width="80" height="80" as="geometry" />
        </mxCell>
        <mxCell id="rCt0cQx2AFqA7m24ibWl-32" value="" style="edgeStyle=orthogonalEdgeStyle;rounded=0;sketch=0;orthogonalLoop=1;jettySize=auto;html=1;" parent="1" source="rCt0cQx2AFqA7m24ibWl-27" target="rCt0cQx2AFqA7m24ibWl-31" edge="1">
          <mxGeometry relative="1" as="geometry" />
        </mxCell>
        <mxCell id="DujOj_HBmxYpjLz2AVT0-4" value="" style="edgeStyle=orthogonalEdgeStyle;rounded=0;sketch=0;orthogonalLoop=1;jettySize=auto;html=1;" parent="1" source="rCt0cQx2AFqA7m24ibWl-27" target="DujOj_HBmxYpjLz2AVT0-3" edge="1">
          <mxGeometry relative="1" as="geometry" />
        </mxCell>
        <mxCell id="rCt0cQx2AFqA7m24ibWl-27" value="Options" style="whiteSpace=wrap;html=1;strokeWidth=2;rounded=1;arcSize=11;" parent="1" vertex="1">
          <mxGeometry x="365" y="480" width="120" height="60" as="geometry" />
        </mxCell>
        <UserObject label="Deposit" link="data:page/id,KycTivLKhUA2HDrQFwje" id="rCt0cQx2AFqA7m24ibWl-31">
          <mxCell style="rhombus;whiteSpace=wrap;html=1;strokeWidth=2;rounded=1;arcSize=11;" parent="1" vertex="1">
            <mxGeometry x="325" y="610" width="80" height="80" as="geometry" />
          </mxCell>
        </UserObject>
        <UserObject label="Withdraw" link="data:page/id,Xti1-zlDYNrMRii6McsF" id="DujOj_HBmxYpjLz2AVT0-3">
          <mxCell style="rhombus;whiteSpace=wrap;html=1;strokeWidth=2;rounded=1;arcSize=11;" parent="1" vertex="1">
            <mxGeometry x="445" y="610" width="80" height="80" as="geometry" />
          </mxCell>
        </UserObject>
        <mxCell id="xAtRO2zCqhHwcdbKaXVL-4" value="" style="edgeStyle=orthogonalEdgeStyle;rounded=0;sketch=0;orthogonalLoop=1;jettySize=auto;html=1;" parent="1" source="xAtRO2zCqhHwcdbKaXVL-1" target="xAtRO2zCqhHwcdbKaXVL-3" edge="1">
          <mxGeometry relative="1" as="geometry" />
        </mxCell>
        <mxCell id="xAtRO2zCqhHwcdbKaXVL-1" value="Options" style="whiteSpace=wrap;html=1;strokeWidth=2;rounded=1;arcSize=11;" parent="1" vertex="1">
          <mxGeometry x="520" y="480" width="120" height="60" as="geometry" />
        </mxCell>
        <UserObject label="Charge" link="data:page/id,6a731a19-8d31-9384-78a2-239565b7b9f0" id="xAtRO2zCqhHwcdbKaXVL-3">
          <mxCell style="rhombus;whiteSpace=wrap;html=1;strokeWidth=2;rounded=1;arcSize=11;" parent="1" vertex="1">
            <mxGeometry x="540" y="610" width="80" height="80" as="geometry" />
          </mxCell>
        </UserObject>
        <mxCell id="xAtRO2zCqhHwcdbKaXVL-11" value="" style="edgeStyle=orthogonalEdgeStyle;rounded=0;sketch=0;orthogonalLoop=1;jettySize=auto;html=1;" parent="1" source="xAtRO2zCqhHwcdbKaXVL-6" target="xAtRO2zCqhHwcdbKaXVL-10" edge="1">
          <mxGeometry relative="1" as="geometry" />
        </mxCell>
        <mxCell id="xAtRO2zCqhHwcdbKaXVL-13" value="" style="edgeStyle=orthogonalEdgeStyle;rounded=0;sketch=0;orthogonalLoop=1;jettySize=auto;html=1;" parent="1" source="xAtRO2zCqhHwcdbKaXVL-6" target="xAtRO2zCqhHwcdbKaXVL-12" edge="1">
          <mxGeometry relative="1" as="geometry" />
        </mxCell>
        <mxCell id="xAtRO2zCqhHwcdbKaXVL-6" value="Options" style="whiteSpace=wrap;html=1;strokeWidth=2;rounded=1;arcSize=11;" parent="1" vertex="1">
          <mxGeometry x="680" y="480" width="120" height="60" as="geometry" />
        </mxCell>
        <mxCell id="xAtRO2zCqhHwcdbKaXVL-10" value="Manage Users" style="rhombus;whiteSpace=wrap;html=1;strokeWidth=2;rounded=1;arcSize=11;" parent="1" vertex="1">
          <mxGeometry x="760" y="610" width="80" height="80" as="geometry" />
        </mxCell>
        <mxCell id="xAtRO2zCqhHwcdbKaXVL-12" value="See All&lt;br&gt;Transactions" style="rhombus;whiteSpace=wrap;html=1;strokeWidth=2;rounded=1;arcSize=11;" parent="1" vertex="1">
          <mxGeometry x="640" y="610" width="80" height="80" as="geometry" />
        </mxCell>
        <mxCell id="K4yRkiaUMuyDyAmElLu4-3" value="Yes" style="edgeStyle=orthogonalEdgeStyle;rounded=0;orthogonalLoop=1;jettySize=auto;html=1;" parent="1" source="K4yRkiaUMuyDyAmElLu4-1" target="K4yRkiaUMuyDyAmElLu4-2" edge="1">
          <mxGeometry relative="1" as="geometry" />
        </mxCell>
        <mxCell id="K4yRkiaUMuyDyAmElLu4-1" value="Did the operator &lt;br&gt;close the application&lt;br&gt;or&lt;br&gt;did 8 hours have passed since last logged in?" style="rhombus;whiteSpace=wrap;html=1;" parent="1" vertex="1">
          <mxGeometry x="100" y="20" width="160" height="130" as="geometry" />
        </mxCell>
        <mxCell id="K4yRkiaUMuyDyAmElLu4-2" value="End" style="html=1;dashed=0;whitespace=wrap;shape=mxgraph.dfd.start" parent="1" vertex="1">
          <mxGeometry x="140" y="220" width="80" height="30" as="geometry" />
        </mxCell>
      </root>
    </mxGraphModel>
  </diagram>
  <diagram id="KycTivLKhUA2HDrQFwje" name="Deposit Process">
    <mxGraphModel dx="1194" dy="741" grid="1" gridSize="10" guides="1" tooltips="1" connect="1" arrows="1" fold="1" page="1" pageScale="1" pageWidth="850" pageHeight="1100" math="0" shadow="0">
      <root>
        <mxCell id="0" />
        <mxCell id="1" parent="0" />
        <mxCell id="qZc_wyymIVVBSzODWp_0-1" value="" style="edgeStyle=orthogonalEdgeStyle;rounded=0;orthogonalLoop=1;jettySize=auto;html=1;" parent="1" source="qZc_wyymIVVBSzODWp_0-2" target="qZc_wyymIVVBSzODWp_0-14" edge="1">
          <mxGeometry relative="1" as="geometry" />
        </mxCell>
        <mxCell id="qZc_wyymIVVBSzODWp_0-2" value="Start" style="html=1;dashed=0;whitespace=wrap;shape=mxgraph.dfd.start" parent="1" vertex="1">
          <mxGeometry x="399.97" y="30" width="80" height="30" as="geometry" />
        </mxCell>
        <mxCell id="qZc_wyymIVVBSzODWp_0-3" value="No" style="edgeStyle=orthogonalEdgeStyle;rounded=0;orthogonalLoop=1;jettySize=auto;html=1;" parent="1" source="qZc_wyymIVVBSzODWp_0-5" target="qZc_wyymIVVBSzODWp_0-16" edge="1">
          <mxGeometry x="-0.6694" relative="1" as="geometry">
            <mxPoint x="599.97" y="185" as="targetPoint" />
            <mxPoint as="offset" />
          </mxGeometry>
        </mxCell>
        <mxCell id="qZc_wyymIVVBSzODWp_0-4" value="Yes" style="edgeStyle=orthogonalEdgeStyle;rounded=0;orthogonalLoop=1;jettySize=auto;html=1;" parent="1" source="qZc_wyymIVVBSzODWp_0-5" target="qZc_wyymIVVBSzODWp_0-8" edge="1">
          <mxGeometry relative="1" as="geometry" />
        </mxCell>
        <mxCell id="nvsagZ-cFkjqRiD8pF1--2" style="edgeStyle=orthogonalEdgeStyle;rounded=0;orthogonalLoop=1;jettySize=auto;html=1;" parent="1" source="qZc_wyymIVVBSzODWp_0-5" target="nvsagZ-cFkjqRiD8pF1--1" edge="1">
          <mxGeometry relative="1" as="geometry">
            <Array as="points">
              <mxPoint x="550" y="410" />
              <mxPoint x="550" y="410" />
            </Array>
          </mxGeometry>
        </mxCell>
        <mxCell id="qZc_wyymIVVBSzODWp_0-5" value="Is card &lt;br&gt;registered on database?" style="strokeWidth=2;html=1;shape=mxgraph.flowchart.decision;whiteSpace=wrap;" parent="1" vertex="1">
          <mxGeometry x="379.97" y="345" width="120" height="85" as="geometry" />
        </mxCell>
        <mxCell id="qZc_wyymIVVBSzODWp_0-6" style="edgeStyle=orthogonalEdgeStyle;rounded=0;orthogonalLoop=1;jettySize=auto;html=1;" parent="1" source="qZc_wyymIVVBSzODWp_0-9" target="qZc_wyymIVVBSzODWp_0-5" edge="1">
          <mxGeometry relative="1" as="geometry">
            <mxPoint x="439.97" y="310" as="sourcePoint" />
          </mxGeometry>
        </mxCell>
        <mxCell id="qZc_wyymIVVBSzODWp_0-7" style="edgeStyle=orthogonalEdgeStyle;rounded=0;orthogonalLoop=1;jettySize=auto;html=1;" parent="1" source="qZc_wyymIVVBSzODWp_0-8" target="qZc_wyymIVVBSzODWp_0-11" edge="1">
          <mxGeometry relative="1" as="geometry" />
        </mxCell>
        <mxCell id="qZc_wyymIVVBSzODWp_0-8" value="Place card id to current_card_id" style="whiteSpace=wrap;html=1;strokeWidth=2;" parent="1" vertex="1">
          <mxGeometry x="379.97" y="500" width="120" height="60" as="geometry" />
        </mxCell>
        <mxCell id="qZc_wyymIVVBSzODWp_0-9" value="User taps card" style="html=1;strokeWidth=2;shape=manualInput;whiteSpace=wrap;rounded=1;size=26;arcSize=11;" parent="1" vertex="1">
          <mxGeometry x="389.97" y="240" width="100" height="60" as="geometry" />
        </mxCell>
        <mxCell id="qZc_wyymIVVBSzODWp_0-10" value="" style="edgeStyle=orthogonalEdgeStyle;rounded=0;orthogonalLoop=1;jettySize=auto;html=1;" parent="1" source="qZc_wyymIVVBSzODWp_0-11" target="qZc_wyymIVVBSzODWp_0-20" edge="1">
          <mxGeometry relative="1" as="geometry" />
        </mxCell>
        <mxCell id="qZc_wyymIVVBSzODWp_0-11" value="How much to be deposited to the ID" style="html=1;strokeWidth=2;shape=manualInput;whiteSpace=wrap;rounded=1;size=26;arcSize=11;" parent="1" vertex="1">
          <mxGeometry x="389.97" y="610" width="100" height="100" as="geometry" />
        </mxCell>
        <mxCell id="qZc_wyymIVVBSzODWp_0-12" value="" style="edgeStyle=orthogonalEdgeStyle;rounded=0;orthogonalLoop=1;jettySize=auto;html=1;" parent="1" source="qZc_wyymIVVBSzODWp_0-28" target="qZc_wyymIVVBSzODWp_0-16" edge="1">
          <mxGeometry relative="1" as="geometry">
            <mxPoint x="279.97" y="566.25" as="sourcePoint" />
          </mxGeometry>
        </mxCell>
        <mxCell id="qZc_wyymIVVBSzODWp_0-13" style="edgeStyle=orthogonalEdgeStyle;rounded=0;orthogonalLoop=1;jettySize=auto;html=1;" parent="1" source="qZc_wyymIVVBSzODWp_0-14" target="qZc_wyymIVVBSzODWp_0-9" edge="1">
          <mxGeometry relative="1" as="geometry" />
        </mxCell>
        <mxCell id="qZc_wyymIVVBSzODWp_0-14" value="Idle/Wait" style="whiteSpace=wrap;html=1;dashed=0;" parent="1" vertex="1">
          <mxGeometry x="379.97" y="125" width="120" height="60" as="geometry" />
        </mxCell>
        <mxCell id="qZc_wyymIVVBSzODWp_0-15" style="edgeStyle=orthogonalEdgeStyle;rounded=0;orthogonalLoop=1;jettySize=auto;html=1;" parent="1" source="qZc_wyymIVVBSzODWp_0-16" target="qZc_wyymIVVBSzODWp_0-14" edge="1">
          <mxGeometry relative="1" as="geometry">
            <Array as="points">
              <mxPoint x="279.97" y="155" />
            </Array>
          </mxGeometry>
        </mxCell>
        <mxCell id="qZc_wyymIVVBSzODWp_0-16" value="clear current_card_id and amount" style="whiteSpace=wrap;html=1;" parent="1" vertex="1">
          <mxGeometry x="219.97000000000003" y="125" width="120" height="60" as="geometry" />
        </mxCell>
        <mxCell id="qZc_wyymIVVBSzODWp_0-17" style="edgeStyle=orthogonalEdgeStyle;rounded=0;orthogonalLoop=1;jettySize=auto;html=1;" parent="1" source="qZc_wyymIVVBSzODWp_0-20" target="qZc_wyymIVVBSzODWp_0-11" edge="1">
          <mxGeometry relative="1" as="geometry">
            <Array as="points">
              <mxPoint x="589.97" y="810" />
              <mxPoint x="589.97" y="660" />
            </Array>
          </mxGeometry>
        </mxCell>
        <mxCell id="qZc_wyymIVVBSzODWp_0-18" value="No" style="edgeLabel;html=1;align=center;verticalAlign=middle;resizable=0;points=[];" parent="qZc_wyymIVVBSzODWp_0-17" vertex="1" connectable="0">
          <mxGeometry x="-0.684" y="3" relative="1" as="geometry">
            <mxPoint x="-11" y="3" as="offset" />
          </mxGeometry>
        </mxCell>
        <mxCell id="qZc_wyymIVVBSzODWp_0-19" value="Yes" style="edgeStyle=orthogonalEdgeStyle;rounded=0;orthogonalLoop=1;jettySize=auto;html=1;" parent="1" source="qZc_wyymIVVBSzODWp_0-20" target="qZc_wyymIVVBSzODWp_0-24" edge="1">
          <mxGeometry relative="1" as="geometry">
            <mxPoint x="439.97" y="1000" as="targetPoint" />
          </mxGeometry>
        </mxCell>
        <mxCell id="qZc_wyymIVVBSzODWp_0-20" value="Is the teller balance enough for the transaction?" style="rhombus;whiteSpace=wrap;html=1;strokeWidth=2;rounded=1;arcSize=11;" parent="1" vertex="1">
          <mxGeometry x="384.97" y="760" width="110" height="100" as="geometry" />
        </mxCell>
        <mxCell id="qZc_wyymIVVBSzODWp_0-21" style="edgeStyle=orthogonalEdgeStyle;rounded=0;orthogonalLoop=1;jettySize=auto;html=1;" parent="1" source="qZc_wyymIVVBSzODWp_0-24" target="qZc_wyymIVVBSzODWp_0-11" edge="1">
          <mxGeometry relative="1" as="geometry">
            <Array as="points">
              <mxPoint x="589.97" y="965" />
              <mxPoint x="589.97" y="660" />
            </Array>
          </mxGeometry>
        </mxCell>
        <mxCell id="qZc_wyymIVVBSzODWp_0-22" value="Cancel" style="edgeLabel;html=1;align=center;verticalAlign=middle;resizable=0;points=[];" parent="qZc_wyymIVVBSzODWp_0-21" vertex="1" connectable="0">
          <mxGeometry x="-0.7327" y="1" relative="1" as="geometry">
            <mxPoint x="-17" y="1" as="offset" />
          </mxGeometry>
        </mxCell>
        <mxCell id="qZc_wyymIVVBSzODWp_0-23" value="Confirm" style="edgeStyle=orthogonalEdgeStyle;rounded=0;orthogonalLoop=1;jettySize=auto;html=1;" parent="1" source="qZc_wyymIVVBSzODWp_0-24" target="qZc_wyymIVVBSzODWp_0-26" edge="1">
          <mxGeometry relative="1" as="geometry" />
        </mxCell>
        <mxCell id="qZc_wyymIVVBSzODWp_0-24" value="Prompt the operator for confirmation" style="html=1;strokeWidth=2;shape=manualInput;whiteSpace=wrap;rounded=1;size=26;arcSize=11;" parent="1" vertex="1">
          <mxGeometry x="389.97" y="920" width="100" height="90" as="geometry" />
        </mxCell>
        <mxCell id="qZc_wyymIVVBSzODWp_0-25" style="edgeStyle=orthogonalEdgeStyle;rounded=0;orthogonalLoop=1;jettySize=auto;html=1;" parent="1" source="qZc_wyymIVVBSzODWp_0-26" target="qZc_wyymIVVBSzODWp_0-16" edge="1">
          <mxGeometry relative="1" as="geometry">
            <Array as="points">
              <mxPoint x="169.97" y="1135" />
              <mxPoint x="169.97" y="310" />
            </Array>
          </mxGeometry>
        </mxCell>
        <mxCell id="TmRsRVZtZihS6FmcOEFg-3" style="edgeStyle=orthogonalEdgeStyle;rounded=0;orthogonalLoop=1;jettySize=auto;html=1;" parent="1" source="qZc_wyymIVVBSzODWp_0-26" target="TmRsRVZtZihS6FmcOEFg-1" edge="1">
          <mxGeometry relative="1" as="geometry">
            <Array as="points">
              <mxPoint x="540" y="1120" />
              <mxPoint x="540" y="1120" />
            </Array>
          </mxGeometry>
        </mxCell>
        <mxCell id="qZc_wyymIVVBSzODWp_0-26" value="Transaction complete" style="whiteSpace=wrap;html=1;strokeWidth=2;rounded=1;arcSize=11;" parent="1" vertex="1">
          <mxGeometry x="379.97" y="1105" width="120" height="60" as="geometry" />
        </mxCell>
        <mxCell id="qZc_wyymIVVBSzODWp_0-27" value="" style="strokeWidth=2;html=1;shape=mxgraph.flowchart.annotation_2;align=left;labelPosition=right;pointerEvents=1;" parent="1" vertex="1">
          <mxGeometry x="339.97" y="280" width="50" height="700" as="geometry" />
        </mxCell>
        <mxCell id="qZc_wyymIVVBSzODWp_0-28" value="Did the operator press &quot;c&quot; to cancel the current transaction?" style="strokeWidth=2;html=1;shape=mxgraph.flowchart.decision;whiteSpace=wrap;" parent="1" vertex="1">
          <mxGeometry x="219.97000000000003" y="587.5" width="120" height="85" as="geometry" />
        </mxCell>
        <mxCell id="TmRsRVZtZihS6FmcOEFg-5" style="edgeStyle=orthogonalEdgeStyle;rounded=0;orthogonalLoop=1;jettySize=auto;html=1;" parent="1" source="nvsagZ-cFkjqRiD8pF1--1" target="qZc_wyymIVVBSzODWp_0-5" edge="1">
          <mxGeometry relative="1" as="geometry">
            <Array as="points">
              <mxPoint x="540" y="370" />
              <mxPoint x="540" y="370" />
            </Array>
          </mxGeometry>
        </mxCell>
        <mxCell id="nvsagZ-cFkjqRiD8pF1--1" value="User" style="strokeWidth=2;html=1;shape=mxgraph.flowchart.database;whiteSpace=wrap;" parent="1" vertex="1">
          <mxGeometry x="590" y="357.5" width="60" height="60" as="geometry" />
        </mxCell>
        <mxCell id="TmRsRVZtZihS6FmcOEFg-7" style="edgeStyle=orthogonalEdgeStyle;rounded=0;orthogonalLoop=1;jettySize=auto;html=1;" parent="1" source="TmRsRVZtZihS6FmcOEFg-1" target="qZc_wyymIVVBSzODWp_0-26" edge="1">
          <mxGeometry relative="1" as="geometry">
            <Array as="points">
              <mxPoint x="560" y="1150" />
              <mxPoint x="560" y="1150" />
            </Array>
          </mxGeometry>
        </mxCell>
        <mxCell id="TmRsRVZtZihS6FmcOEFg-1" value="Transaction" style="strokeWidth=2;html=1;shape=mxgraph.flowchart.database;whiteSpace=wrap;" parent="1" vertex="1">
          <mxGeometry x="579.97" y="1100" width="70.03" height="60" as="geometry" />
        </mxCell>
      </root>
    </mxGraphModel>
  </diagram>
  <diagram id="6a731a19-8d31-9384-78a2-239565b7b9f0" name="Charging Process">
    <mxGraphModel dx="1687" dy="948" grid="1" gridSize="10" guides="1" tooltips="1" connect="1" arrows="1" fold="1" page="1" pageScale="1" pageWidth="1169" pageHeight="827" background="none" math="0" shadow="0">
      <root>
        <mxCell id="0" />
        <mxCell id="1" parent="0" />
        <mxCell id="HPsjYcUWnoOo99uJpjyN-32" value="" style="edgeStyle=orthogonalEdgeStyle;rounded=0;orthogonalLoop=1;jettySize=auto;html=1;" parent="1" source="tvNCmk0iYPsiMGSgwvTy-55" target="HPsjYcUWnoOo99uJpjyN-31" edge="1">
          <mxGeometry relative="1" as="geometry" />
        </mxCell>
        <mxCell id="tvNCmk0iYPsiMGSgwvTy-55" value="Start" style="html=1;dashed=0;whitespace=wrap;shape=mxgraph.dfd.start" parent="1" vertex="1">
          <mxGeometry x="340" y="30" width="80" height="30" as="geometry" />
        </mxCell>
        <mxCell id="tBge6L44hxKh2gQSTph2-11" value="No" style="edgeStyle=orthogonalEdgeStyle;rounded=0;orthogonalLoop=1;jettySize=auto;html=1;" parent="1" source="tvNCmk0iYPsiMGSgwvTy-58" target="HPsjYcUWnoOo99uJpjyN-36" edge="1">
          <mxGeometry x="-0.6694" relative="1" as="geometry">
            <mxPoint x="540" y="185" as="targetPoint" />
            <mxPoint as="offset" />
          </mxGeometry>
        </mxCell>
        <mxCell id="HPsjYcUWnoOo99uJpjyN-11" value="Yes" style="edgeStyle=orthogonalEdgeStyle;rounded=0;orthogonalLoop=1;jettySize=auto;html=1;" parent="1" source="tvNCmk0iYPsiMGSgwvTy-58" target="HPsjYcUWnoOo99uJpjyN-10" edge="1">
          <mxGeometry relative="1" as="geometry" />
        </mxCell>
        <mxCell id="tvNCmk0iYPsiMGSgwvTy-58" value="Is card &lt;br&gt;registered on database?" style="strokeWidth=2;html=1;shape=mxgraph.flowchart.decision;whiteSpace=wrap;" parent="1" vertex="1">
          <mxGeometry x="320" y="345" width="120" height="85" as="geometry" />
        </mxCell>
        <mxCell id="tBge6L44hxKh2gQSTph2-14" style="edgeStyle=orthogonalEdgeStyle;rounded=0;orthogonalLoop=1;jettySize=auto;html=1;" parent="1" source="HPsjYcUWnoOo99uJpjyN-16" target="tvNCmk0iYPsiMGSgwvTy-58" edge="1">
          <mxGeometry relative="1" as="geometry">
            <mxPoint x="380" y="310" as="sourcePoint" />
          </mxGeometry>
        </mxCell>
        <mxCell id="HPsjYcUWnoOo99uJpjyN-18" style="edgeStyle=orthogonalEdgeStyle;rounded=0;orthogonalLoop=1;jettySize=auto;html=1;" parent="1" source="HPsjYcUWnoOo99uJpjyN-10" target="HPsjYcUWnoOo99uJpjyN-17" edge="1">
          <mxGeometry relative="1" as="geometry" />
        </mxCell>
        <mxCell id="HPsjYcUWnoOo99uJpjyN-10" value="Place card id to current_card_id" style="whiteSpace=wrap;html=1;strokeWidth=2;" parent="1" vertex="1">
          <mxGeometry x="320" y="500" width="120" height="60" as="geometry" />
        </mxCell>
        <mxCell id="HPsjYcUWnoOo99uJpjyN-16" value="User taps card" style="html=1;strokeWidth=2;shape=manualInput;whiteSpace=wrap;rounded=1;size=26;arcSize=11;" parent="1" vertex="1">
          <mxGeometry x="330" y="240" width="100" height="60" as="geometry" />
        </mxCell>
        <mxCell id="HPsjYcUWnoOo99uJpjyN-42" value="" style="edgeStyle=orthogonalEdgeStyle;rounded=0;orthogonalLoop=1;jettySize=auto;html=1;" parent="1" source="HPsjYcUWnoOo99uJpjyN-17" target="HPsjYcUWnoOo99uJpjyN-41" edge="1">
          <mxGeometry relative="1" as="geometry" />
        </mxCell>
        <mxCell id="HPsjYcUWnoOo99uJpjyN-17" value="How much to be deducted from the card" style="html=1;strokeWidth=2;shape=manualInput;whiteSpace=wrap;rounded=1;size=26;arcSize=11;" parent="1" vertex="1">
          <mxGeometry x="330" y="610" width="100" height="100" as="geometry" />
        </mxCell>
        <mxCell id="HPsjYcUWnoOo99uJpjyN-37" value="" style="edgeStyle=orthogonalEdgeStyle;rounded=0;orthogonalLoop=1;jettySize=auto;html=1;" parent="1" source="HPsjYcUWnoOo99uJpjyN-60" target="HPsjYcUWnoOo99uJpjyN-36" edge="1">
          <mxGeometry relative="1" as="geometry">
            <mxPoint x="220" y="566.25" as="sourcePoint" />
          </mxGeometry>
        </mxCell>
        <mxCell id="HPsjYcUWnoOo99uJpjyN-34" style="edgeStyle=orthogonalEdgeStyle;rounded=0;orthogonalLoop=1;jettySize=auto;html=1;" parent="1" source="HPsjYcUWnoOo99uJpjyN-31" target="HPsjYcUWnoOo99uJpjyN-16" edge="1">
          <mxGeometry relative="1" as="geometry" />
        </mxCell>
        <mxCell id="HPsjYcUWnoOo99uJpjyN-31" value="Idle/Wait" style="whiteSpace=wrap;html=1;dashed=0;" parent="1" vertex="1">
          <mxGeometry x="320" y="125" width="120" height="60" as="geometry" />
        </mxCell>
        <mxCell id="HPsjYcUWnoOo99uJpjyN-38" style="edgeStyle=orthogonalEdgeStyle;rounded=0;orthogonalLoop=1;jettySize=auto;html=1;" parent="1" source="HPsjYcUWnoOo99uJpjyN-36" target="HPsjYcUWnoOo99uJpjyN-31" edge="1">
          <mxGeometry relative="1" as="geometry">
            <Array as="points">
              <mxPoint x="220" y="155" />
            </Array>
          </mxGeometry>
        </mxCell>
        <mxCell id="HPsjYcUWnoOo99uJpjyN-36" value="clear current_card_id and amount" style="whiteSpace=wrap;html=1;" parent="1" vertex="1">
          <mxGeometry x="160" y="125" width="120" height="60" as="geometry" />
        </mxCell>
        <mxCell id="HPsjYcUWnoOo99uJpjyN-43" style="edgeStyle=orthogonalEdgeStyle;rounded=0;orthogonalLoop=1;jettySize=auto;html=1;" parent="1" source="HPsjYcUWnoOo99uJpjyN-41" target="HPsjYcUWnoOo99uJpjyN-17" edge="1">
          <mxGeometry relative="1" as="geometry">
            <Array as="points">
              <mxPoint x="530" y="810" />
              <mxPoint x="530" y="660" />
            </Array>
          </mxGeometry>
        </mxCell>
        <mxCell id="HPsjYcUWnoOo99uJpjyN-45" value="No" style="edgeLabel;html=1;align=center;verticalAlign=middle;resizable=0;points=[];" parent="HPsjYcUWnoOo99uJpjyN-43" vertex="1" connectable="0">
          <mxGeometry x="-0.684" y="3" relative="1" as="geometry">
            <mxPoint x="-11" y="3" as="offset" />
          </mxGeometry>
        </mxCell>
        <mxCell id="HPsjYcUWnoOo99uJpjyN-51" value="Yes" style="edgeStyle=orthogonalEdgeStyle;rounded=0;orthogonalLoop=1;jettySize=auto;html=1;" parent="1" source="HPsjYcUWnoOo99uJpjyN-41" target="HPsjYcUWnoOo99uJpjyN-52" edge="1">
          <mxGeometry relative="1" as="geometry">
            <mxPoint x="380" y="1000" as="targetPoint" />
          </mxGeometry>
        </mxCell>
        <mxCell id="HPsjYcUWnoOo99uJpjyN-41" value="Is the card balance enough for the transaction?" style="rhombus;whiteSpace=wrap;html=1;strokeWidth=2;rounded=1;arcSize=11;" parent="1" vertex="1">
          <mxGeometry x="325" y="760" width="110" height="100" as="geometry" />
        </mxCell>
        <mxCell id="HPsjYcUWnoOo99uJpjyN-54" style="edgeStyle=orthogonalEdgeStyle;rounded=0;orthogonalLoop=1;jettySize=auto;html=1;" parent="1" source="HPsjYcUWnoOo99uJpjyN-52" target="HPsjYcUWnoOo99uJpjyN-17" edge="1">
          <mxGeometry relative="1" as="geometry">
            <Array as="points">
              <mxPoint x="530" y="965" />
              <mxPoint x="530" y="660" />
            </Array>
          </mxGeometry>
        </mxCell>
        <mxCell id="HPsjYcUWnoOo99uJpjyN-55" value="Cancel" style="edgeLabel;html=1;align=center;verticalAlign=middle;resizable=0;points=[];" parent="HPsjYcUWnoOo99uJpjyN-54" vertex="1" connectable="0">
          <mxGeometry x="-0.7327" y="1" relative="1" as="geometry">
            <mxPoint x="-17" y="1" as="offset" />
          </mxGeometry>
        </mxCell>
        <mxCell id="HPsjYcUWnoOo99uJpjyN-57" value="Confirm" style="edgeStyle=orthogonalEdgeStyle;rounded=0;orthogonalLoop=1;jettySize=auto;html=1;" parent="1" source="HPsjYcUWnoOo99uJpjyN-52" target="HPsjYcUWnoOo99uJpjyN-56" edge="1">
          <mxGeometry relative="1" as="geometry" />
        </mxCell>
        <mxCell id="HPsjYcUWnoOo99uJpjyN-52" value="Prompt the operator for confirmation" style="html=1;strokeWidth=2;shape=manualInput;whiteSpace=wrap;rounded=1;size=26;arcSize=11;" parent="1" vertex="1">
          <mxGeometry x="330" y="920" width="100" height="90" as="geometry" />
        </mxCell>
        <mxCell id="HPsjYcUWnoOo99uJpjyN-59" style="edgeStyle=orthogonalEdgeStyle;rounded=0;orthogonalLoop=1;jettySize=auto;html=1;" parent="1" source="HPsjYcUWnoOo99uJpjyN-56" target="HPsjYcUWnoOo99uJpjyN-36" edge="1">
          <mxGeometry relative="1" as="geometry">
            <Array as="points">
              <mxPoint x="110" y="1135" />
              <mxPoint x="110" y="310" />
            </Array>
          </mxGeometry>
        </mxCell>
        <mxCell id="HPsjYcUWnoOo99uJpjyN-56" value="Transaction complete" style="whiteSpace=wrap;html=1;strokeWidth=2;rounded=1;arcSize=11;" parent="1" vertex="1">
          <mxGeometry x="320" y="1105" width="120" height="60" as="geometry" />
        </mxCell>
        <mxCell id="HPsjYcUWnoOo99uJpjyN-58" value="" style="strokeWidth=2;html=1;shape=mxgraph.flowchart.annotation_2;align=left;labelPosition=right;pointerEvents=1;" parent="1" vertex="1">
          <mxGeometry x="280" y="280" width="50" height="700" as="geometry" />
        </mxCell>
        <mxCell id="HPsjYcUWnoOo99uJpjyN-60" value="Did the operator press &quot;c&quot; to cancel the current transaction?" style="strokeWidth=2;html=1;shape=mxgraph.flowchart.decision;whiteSpace=wrap;" parent="1" vertex="1">
          <mxGeometry x="160" y="587.5" width="120" height="85" as="geometry" />
        </mxCell>
      </root>
    </mxGraphModel>
  </diagram>
  <diagram id="Xti1-zlDYNrMRii6McsF" name="Withdrawal Process">
    <mxGraphModel dx="1434" dy="806" grid="1" gridSize="10" guides="1" tooltips="1" connect="1" arrows="1" fold="1" page="1" pageScale="1" pageWidth="850" pageHeight="1100" math="0" shadow="0">
      <root>
        <mxCell id="0" />
        <mxCell id="1" parent="0" />
        <mxCell id="xi8BzFmr5joGR68Zfjis-1" value="" style="edgeStyle=orthogonalEdgeStyle;rounded=0;orthogonalLoop=1;jettySize=auto;html=1;" parent="1" source="xi8BzFmr5joGR68Zfjis-2" target="xi8BzFmr5joGR68Zfjis-14" edge="1">
          <mxGeometry relative="1" as="geometry" />
        </mxCell>
        <mxCell id="xi8BzFmr5joGR68Zfjis-2" value="Start" style="html=1;dashed=0;whitespace=wrap;shape=mxgraph.dfd.start" parent="1" vertex="1">
          <mxGeometry x="399.97" y="30" width="80" height="30" as="geometry" />
        </mxCell>
        <mxCell id="xi8BzFmr5joGR68Zfjis-3" value="No" style="edgeStyle=orthogonalEdgeStyle;rounded=0;orthogonalLoop=1;jettySize=auto;html=1;" parent="1" source="xi8BzFmr5joGR68Zfjis-5" target="xi8BzFmr5joGR68Zfjis-16" edge="1">
          <mxGeometry x="-0.6694" relative="1" as="geometry">
            <mxPoint x="599.97" y="185" as="targetPoint" />
            <mxPoint as="offset" />
          </mxGeometry>
        </mxCell>
        <mxCell id="xi8BzFmr5joGR68Zfjis-4" value="Yes" style="edgeStyle=orthogonalEdgeStyle;rounded=0;orthogonalLoop=1;jettySize=auto;html=1;" parent="1" source="xi8BzFmr5joGR68Zfjis-5" target="xi8BzFmr5joGR68Zfjis-8" edge="1">
          <mxGeometry relative="1" as="geometry" />
        </mxCell>
        <mxCell id="xi8BzFmr5joGR68Zfjis-5" value="Is card &lt;br&gt;registered on database?" style="strokeWidth=2;html=1;shape=mxgraph.flowchart.decision;whiteSpace=wrap;" parent="1" vertex="1">
          <mxGeometry x="379.97" y="345" width="120" height="85" as="geometry" />
        </mxCell>
        <mxCell id="xi8BzFmr5joGR68Zfjis-6" style="edgeStyle=orthogonalEdgeStyle;rounded=0;orthogonalLoop=1;jettySize=auto;html=1;" parent="1" source="xi8BzFmr5joGR68Zfjis-9" target="xi8BzFmr5joGR68Zfjis-5" edge="1">
          <mxGeometry relative="1" as="geometry">
            <mxPoint x="439.97" y="310" as="sourcePoint" />
          </mxGeometry>
        </mxCell>
        <mxCell id="xi8BzFmr5joGR68Zfjis-7" style="edgeStyle=orthogonalEdgeStyle;rounded=0;orthogonalLoop=1;jettySize=auto;html=1;" parent="1" source="xi8BzFmr5joGR68Zfjis-8" target="xi8BzFmr5joGR68Zfjis-11" edge="1">
          <mxGeometry relative="1" as="geometry" />
        </mxCell>
        <mxCell id="xi8BzFmr5joGR68Zfjis-8" value="Place card id to current_card_id" style="whiteSpace=wrap;html=1;strokeWidth=2;" parent="1" vertex="1">
          <mxGeometry x="379.97" y="500" width="120" height="60" as="geometry" />
        </mxCell>
        <mxCell id="xi8BzFmr5joGR68Zfjis-9" value="User taps card" style="html=1;strokeWidth=2;shape=manualInput;whiteSpace=wrap;rounded=1;size=26;arcSize=11;" parent="1" vertex="1">
          <mxGeometry x="389.97" y="240" width="100" height="60" as="geometry" />
        </mxCell>
        <mxCell id="xi8BzFmr5joGR68Zfjis-10" value="" style="edgeStyle=orthogonalEdgeStyle;rounded=0;orthogonalLoop=1;jettySize=auto;html=1;" parent="1" source="xi8BzFmr5joGR68Zfjis-11" target="xi8BzFmr5joGR68Zfjis-20" edge="1">
          <mxGeometry relative="1" as="geometry" />
        </mxCell>
        <mxCell id="xi8BzFmr5joGR68Zfjis-11" value="How much to be withdrawn from the ID" style="html=1;strokeWidth=2;shape=manualInput;whiteSpace=wrap;rounded=1;size=26;arcSize=11;" parent="1" vertex="1">
          <mxGeometry x="389.97" y="610" width="100" height="100" as="geometry" />
        </mxCell>
        <mxCell id="xi8BzFmr5joGR68Zfjis-12" value="" style="edgeStyle=orthogonalEdgeStyle;rounded=0;orthogonalLoop=1;jettySize=auto;html=1;" parent="1" source="xi8BzFmr5joGR68Zfjis-28" target="xi8BzFmr5joGR68Zfjis-16" edge="1">
          <mxGeometry relative="1" as="geometry">
            <mxPoint x="279.97" y="566.25" as="sourcePoint" />
          </mxGeometry>
        </mxCell>
        <mxCell id="xi8BzFmr5joGR68Zfjis-13" style="edgeStyle=orthogonalEdgeStyle;rounded=0;orthogonalLoop=1;jettySize=auto;html=1;" parent="1" source="xi8BzFmr5joGR68Zfjis-14" target="xi8BzFmr5joGR68Zfjis-9" edge="1">
          <mxGeometry relative="1" as="geometry" />
        </mxCell>
        <mxCell id="xi8BzFmr5joGR68Zfjis-14" value="Idle/Wait" style="whiteSpace=wrap;html=1;dashed=0;" parent="1" vertex="1">
          <mxGeometry x="379.97" y="125" width="120" height="60" as="geometry" />
        </mxCell>
        <mxCell id="xi8BzFmr5joGR68Zfjis-15" style="edgeStyle=orthogonalEdgeStyle;rounded=0;orthogonalLoop=1;jettySize=auto;html=1;" parent="1" source="xi8BzFmr5joGR68Zfjis-16" target="xi8BzFmr5joGR68Zfjis-14" edge="1">
          <mxGeometry relative="1" as="geometry">
            <Array as="points">
              <mxPoint x="279.97" y="155" />
            </Array>
          </mxGeometry>
        </mxCell>
        <mxCell id="xi8BzFmr5joGR68Zfjis-16" value="clear current_card_id and amount" style="whiteSpace=wrap;html=1;" parent="1" vertex="1">
          <mxGeometry x="219.97000000000003" y="125" width="120" height="60" as="geometry" />
        </mxCell>
        <mxCell id="xi8BzFmr5joGR68Zfjis-17" style="edgeStyle=orthogonalEdgeStyle;rounded=0;orthogonalLoop=1;jettySize=auto;html=1;" parent="1" source="xi8BzFmr5joGR68Zfjis-20" target="xi8BzFmr5joGR68Zfjis-11" edge="1">
          <mxGeometry relative="1" as="geometry">
            <Array as="points">
              <mxPoint x="589.97" y="810" />
              <mxPoint x="589.97" y="660" />
            </Array>
          </mxGeometry>
        </mxCell>
        <mxCell id="xi8BzFmr5joGR68Zfjis-18" value="No" style="edgeLabel;html=1;align=center;verticalAlign=middle;resizable=0;points=[];" parent="xi8BzFmr5joGR68Zfjis-17" vertex="1" connectable="0">
          <mxGeometry x="-0.684" y="3" relative="1" as="geometry">
            <mxPoint x="-11" y="3" as="offset" />
          </mxGeometry>
        </mxCell>
        <mxCell id="sJsiadtNi2j73xjOCjxx-3" style="edgeStyle=orthogonalEdgeStyle;rounded=0;orthogonalLoop=1;jettySize=auto;html=1;" parent="1" source="xi8BzFmr5joGR68Zfjis-20" target="sJsiadtNi2j73xjOCjxx-2" edge="1">
          <mxGeometry relative="1" as="geometry" />
        </mxCell>
        <mxCell id="xi8BzFmr5joGR68Zfjis-20" value="Is the card balance enough for the transaction?" style="rhombus;whiteSpace=wrap;html=1;strokeWidth=2;rounded=1;arcSize=11;" parent="1" vertex="1">
          <mxGeometry x="384.97" y="760" width="110" height="100" as="geometry" />
        </mxCell>
        <mxCell id="xi8BzFmr5joGR68Zfjis-21" value="Cancel" style="edgeStyle=orthogonalEdgeStyle;rounded=0;orthogonalLoop=1;jettySize=auto;html=1;" parent="1" source="xi8BzFmr5joGR68Zfjis-24" target="xi8BzFmr5joGR68Zfjis-11" edge="1">
          <mxGeometry x="-0.8903" relative="1" as="geometry">
            <Array as="points">
              <mxPoint x="590" y="1190" />
              <mxPoint x="590" y="660" />
            </Array>
            <mxPoint as="offset" />
          </mxGeometry>
        </mxCell>
        <mxCell id="xi8BzFmr5joGR68Zfjis-23" value="Confirm" style="edgeStyle=orthogonalEdgeStyle;rounded=0;orthogonalLoop=1;jettySize=auto;html=1;" parent="1" source="xi8BzFmr5joGR68Zfjis-24" target="xi8BzFmr5joGR68Zfjis-26" edge="1">
          <mxGeometry relative="1" as="geometry" />
        </mxCell>
        <mxCell id="xi8BzFmr5joGR68Zfjis-24" value="Prompt the operator for confirmation" style="html=1;strokeWidth=2;shape=manualInput;whiteSpace=wrap;rounded=1;size=26;arcSize=11;" parent="1" vertex="1">
          <mxGeometry x="389.97" y="1150" width="100" height="90" as="geometry" />
        </mxCell>
        <mxCell id="xi8BzFmr5joGR68Zfjis-25" style="edgeStyle=orthogonalEdgeStyle;rounded=0;orthogonalLoop=1;jettySize=auto;html=1;" parent="1" source="xi8BzFmr5joGR68Zfjis-26" target="xi8BzFmr5joGR68Zfjis-16" edge="1">
          <mxGeometry relative="1" as="geometry">
            <Array as="points">
              <mxPoint x="170" y="1355" />
              <mxPoint x="170" y="310" />
              <mxPoint x="280" y="310" />
            </Array>
          </mxGeometry>
        </mxCell>
        <mxCell id="xi8BzFmr5joGR68Zfjis-26" value="Transaction complete" style="whiteSpace=wrap;html=1;strokeWidth=2;rounded=1;arcSize=11;" parent="1" vertex="1">
          <mxGeometry x="379.97" y="1325" width="120" height="60" as="geometry" />
        </mxCell>
        <mxCell id="xi8BzFmr5joGR68Zfjis-27" value="" style="strokeWidth=2;html=1;shape=mxgraph.flowchart.annotation_2;align=left;labelPosition=right;pointerEvents=1;" parent="1" vertex="1">
          <mxGeometry x="339.97" y="280" width="50" height="910" as="geometry" />
        </mxCell>
        <mxCell id="xi8BzFmr5joGR68Zfjis-28" value="Did the operator press &quot;c&quot; to cancel the current transaction?" style="strokeWidth=2;html=1;shape=mxgraph.flowchart.decision;whiteSpace=wrap;" parent="1" vertex="1">
          <mxGeometry x="219.97000000000003" y="692.5" width="120" height="85" as="geometry" />
        </mxCell>
        <mxCell id="sJsiadtNi2j73xjOCjxx-5" value="" style="edgeStyle=orthogonalEdgeStyle;rounded=0;orthogonalLoop=1;jettySize=auto;html=1;" parent="1" source="sJsiadtNi2j73xjOCjxx-2" target="sJsiadtNi2j73xjOCjxx-4" edge="1">
          <mxGeometry relative="1" as="geometry" />
        </mxCell>
        <mxCell id="sJsiadtNi2j73xjOCjxx-2" value="User OTP" style="html=1;strokeWidth=2;shape=manualInput;whiteSpace=wrap;rounded=1;size=26;arcSize=11;" parent="1" vertex="1">
          <mxGeometry x="389.97" y="900" width="100" height="60" as="geometry" />
        </mxCell>
        <mxCell id="sJsiadtNi2j73xjOCjxx-6" value="Yes" style="edgeStyle=orthogonalEdgeStyle;rounded=0;orthogonalLoop=1;jettySize=auto;html=1;" parent="1" source="sJsiadtNi2j73xjOCjxx-4" target="xi8BzFmr5joGR68Zfjis-24" edge="1">
          <mxGeometry relative="1" as="geometry" />
        </mxCell>
        <mxCell id="sJsiadtNi2j73xjOCjxx-8" value="No" style="edgeStyle=orthogonalEdgeStyle;rounded=0;orthogonalLoop=1;jettySize=auto;html=1;" parent="1" source="sJsiadtNi2j73xjOCjxx-4" target="sJsiadtNi2j73xjOCjxx-2" edge="1">
          <mxGeometry x="-0.7598" relative="1" as="geometry">
            <Array as="points">
              <mxPoint x="540" y="1070" />
              <mxPoint x="540" y="930" />
            </Array>
            <mxPoint as="offset" />
          </mxGeometry>
        </mxCell>
        <mxCell id="sJsiadtNi2j73xjOCjxx-4" value="Is the OTP correct?" style="rhombus;whiteSpace=wrap;html=1;strokeWidth=2;rounded=1;arcSize=11;" parent="1" vertex="1">
          <mxGeometry x="399.97" y="1030" width="80" height="80" as="geometry" />
        </mxCell>
      </root>
    </mxGraphModel>
  </diagram>
  <diagram id="I6cGsr1gNoo0xEXNmhX9" name="Manage Users">
    <mxGraphModel dx="1434" dy="806" grid="1" gridSize="10" guides="1" tooltips="1" connect="1" arrows="1" fold="1" page="1" pageScale="1" pageWidth="850" pageHeight="1100" math="0" shadow="0">
      <root>
        <mxCell id="0" />
        <mxCell id="1" parent="0" />
        <mxCell id="jEoLfGGmKswzhUcdbHU7-2" style="rounded=0;orthogonalLoop=1;jettySize=auto;html=1;" parent="1" source="NWN5CDatz5z_fLja-Z7W-1" target="NWN5CDatz5z_fLja-Z7W-2" edge="1">
          <mxGeometry relative="1" as="geometry" />
        </mxCell>
        <mxCell id="jEoLfGGmKswzhUcdbHU7-3" style="rounded=0;orthogonalLoop=1;jettySize=auto;html=1;" parent="1" source="NWN5CDatz5z_fLja-Z7W-1" target="NWN5CDatz5z_fLja-Z7W-4" edge="1">
          <mxGeometry relative="1" as="geometry" />
        </mxCell>
        <mxCell id="jEoLfGGmKswzhUcdbHU7-4" style="rounded=0;orthogonalLoop=1;jettySize=auto;html=1;" parent="1" source="NWN5CDatz5z_fLja-Z7W-1" target="9X_sL4ZNBiDENpqz8LXh-1" edge="1">
          <mxGeometry relative="1" as="geometry" />
        </mxCell>
        <mxCell id="jEoLfGGmKswzhUcdbHU7-5" style="rounded=0;orthogonalLoop=1;jettySize=auto;html=1;" parent="1" source="NWN5CDatz5z_fLja-Z7W-1" target="jEoLfGGmKswzhUcdbHU7-1" edge="1">
          <mxGeometry relative="1" as="geometry" />
        </mxCell>
        <mxCell id="NWN5CDatz5z_fLja-Z7W-1" value="Start" style="html=1;dashed=0;whitespace=wrap;shape=mxgraph.dfd.start" parent="1" vertex="1">
          <mxGeometry x="399.97" y="30" width="80" height="30" as="geometry" />
        </mxCell>
        <mxCell id="jEoLfGGmKswzhUcdbHU7-7" value="" style="edgeStyle=orthogonalEdgeStyle;rounded=0;orthogonalLoop=1;jettySize=auto;html=1;" parent="1" source="NWN5CDatz5z_fLja-Z7W-2" target="jEoLfGGmKswzhUcdbHU7-6" edge="1">
          <mxGeometry relative="1" as="geometry" />
        </mxCell>
        <mxCell id="NWN5CDatz5z_fLja-Z7W-2" value="Create User" style="rhombus;whiteSpace=wrap;html=1;dashed=0;" parent="1" vertex="1">
          <mxGeometry x="230.00000000000006" y="250" width="80" height="80" as="geometry" />
        </mxCell>
        <mxCell id="NWN5CDatz5z_fLja-Z7W-4" value="Edit User" style="rhombus;whiteSpace=wrap;html=1;dashed=0;" parent="1" vertex="1">
          <mxGeometry x="340.0400000000001" y="250" width="80" height="80" as="geometry" />
        </mxCell>
        <mxCell id="9X_sL4ZNBiDENpqz8LXh-1" value="See User Transaction" style="rhombus;whiteSpace=wrap;html=1;dashed=0;" parent="1" vertex="1">
          <mxGeometry x="450.00000000000006" y="250" width="80" height="80" as="geometry" />
        </mxCell>
        <mxCell id="jEoLfGGmKswzhUcdbHU7-1" value="Delete User" style="rhombus;whiteSpace=wrap;html=1;dashed=0;" parent="1" vertex="1">
          <mxGeometry x="555.04" y="250" width="80" height="80" as="geometry" />
        </mxCell>
        <mxCell id="jEoLfGGmKswzhUcdbHU7-9" value="" style="edgeStyle=orthogonalEdgeStyle;rounded=0;orthogonalLoop=1;jettySize=auto;html=1;" parent="1" source="jEoLfGGmKswzhUcdbHU7-6" target="jEoLfGGmKswzhUcdbHU7-8" edge="1">
          <mxGeometry relative="1" as="geometry" />
        </mxCell>
        <mxCell id="jEoLfGGmKswzhUcdbHU7-6" value="Enter the user creation setup" style="whiteSpace=wrap;html=1;dashed=0;" parent="1" vertex="1">
          <mxGeometry x="210.00000000000006" y="370" width="120" height="60" as="geometry" />
        </mxCell>
        <mxCell id="qOpPHhUo8-w_Ze3C4rGd-2" style="edgeStyle=orthogonalEdgeStyle;rounded=0;orthogonalLoop=1;jettySize=auto;html=1;" parent="1" source="jEoLfGGmKswzhUcdbHU7-8" target="qOpPHhUo8-w_Ze3C4rGd-1" edge="1">
          <mxGeometry relative="1" as="geometry" />
        </mxCell>
        <mxCell id="jEoLfGGmKswzhUcdbHU7-8" value="input School ID" style="shape=parallelogram;perimeter=parallelogramPerimeter;whiteSpace=wrap;html=1;fixedSize=1;dashed=0;" parent="1" vertex="1">
          <mxGeometry x="210.00000000000006" y="480" width="120" height="60" as="geometry" />
        </mxCell>
        <mxCell id="JaHtYbqizV4aiPPBVofq-2" value="" style="edgeStyle=orthogonalEdgeStyle;rounded=0;orthogonalLoop=1;jettySize=auto;html=1;" parent="1" source="qOpPHhUo8-w_Ze3C4rGd-1" target="JaHtYbqizV4aiPPBVofq-1" edge="1">
          <mxGeometry relative="1" as="geometry" />
        </mxCell>
        <mxCell id="qOpPHhUo8-w_Ze3C4rGd-1" value="Input user type &lt;br&gt;from list" style="shape=parallelogram;perimeter=parallelogramPerimeter;whiteSpace=wrap;html=1;fixedSize=1;dashed=0;" parent="1" vertex="1">
          <mxGeometry x="210.00000000000006" y="590" width="120" height="60" as="geometry" />
        </mxCell>
        <mxCell id="ciSlGARJxTNmGQYzC_ej-2" value="" style="edgeStyle=orthogonalEdgeStyle;rounded=0;orthogonalLoop=1;jettySize=auto;html=1;" parent="1" source="JaHtYbqizV4aiPPBVofq-1" target="ciSlGARJxTNmGQYzC_ej-1" edge="1">
          <mxGeometry relative="1" as="geometry" />
        </mxCell>
        <mxCell id="JaHtYbqizV4aiPPBVofq-1" value="Tap ID to input &lt;br&gt;card ID" style="shape=parallelogram;perimeter=parallelogramPerimeter;whiteSpace=wrap;html=1;fixedSize=1;dashed=0;" parent="1" vertex="1">
          <mxGeometry x="210.00000000000006" y="700" width="120" height="60" as="geometry" />
        </mxCell>
        <mxCell id="ciSlGARJxTNmGQYzC_ej-3" style="edgeStyle=orthogonalEdgeStyle;rounded=0;orthogonalLoop=1;jettySize=auto;html=1;" parent="1" source="ciSlGARJxTNmGQYzC_ej-1" target="NWN5CDatz5z_fLja-Z7W-1" edge="1">
          <mxGeometry relative="1" as="geometry">
            <Array as="points">
              <mxPoint x="110" y="840" />
              <mxPoint x="110" y="45" />
            </Array>
          </mxGeometry>
        </mxCell>
        <mxCell id="ciSlGARJxTNmGQYzC_ej-1" value="Done" style="whiteSpace=wrap;html=1;dashed=0;" parent="1" vertex="1">
          <mxGeometry x="210.00000000000006" y="810" width="120" height="60" as="geometry" />
        </mxCell>
      </root>
    </mxGraphModel>
  </diagram>
  <diagram id="18aDKGUVEk9Y9dcjfA-Q" name="ERD">
    <mxGraphModel dx="1434" dy="806" grid="1" gridSize="10" guides="1" tooltips="1" connect="1" arrows="1" fold="1" page="1" pageScale="1" pageWidth="850" pageHeight="1100" math="0" shadow="0">
      <root>
        <mxCell id="0" />
        <mxCell id="1" parent="0" />
        <mxCell id="VCN8k_GHx95eaHmOvNGk-14" value="Users" style="shape=table;startSize=30;container=1;collapsible=1;childLayout=tableLayout;fixedRows=1;rowLines=0;fontStyle=1;align=center;resizeLast=1;rounded=1;glass=0;strokeWidth=1;fontSize=12;fillColor=none;html=0;" parent="1" vertex="1">
          <mxGeometry x="130" y="170" width="260" height="235" as="geometry" />
        </mxCell>
        <mxCell id="VCN8k_GHx95eaHmOvNGk-15" value="" style="shape=tableRow;horizontal=0;startSize=0;swimlaneHead=0;swimlaneBody=0;fillColor=none;collapsible=0;dropTarget=0;points=[[0,0.5],[1,0.5]];portConstraint=eastwest;top=0;left=0;right=0;bottom=1;rounded=1;glass=0;strokeWidth=1;fontSize=12;html=0;" parent="VCN8k_GHx95eaHmOvNGk-14" vertex="1">
          <mxGeometry y="30" width="260" height="30" as="geometry" />
        </mxCell>
        <mxCell id="VCN8k_GHx95eaHmOvNGk-16" value="PK" style="shape=partialRectangle;connectable=0;fillColor=none;top=0;left=0;bottom=0;right=0;fontStyle=1;overflow=hidden;rounded=1;glass=0;strokeWidth=1;fontSize=12;html=0;" parent="VCN8k_GHx95eaHmOvNGk-15" vertex="1">
          <mxGeometry width="30" height="30" as="geometry">
            <mxRectangle width="30" height="30" as="alternateBounds" />
          </mxGeometry>
        </mxCell>
        <mxCell id="VCN8k_GHx95eaHmOvNGk-17" value="_id" style="shape=partialRectangle;connectable=0;fillColor=none;top=0;left=0;bottom=0;right=0;align=left;spacingLeft=6;fontStyle=1;overflow=hidden;rounded=1;glass=0;strokeWidth=1;fontSize=12;html=0;" parent="VCN8k_GHx95eaHmOvNGk-15" vertex="1">
          <mxGeometry x="30" width="150" height="30" as="geometry">
            <mxRectangle width="150" height="30" as="alternateBounds" />
          </mxGeometry>
        </mxCell>
        <mxCell id="X0HkLz-o3hVDwWnHMCzL-9" value="Object ID*" style="shape=partialRectangle;connectable=0;fillColor=none;top=0;left=0;bottom=0;right=0;align=left;spacingLeft=6;fontStyle=1;overflow=hidden;rounded=1;glass=0;strokeWidth=1;fontSize=12;html=0;" parent="VCN8k_GHx95eaHmOvNGk-15" vertex="1">
          <mxGeometry x="180" width="80" height="30" as="geometry">
            <mxRectangle width="80" height="30" as="alternateBounds" />
          </mxGeometry>
        </mxCell>
        <mxCell id="X0HkLz-o3hVDwWnHMCzL-14" value="" style="shape=tableRow;horizontal=0;startSize=0;swimlaneHead=0;swimlaneBody=0;fillColor=none;collapsible=0;dropTarget=0;points=[[0,0.5],[1,0.5]];portConstraint=eastwest;top=0;left=0;right=0;bottom=0;fontSize=12;" parent="VCN8k_GHx95eaHmOvNGk-14" vertex="1">
          <mxGeometry y="60" width="260" height="25" as="geometry" />
        </mxCell>
        <mxCell id="X0HkLz-o3hVDwWnHMCzL-15" value="" style="shape=partialRectangle;connectable=0;fillColor=none;top=0;left=0;bottom=0;right=0;editable=1;overflow=hidden;fontSize=12;" parent="X0HkLz-o3hVDwWnHMCzL-14" vertex="1">
          <mxGeometry width="30" height="25" as="geometry">
            <mxRectangle width="30" height="25" as="alternateBounds" />
          </mxGeometry>
        </mxCell>
        <mxCell id="X0HkLz-o3hVDwWnHMCzL-16" value="card_id" style="shape=partialRectangle;connectable=0;fillColor=none;top=0;left=0;bottom=0;right=0;align=left;spacingLeft=6;overflow=hidden;fontSize=12;" parent="X0HkLz-o3hVDwWnHMCzL-14" vertex="1">
          <mxGeometry x="30" width="150" height="25" as="geometry">
            <mxRectangle width="150" height="25" as="alternateBounds" />
          </mxGeometry>
        </mxCell>
        <mxCell id="X0HkLz-o3hVDwWnHMCzL-17" value="String*" style="shape=partialRectangle;connectable=0;fillColor=none;top=0;left=0;bottom=0;right=0;align=left;spacingLeft=6;overflow=hidden;fontSize=12;" parent="X0HkLz-o3hVDwWnHMCzL-14" vertex="1">
          <mxGeometry x="180" width="80" height="25" as="geometry">
            <mxRectangle width="80" height="25" as="alternateBounds" />
          </mxGeometry>
        </mxCell>
        <mxCell id="VCN8k_GHx95eaHmOvNGk-18" value="" style="shape=tableRow;horizontal=0;startSize=0;swimlaneHead=0;swimlaneBody=0;fillColor=none;collapsible=0;dropTarget=0;points=[[0,0.5],[1,0.5]];portConstraint=eastwest;top=0;left=0;right=0;bottom=0;rounded=1;glass=0;strokeWidth=1;fontSize=12;html=0;" parent="VCN8k_GHx95eaHmOvNGk-14" vertex="1">
          <mxGeometry y="85" width="260" height="30" as="geometry" />
        </mxCell>
        <mxCell id="VCN8k_GHx95eaHmOvNGk-19" value="" style="shape=partialRectangle;connectable=0;fillColor=none;top=0;left=0;bottom=0;right=0;editable=1;overflow=hidden;rounded=1;glass=0;strokeWidth=1;fontSize=12;html=0;" parent="VCN8k_GHx95eaHmOvNGk-18" vertex="1">
          <mxGeometry width="30" height="30" as="geometry">
            <mxRectangle width="30" height="30" as="alternateBounds" />
          </mxGeometry>
        </mxCell>
        <mxCell id="VCN8k_GHx95eaHmOvNGk-20" value="school_id" style="shape=partialRectangle;connectable=0;fillColor=none;top=0;left=0;bottom=0;right=0;align=left;spacingLeft=6;overflow=hidden;rounded=1;glass=0;strokeWidth=1;fontSize=12;html=0;" parent="VCN8k_GHx95eaHmOvNGk-18" vertex="1">
          <mxGeometry x="30" width="150" height="30" as="geometry">
            <mxRectangle width="150" height="30" as="alternateBounds" />
          </mxGeometry>
        </mxCell>
        <mxCell id="X0HkLz-o3hVDwWnHMCzL-10" value="String" style="shape=partialRectangle;connectable=0;fillColor=none;top=0;left=0;bottom=0;right=0;align=left;spacingLeft=6;overflow=hidden;rounded=1;glass=0;strokeWidth=1;fontSize=12;html=0;" parent="VCN8k_GHx95eaHmOvNGk-18" vertex="1">
          <mxGeometry x="180" width="80" height="30" as="geometry">
            <mxRectangle width="80" height="30" as="alternateBounds" />
          </mxGeometry>
        </mxCell>
        <mxCell id="VCN8k_GHx95eaHmOvNGk-21" value="" style="shape=tableRow;horizontal=0;startSize=0;swimlaneHead=0;swimlaneBody=0;fillColor=none;collapsible=0;dropTarget=0;points=[[0,0.5],[1,0.5]];portConstraint=eastwest;top=0;left=0;right=0;bottom=0;rounded=1;glass=0;strokeWidth=1;fontSize=12;html=0;" parent="VCN8k_GHx95eaHmOvNGk-14" vertex="1">
          <mxGeometry y="115" width="260" height="30" as="geometry" />
        </mxCell>
        <mxCell id="VCN8k_GHx95eaHmOvNGk-22" value="" style="shape=partialRectangle;connectable=0;fillColor=none;top=0;left=0;bottom=0;right=0;editable=1;overflow=hidden;rounded=1;glass=0;strokeWidth=1;fontSize=12;html=0;" parent="VCN8k_GHx95eaHmOvNGk-21" vertex="1">
          <mxGeometry width="30" height="30" as="geometry">
            <mxRectangle width="30" height="30" as="alternateBounds" />
          </mxGeometry>
        </mxCell>
        <mxCell id="VCN8k_GHx95eaHmOvNGk-23" value="password" style="shape=partialRectangle;connectable=0;fillColor=none;top=0;left=0;bottom=0;right=0;align=left;spacingLeft=6;overflow=hidden;rounded=1;glass=0;strokeWidth=1;fontSize=12;html=0;" parent="VCN8k_GHx95eaHmOvNGk-21" vertex="1">
          <mxGeometry x="30" width="150" height="30" as="geometry">
            <mxRectangle width="150" height="30" as="alternateBounds" />
          </mxGeometry>
        </mxCell>
        <mxCell id="X0HkLz-o3hVDwWnHMCzL-11" value="String*" style="shape=partialRectangle;connectable=0;fillColor=none;top=0;left=0;bottom=0;right=0;align=left;spacingLeft=6;overflow=hidden;rounded=1;glass=0;strokeWidth=1;fontSize=12;html=0;" parent="VCN8k_GHx95eaHmOvNGk-21" vertex="1">
          <mxGeometry x="180" width="80" height="30" as="geometry">
            <mxRectangle width="80" height="30" as="alternateBounds" />
          </mxGeometry>
        </mxCell>
        <mxCell id="VCN8k_GHx95eaHmOvNGk-24" value="" style="shape=tableRow;horizontal=0;startSize=0;swimlaneHead=0;swimlaneBody=0;fillColor=none;collapsible=0;dropTarget=0;points=[[0,0.5],[1,0.5]];portConstraint=eastwest;top=0;left=0;right=0;bottom=0;rounded=1;glass=0;strokeWidth=1;fontSize=12;html=0;" parent="VCN8k_GHx95eaHmOvNGk-14" vertex="1">
          <mxGeometry y="145" width="260" height="30" as="geometry" />
        </mxCell>
        <mxCell id="VCN8k_GHx95eaHmOvNGk-25" value="" style="shape=partialRectangle;connectable=0;fillColor=none;top=0;left=0;bottom=0;right=0;editable=1;overflow=hidden;rounded=1;glass=0;strokeWidth=1;fontSize=12;html=0;" parent="VCN8k_GHx95eaHmOvNGk-24" vertex="1">
          <mxGeometry width="30" height="30" as="geometry">
            <mxRectangle width="30" height="30" as="alternateBounds" />
          </mxGeometry>
        </mxCell>
        <mxCell id="VCN8k_GHx95eaHmOvNGk-26" value="otp_key" style="shape=partialRectangle;connectable=0;fillColor=none;top=0;left=0;bottom=0;right=0;align=left;spacingLeft=6;overflow=hidden;rounded=1;glass=0;strokeWidth=1;fontSize=12;html=0;" parent="VCN8k_GHx95eaHmOvNGk-24" vertex="1">
          <mxGeometry x="30" width="150" height="30" as="geometry">
            <mxRectangle width="150" height="30" as="alternateBounds" />
          </mxGeometry>
        </mxCell>
        <mxCell id="X0HkLz-o3hVDwWnHMCzL-12" value="String*" style="shape=partialRectangle;connectable=0;fillColor=none;top=0;left=0;bottom=0;right=0;align=left;spacingLeft=6;overflow=hidden;rounded=1;glass=0;strokeWidth=1;fontSize=12;html=0;" parent="VCN8k_GHx95eaHmOvNGk-24" vertex="1">
          <mxGeometry x="180" width="80" height="30" as="geometry">
            <mxRectangle width="80" height="30" as="alternateBounds" />
          </mxGeometry>
        </mxCell>
        <mxCell id="VCN8k_GHx95eaHmOvNGk-44" value="" style="shape=tableRow;horizontal=0;startSize=0;swimlaneHead=0;swimlaneBody=0;fillColor=none;collapsible=0;dropTarget=0;points=[[0,0.5],[1,0.5]];portConstraint=eastwest;top=0;left=0;right=0;bottom=0;rounded=1;glass=0;strokeWidth=1;fontSize=12;html=0;" parent="VCN8k_GHx95eaHmOvNGk-14" vertex="1">
          <mxGeometry y="175" width="260" height="30" as="geometry" />
        </mxCell>
        <mxCell id="VCN8k_GHx95eaHmOvNGk-45" value="" style="shape=partialRectangle;connectable=0;fillColor=none;top=0;left=0;bottom=0;right=0;editable=1;overflow=hidden;rounded=1;glass=0;strokeWidth=1;fontSize=12;html=0;" parent="VCN8k_GHx95eaHmOvNGk-44" vertex="1">
          <mxGeometry width="30" height="30" as="geometry">
            <mxRectangle width="30" height="30" as="alternateBounds" />
          </mxGeometry>
        </mxCell>
        <mxCell id="VCN8k_GHx95eaHmOvNGk-46" value="user_type" style="shape=partialRectangle;connectable=0;fillColor=none;top=0;left=0;bottom=0;right=0;align=left;spacingLeft=6;overflow=hidden;rounded=1;glass=0;strokeWidth=1;fontSize=12;html=0;" parent="VCN8k_GHx95eaHmOvNGk-44" vertex="1">
          <mxGeometry x="30" width="150" height="30" as="geometry">
            <mxRectangle width="150" height="30" as="alternateBounds" />
          </mxGeometry>
        </mxCell>
        <mxCell id="X0HkLz-o3hVDwWnHMCzL-13" value="String*" style="shape=partialRectangle;connectable=0;fillColor=none;top=0;left=0;bottom=0;right=0;align=left;spacingLeft=6;overflow=hidden;rounded=1;glass=0;strokeWidth=1;fontSize=12;html=0;" parent="VCN8k_GHx95eaHmOvNGk-44" vertex="1">
          <mxGeometry x="180" width="80" height="30" as="geometry">
            <mxRectangle width="80" height="30" as="alternateBounds" />
          </mxGeometry>
        </mxCell>
        <mxCell id="ocvSDEL410qIrgSHZJ-d-1" value="" style="shape=tableRow;horizontal=0;startSize=0;swimlaneHead=0;swimlaneBody=0;fillColor=none;collapsible=0;dropTarget=0;points=[[0,0.5],[1,0.5]];portConstraint=eastwest;top=0;left=0;right=0;bottom=0;" parent="VCN8k_GHx95eaHmOvNGk-14" vertex="1">
          <mxGeometry y="205" width="260" height="30" as="geometry" />
        </mxCell>
        <mxCell id="ocvSDEL410qIrgSHZJ-d-2" value="" style="shape=partialRectangle;connectable=0;fillColor=none;top=0;left=0;bottom=0;right=0;editable=1;overflow=hidden;" parent="ocvSDEL410qIrgSHZJ-d-1" vertex="1">
          <mxGeometry width="30" height="30" as="geometry">
            <mxRectangle width="30" height="30" as="alternateBounds" />
          </mxGeometry>
        </mxCell>
        <mxCell id="ocvSDEL410qIrgSHZJ-d-3" value="balance" style="shape=partialRectangle;connectable=0;fillColor=none;top=0;left=0;bottom=0;right=0;align=left;spacingLeft=6;overflow=hidden;" parent="ocvSDEL410qIrgSHZJ-d-1" vertex="1">
          <mxGeometry x="30" width="150" height="30" as="geometry">
            <mxRectangle width="150" height="30" as="alternateBounds" />
          </mxGeometry>
        </mxCell>
        <mxCell id="ocvSDEL410qIrgSHZJ-d-4" value="Integer*" style="shape=partialRectangle;connectable=0;fillColor=none;top=0;left=0;bottom=0;right=0;align=left;spacingLeft=6;overflow=hidden;" parent="ocvSDEL410qIrgSHZJ-d-1" vertex="1">
          <mxGeometry x="180" width="80" height="30" as="geometry">
            <mxRectangle width="80" height="30" as="alternateBounds" />
          </mxGeometry>
        </mxCell>
        <mxCell id="VCN8k_GHx95eaHmOvNGk-47" value="Transactions" style="shape=table;startSize=30;container=1;collapsible=1;childLayout=tableLayout;fixedRows=1;rowLines=0;fontStyle=1;align=center;resizeLast=1;rounded=1;glass=0;strokeWidth=1;fontSize=12;fillColor=none;html=0;" parent="1" vertex="1">
          <mxGeometry x="460" y="170" width="260" height="210" as="geometry" />
        </mxCell>
        <mxCell id="VCN8k_GHx95eaHmOvNGk-48" value="" style="shape=tableRow;horizontal=0;startSize=0;swimlaneHead=0;swimlaneBody=0;fillColor=none;collapsible=0;dropTarget=0;points=[[0,0.5],[1,0.5]];portConstraint=eastwest;top=0;left=0;right=0;bottom=1;rounded=1;glass=0;strokeWidth=1;fontSize=12;html=0;" parent="VCN8k_GHx95eaHmOvNGk-47" vertex="1">
          <mxGeometry y="30" width="260" height="30" as="geometry" />
        </mxCell>
        <mxCell id="VCN8k_GHx95eaHmOvNGk-49" value="PK" style="shape=partialRectangle;connectable=0;fillColor=none;top=0;left=0;bottom=0;right=0;fontStyle=1;overflow=hidden;rounded=1;glass=0;strokeWidth=1;fontSize=12;html=0;" parent="VCN8k_GHx95eaHmOvNGk-48" vertex="1">
          <mxGeometry width="30" height="30" as="geometry">
            <mxRectangle width="30" height="30" as="alternateBounds" />
          </mxGeometry>
        </mxCell>
        <mxCell id="VCN8k_GHx95eaHmOvNGk-50" value="_id" style="shape=partialRectangle;connectable=0;fillColor=none;top=0;left=0;bottom=0;right=0;align=left;spacingLeft=6;fontStyle=1;overflow=hidden;rounded=1;glass=0;strokeWidth=1;fontSize=12;html=0;" parent="VCN8k_GHx95eaHmOvNGk-48" vertex="1">
          <mxGeometry x="30" width="150" height="30" as="geometry">
            <mxRectangle width="150" height="30" as="alternateBounds" />
          </mxGeometry>
        </mxCell>
        <mxCell id="X0HkLz-o3hVDwWnHMCzL-3" value="Object ID*" style="shape=partialRectangle;connectable=0;fillColor=none;top=0;left=0;bottom=0;right=0;align=left;spacingLeft=6;fontStyle=1;overflow=hidden;rounded=1;glass=0;strokeWidth=1;fontSize=12;html=0;" parent="VCN8k_GHx95eaHmOvNGk-48" vertex="1">
          <mxGeometry x="180" width="80" height="30" as="geometry">
            <mxRectangle width="80" height="30" as="alternateBounds" />
          </mxGeometry>
        </mxCell>
        <mxCell id="VCN8k_GHx95eaHmOvNGk-81" value="" style="shape=tableRow;horizontal=0;startSize=0;swimlaneHead=0;swimlaneBody=0;fillColor=none;collapsible=0;dropTarget=0;points=[[0,0.5],[1,0.5]];portConstraint=eastwest;top=0;left=0;right=0;bottom=0;rounded=1;glass=0;strokeWidth=1;fontSize=12;html=0;" parent="VCN8k_GHx95eaHmOvNGk-47" vertex="1">
          <mxGeometry y="60" width="260" height="30" as="geometry" />
        </mxCell>
        <mxCell id="VCN8k_GHx95eaHmOvNGk-82" value="" style="shape=partialRectangle;connectable=0;fillColor=none;top=0;left=0;bottom=0;right=0;editable=1;overflow=hidden;rounded=1;glass=0;strokeWidth=1;fontSize=12;html=0;" parent="VCN8k_GHx95eaHmOvNGk-81" vertex="1">
          <mxGeometry width="30" height="30" as="geometry">
            <mxRectangle width="30" height="30" as="alternateBounds" />
          </mxGeometry>
        </mxCell>
        <mxCell id="VCN8k_GHx95eaHmOvNGk-83" value="timestamp" style="shape=partialRectangle;connectable=0;fillColor=none;top=0;left=0;bottom=0;right=0;align=left;spacingLeft=6;overflow=hidden;rounded=1;glass=0;strokeWidth=1;fontSize=12;html=0;" parent="VCN8k_GHx95eaHmOvNGk-81" vertex="1">
          <mxGeometry x="30" width="150" height="30" as="geometry">
            <mxRectangle width="150" height="30" as="alternateBounds" />
          </mxGeometry>
        </mxCell>
        <mxCell id="X0HkLz-o3hVDwWnHMCzL-4" value="Timestamp*" style="shape=partialRectangle;connectable=0;fillColor=none;top=0;left=0;bottom=0;right=0;align=left;spacingLeft=6;overflow=hidden;rounded=1;glass=0;strokeWidth=1;fontSize=12;html=0;" parent="VCN8k_GHx95eaHmOvNGk-81" vertex="1">
          <mxGeometry x="180" width="80" height="30" as="geometry">
            <mxRectangle width="80" height="30" as="alternateBounds" />
          </mxGeometry>
        </mxCell>
        <mxCell id="VCN8k_GHx95eaHmOvNGk-70" value="" style="shape=tableRow;horizontal=0;startSize=0;swimlaneHead=0;swimlaneBody=0;fillColor=none;collapsible=0;dropTarget=0;points=[[0,0.5],[1,0.5]];portConstraint=eastwest;top=0;left=0;right=0;bottom=0;rounded=1;glass=0;strokeWidth=1;fontSize=12;html=0;" parent="VCN8k_GHx95eaHmOvNGk-47" vertex="1">
          <mxGeometry y="90" width="260" height="30" as="geometry" />
        </mxCell>
        <mxCell id="VCN8k_GHx95eaHmOvNGk-71" value="FK" style="shape=partialRectangle;connectable=0;fillColor=none;top=0;left=0;bottom=0;right=0;fontStyle=0;overflow=hidden;rounded=1;glass=0;strokeWidth=1;fontSize=12;html=0;" parent="VCN8k_GHx95eaHmOvNGk-70" vertex="1">
          <mxGeometry width="30" height="30" as="geometry">
            <mxRectangle width="30" height="30" as="alternateBounds" />
          </mxGeometry>
        </mxCell>
        <mxCell id="VCN8k_GHx95eaHmOvNGk-72" value="source_id" style="shape=partialRectangle;connectable=0;fillColor=none;top=0;left=0;bottom=0;right=0;align=left;spacingLeft=6;fontStyle=0;overflow=hidden;rounded=1;glass=0;strokeWidth=1;fontSize=12;html=0;" parent="VCN8k_GHx95eaHmOvNGk-70" vertex="1">
          <mxGeometry x="30" width="150" height="30" as="geometry">
            <mxRectangle width="150" height="30" as="alternateBounds" />
          </mxGeometry>
        </mxCell>
        <mxCell id="X0HkLz-o3hVDwWnHMCzL-5" value="Object ID*" style="shape=partialRectangle;connectable=0;fillColor=none;top=0;left=0;bottom=0;right=0;align=left;spacingLeft=6;fontStyle=0;overflow=hidden;rounded=1;glass=0;strokeWidth=1;fontSize=12;html=0;" parent="VCN8k_GHx95eaHmOvNGk-70" vertex="1">
          <mxGeometry x="180" width="80" height="30" as="geometry">
            <mxRectangle width="80" height="30" as="alternateBounds" />
          </mxGeometry>
        </mxCell>
        <mxCell id="VCN8k_GHx95eaHmOvNGk-76" value="" style="shape=tableRow;horizontal=0;startSize=0;swimlaneHead=0;swimlaneBody=0;fillColor=none;collapsible=0;dropTarget=0;points=[[0,0.5],[1,0.5]];portConstraint=eastwest;top=0;left=0;right=0;bottom=0;rounded=1;glass=0;strokeWidth=1;fontSize=12;html=0;" parent="VCN8k_GHx95eaHmOvNGk-47" vertex="1">
          <mxGeometry y="120" width="260" height="30" as="geometry" />
        </mxCell>
        <mxCell id="VCN8k_GHx95eaHmOvNGk-77" value="FK" style="shape=partialRectangle;connectable=0;fillColor=none;top=0;left=0;bottom=0;right=0;fontStyle=0;overflow=hidden;rounded=1;glass=0;strokeWidth=1;fontSize=12;html=0;" parent="VCN8k_GHx95eaHmOvNGk-76" vertex="1">
          <mxGeometry width="30" height="30" as="geometry">
            <mxRectangle width="30" height="30" as="alternateBounds" />
          </mxGeometry>
        </mxCell>
        <mxCell id="VCN8k_GHx95eaHmOvNGk-78" value="destination_id" style="shape=partialRectangle;connectable=0;fillColor=none;top=0;left=0;bottom=0;right=0;align=left;spacingLeft=6;fontStyle=0;overflow=hidden;rounded=1;glass=0;strokeWidth=1;fontSize=12;html=0;" parent="VCN8k_GHx95eaHmOvNGk-76" vertex="1">
          <mxGeometry x="30" width="150" height="30" as="geometry">
            <mxRectangle width="150" height="30" as="alternateBounds" />
          </mxGeometry>
        </mxCell>
        <mxCell id="X0HkLz-o3hVDwWnHMCzL-6" value="Object ID*" style="shape=partialRectangle;connectable=0;fillColor=none;top=0;left=0;bottom=0;right=0;align=left;spacingLeft=6;fontStyle=0;overflow=hidden;rounded=1;glass=0;strokeWidth=1;fontSize=12;html=0;" parent="VCN8k_GHx95eaHmOvNGk-76" vertex="1">
          <mxGeometry x="180" width="80" height="30" as="geometry">
            <mxRectangle width="80" height="30" as="alternateBounds" />
          </mxGeometry>
        </mxCell>
        <mxCell id="VCN8k_GHx95eaHmOvNGk-51" value="" style="shape=tableRow;horizontal=0;startSize=0;swimlaneHead=0;swimlaneBody=0;fillColor=none;collapsible=0;dropTarget=0;points=[[0,0.5],[1,0.5]];portConstraint=eastwest;top=0;left=0;right=0;bottom=0;rounded=1;glass=0;strokeWidth=1;fontSize=12;html=0;" parent="VCN8k_GHx95eaHmOvNGk-47" vertex="1">
          <mxGeometry y="150" width="260" height="30" as="geometry" />
        </mxCell>
        <mxCell id="VCN8k_GHx95eaHmOvNGk-52" value="" style="shape=partialRectangle;connectable=0;fillColor=none;top=0;left=0;bottom=0;right=0;editable=1;overflow=hidden;rounded=1;glass=0;strokeWidth=1;fontSize=12;html=0;" parent="VCN8k_GHx95eaHmOvNGk-51" vertex="1">
          <mxGeometry width="30" height="30" as="geometry">
            <mxRectangle width="30" height="30" as="alternateBounds" />
          </mxGeometry>
        </mxCell>
        <mxCell id="VCN8k_GHx95eaHmOvNGk-53" value="amount" style="shape=partialRectangle;connectable=0;fillColor=none;top=0;left=0;bottom=0;right=0;align=left;spacingLeft=6;overflow=hidden;rounded=1;glass=0;strokeWidth=1;fontSize=12;html=0;" parent="VCN8k_GHx95eaHmOvNGk-51" vertex="1">
          <mxGeometry x="30" width="150" height="30" as="geometry">
            <mxRectangle width="150" height="30" as="alternateBounds" />
          </mxGeometry>
        </mxCell>
        <mxCell id="X0HkLz-o3hVDwWnHMCzL-7" value="Integer*" style="shape=partialRectangle;connectable=0;fillColor=none;top=0;left=0;bottom=0;right=0;align=left;spacingLeft=6;overflow=hidden;rounded=1;glass=0;strokeWidth=1;fontSize=12;html=0;" parent="VCN8k_GHx95eaHmOvNGk-51" vertex="1">
          <mxGeometry x="180" width="80" height="30" as="geometry">
            <mxRectangle width="80" height="30" as="alternateBounds" />
          </mxGeometry>
        </mxCell>
        <mxCell id="cRjdZ31f2sJXPVIFpnAN-1" value="" style="shape=tableRow;horizontal=0;startSize=0;swimlaneHead=0;swimlaneBody=0;fillColor=none;collapsible=0;dropTarget=0;points=[[0,0.5],[1,0.5]];portConstraint=eastwest;top=0;left=0;right=0;bottom=0;fontSize=12;" parent="VCN8k_GHx95eaHmOvNGk-47" vertex="1">
          <mxGeometry y="180" width="260" height="30" as="geometry" />
        </mxCell>
        <mxCell id="cRjdZ31f2sJXPVIFpnAN-2" value="" style="shape=partialRectangle;connectable=0;fillColor=none;top=0;left=0;bottom=0;right=0;editable=1;overflow=hidden;fontSize=18;" parent="cRjdZ31f2sJXPVIFpnAN-1" vertex="1">
          <mxGeometry width="30" height="30" as="geometry">
            <mxRectangle width="30" height="30" as="alternateBounds" />
          </mxGeometry>
        </mxCell>
        <mxCell id="cRjdZ31f2sJXPVIFpnAN-3" value="description" style="shape=partialRectangle;connectable=0;fillColor=none;top=0;left=0;bottom=0;right=0;align=left;spacingLeft=6;overflow=hidden;fontSize=12;" parent="cRjdZ31f2sJXPVIFpnAN-1" vertex="1">
          <mxGeometry x="30" width="150" height="30" as="geometry">
            <mxRectangle width="150" height="30" as="alternateBounds" />
          </mxGeometry>
        </mxCell>
        <mxCell id="X0HkLz-o3hVDwWnHMCzL-8" value="String*" style="shape=partialRectangle;connectable=0;fillColor=none;top=0;left=0;bottom=0;right=0;align=left;spacingLeft=6;overflow=hidden;fontSize=12;" parent="cRjdZ31f2sJXPVIFpnAN-1" vertex="1">
          <mxGeometry x="180" width="80" height="30" as="geometry">
            <mxRectangle width="80" height="30" as="alternateBounds" />
          </mxGeometry>
        </mxCell>
        <mxCell id="VCN8k_GHx95eaHmOvNGk-79" style="edgeStyle=orthogonalEdgeStyle;rounded=0;orthogonalLoop=1;jettySize=auto;html=1;fontSize=12;" parent="1" source="VCN8k_GHx95eaHmOvNGk-15" target="VCN8k_GHx95eaHmOvNGk-70" edge="1">
          <mxGeometry relative="1" as="geometry" />
        </mxCell>
        <mxCell id="VCN8k_GHx95eaHmOvNGk-80" style="edgeStyle=orthogonalEdgeStyle;rounded=0;orthogonalLoop=1;jettySize=auto;html=1;fontSize=12;" parent="1" source="VCN8k_GHx95eaHmOvNGk-15" target="VCN8k_GHx95eaHmOvNGk-76" edge="1">
          <mxGeometry relative="1" as="geometry" />
        </mxCell>
      </root>
    </mxGraphModel>
  </diagram>
  <diagram name="DFD - Level 0" id="_HK_4TX3BMZzlz4SVefh">
    <mxGraphModel dx="1194" dy="741" grid="1" gridSize="10" guides="1" tooltips="1" connect="1" arrows="1" fold="1" page="1" pageScale="1" pageWidth="850" pageHeight="1100" math="0" shadow="0">
      <root>
        <mxCell id="4OwmQkjYZSIDvFha9RvG-0" />
        <mxCell id="4OwmQkjYZSIDvFha9RvG-1" parent="4OwmQkjYZSIDvFha9RvG-0" />
        <mxCell id="wzXUbmEC5wIRB3Tpk9QF-7" value="RFID data" style="edgeStyle=orthogonalEdgeStyle;rounded=0;orthogonalLoop=1;jettySize=auto;html=1;exitX=1;exitY=0.25;exitDx=0;exitDy=0;entryX=-0.017;entryY=0.14;entryDx=0;entryDy=0;entryPerimeter=0;" parent="4OwmQkjYZSIDvFha9RvG-1" source="PPU3vdURBRXw1AhUHToz-2" target="wh8KM1keOvku06Pd7sTG-0" edge="1">
          <mxGeometry relative="1" as="geometry">
            <mxPoint x="350" y="210" as="targetPoint" />
          </mxGeometry>
        </mxCell>
        <mxCell id="PPU3vdURBRXw1AhUHToz-2" value="User" style="rounded=0;whiteSpace=wrap;html=1;" parent="4OwmQkjYZSIDvFha9RvG-1" vertex="1">
          <mxGeometry x="130" y="195" width="120" height="60" as="geometry" />
        </mxCell>
        <mxCell id="wzXUbmEC5wIRB3Tpk9QF-13" value="Confirm Transaction" style="edgeStyle=orthogonalEdgeStyle;rounded=0;orthogonalLoop=1;jettySize=auto;html=1;exitX=0.75;exitY=1;exitDx=0;exitDy=0;entryX=0.75;entryY=0;entryDx=0;entryDy=0;" parent="4OwmQkjYZSIDvFha9RvG-1" source="buS8Y3DBsFJnHCcWpqCA-2" target="wh8KM1keOvku06Pd7sTG-0" edge="1">
          <mxGeometry x="0.4737" relative="1" as="geometry">
            <mxPoint x="440" y="195" as="targetPoint" />
            <mxPoint as="offset" />
          </mxGeometry>
        </mxCell>
        <mxCell id="buS8Y3DBsFJnHCcWpqCA-2" value="Business" style="whiteSpace=wrap;html=1;" parent="4OwmQkjYZSIDvFha9RvG-1" vertex="1">
          <mxGeometry x="350" y="60" width="120" height="60" as="geometry" />
        </mxCell>
        <mxCell id="wzXUbmEC5wIRB3Tpk9QF-17" value="Confirm Transaction" style="edgeStyle=orthogonalEdgeStyle;rounded=0;orthogonalLoop=1;jettySize=auto;html=1;exitX=0.75;exitY=0;exitDx=0;exitDy=0;entryX=0.75;entryY=1;entryDx=0;entryDy=0;" parent="4OwmQkjYZSIDvFha9RvG-1" source="DpygujAYQQ-Z7JP0J5F0-0" target="wh8KM1keOvku06Pd7sTG-1" edge="1">
          <mxGeometry x="0.3333" relative="1" as="geometry">
            <mxPoint x="440" y="255" as="targetPoint" />
            <mxPoint as="offset" />
          </mxGeometry>
        </mxCell>
        <mxCell id="DpygujAYQQ-Z7JP0J5F0-0" value="Teller" style="whiteSpace=wrap;html=1;" parent="4OwmQkjYZSIDvFha9RvG-1" vertex="1">
          <mxGeometry x="350" y="350" width="120" height="60" as="geometry" />
        </mxCell>
        <mxCell id="wzXUbmEC5wIRB3Tpk9QF-14" value="Transaction Request" style="edgeStyle=orthogonalEdgeStyle;rounded=0;orthogonalLoop=1;jettySize=auto;html=1;exitX=0.25;exitY=0;exitDx=0;exitDy=0;entryX=0.25;entryY=1;entryDx=0;entryDy=0;" parent="4OwmQkjYZSIDvFha9RvG-1" source="wh8KM1keOvku06Pd7sTG-0" target="buS8Y3DBsFJnHCcWpqCA-2" edge="1">
          <mxGeometry x="0.3631" relative="1" as="geometry">
            <mxPoint x="380" y="195" as="sourcePoint" />
            <mxPoint as="offset" />
          </mxGeometry>
        </mxCell>
        <mxCell id="wzXUbmEC5wIRB3Tpk9QF-16" value="Transaction Request" style="edgeStyle=orthogonalEdgeStyle;rounded=0;orthogonalLoop=1;jettySize=auto;html=1;exitX=0.25;exitY=1;exitDx=0;exitDy=0;entryX=0.25;entryY=0;entryDx=0;entryDy=0;" parent="4OwmQkjYZSIDvFha9RvG-1" source="wh8KM1keOvku06Pd7sTG-1" target="DpygujAYQQ-Z7JP0J5F0-0" edge="1">
          <mxGeometry x="0.4286" relative="1" as="geometry">
            <mxPoint x="380" y="255" as="sourcePoint" />
            <mxPoint as="offset" />
          </mxGeometry>
        </mxCell>
        <mxCell id="wh8KM1keOvku06Pd7sTG-0" value="0" style="swimlane;fontStyle=0;childLayout=stackLayout;horizontal=1;startSize=20;fillColor=#ffffff;horizontalStack=0;resizeParent=1;resizeParentMax=0;resizeLast=0;collapsible=0;marginBottom=0;swimlaneFillColor=#ffffff;rounded=0;shadow=0;sketch=0;" parent="4OwmQkjYZSIDvFha9RvG-1" vertex="1">
          <mxGeometry x="350" y="205" width="120" height="50" as="geometry" />
        </mxCell>
        <mxCell id="wh8KM1keOvku06Pd7sTG-1" value="AUPay" style="text;strokeColor=none;align=center;fillColor=none;html=1;verticalAlign=middle;whiteSpace=wrap;rounded=0;shadow=0;sketch=0;" parent="wh8KM1keOvku06Pd7sTG-0" vertex="1">
          <mxGeometry y="20" width="120" height="30" as="geometry" />
        </mxCell>
        <mxCell id="X5cGJcvubgm7IZAyOtC0-0" value="Receipt" style="edgeStyle=orthogonalEdgeStyle;rounded=0;orthogonalLoop=1;jettySize=auto;html=1;exitX=0;exitY=0.75;exitDx=0;exitDy=0;entryX=0.991;entryY=0.868;entryDx=0;entryDy=0;entryPerimeter=0;" parent="4OwmQkjYZSIDvFha9RvG-1" source="wh8KM1keOvku06Pd7sTG-1" target="PPU3vdURBRXw1AhUHToz-2" edge="1">
          <mxGeometry relative="1" as="geometry" />
        </mxCell>
      </root>
    </mxGraphModel>
  </diagram>
  <diagram name="DFD - Level 1" id="88-87QlyF3MO3KmANQsC">
    <mxGraphModel dx="1194" dy="741" grid="1" gridSize="10" guides="1" tooltips="1" connect="1" arrows="1" fold="1" page="1" pageScale="1" pageWidth="850" pageHeight="1100" math="0" shadow="0">
      <root>
        <mxCell id="ana09vw1ysFFUrKszDlV-0" />
        <mxCell id="ana09vw1ysFFUrKszDlV-1" parent="ana09vw1ysFFUrKszDlV-0" />
        <mxCell id="ana09vw1ysFFUrKszDlV-2" value="RFID data" style="edgeStyle=orthogonalEdgeStyle;rounded=0;orthogonalLoop=1;jettySize=auto;html=1;entryX=-0.015;entryY=0.184;entryDx=0;entryDy=0;entryPerimeter=0;" parent="ana09vw1ysFFUrKszDlV-1" source="ana09vw1ysFFUrKszDlV-4" target="ana09vw1ysFFUrKszDlV-6" edge="1">
          <mxGeometry relative="1" as="geometry">
            <Array as="points">
              <mxPoint x="250" y="150" />
              <mxPoint x="250" y="97" />
            </Array>
          </mxGeometry>
        </mxCell>
        <mxCell id="ana09vw1ysFFUrKszDlV-3" value="RFID data" style="edgeStyle=orthogonalEdgeStyle;rounded=0;orthogonalLoop=1;jettySize=auto;html=1;entryX=-0.004;entryY=-0.042;entryDx=0;entryDy=0;entryPerimeter=0;" parent="ana09vw1ysFFUrKszDlV-1" source="ana09vw1ysFFUrKszDlV-4" target="ana09vw1ysFFUrKszDlV-14" edge="1">
          <mxGeometry x="0.0038" relative="1" as="geometry">
            <mxPoint as="offset" />
          </mxGeometry>
        </mxCell>
        <mxCell id="ana09vw1ysFFUrKszDlV-4" value="User" style="html=1;dashed=0;whitespace=wrap;rounded=0;shadow=0;sketch=0;" parent="ana09vw1ysFFUrKszDlV-1" vertex="1">
          <mxGeometry x="99.92" y="140" width="100" height="50" as="geometry" />
        </mxCell>
        <mxCell id="ana09vw1ysFFUrKszDlV-5" value="1.0" style="swimlane;fontStyle=0;childLayout=stackLayout;horizontal=1;startSize=20;fillColor=#ffffff;horizontalStack=0;resizeParent=1;resizeParentMax=0;resizeLast=0;collapsible=0;marginBottom=0;swimlaneFillColor=#ffffff;rounded=0;shadow=0;sketch=0;" parent="ana09vw1ysFFUrKszDlV-1" vertex="1">
          <mxGeometry x="370" y="70" width="180" height="60" as="geometry" />
        </mxCell>
        <mxCell id="ana09vw1ysFFUrKszDlV-6" value="View account information&lt;br&gt;&amp;nbsp;and&amp;nbsp;transaction" style="text;html=1;align=center;verticalAlign=middle;resizable=0;points=[];autosize=1;strokeColor=none;fillColor=none;" parent="ana09vw1ysFFUrKszDlV-5" vertex="1">
          <mxGeometry y="20" width="180" height="40" as="geometry" />
        </mxCell>
        <mxCell id="ana09vw1ysFFUrKszDlV-7" value="" style="edgeStyle=orthogonalEdgeStyle;rounded=0;orthogonalLoop=1;jettySize=auto;html=1;entryX=-0.021;entryY=0.167;entryDx=0;entryDy=0;entryPerimeter=0;" parent="ana09vw1ysFFUrKszDlV-1" source="ana09vw1ysFFUrKszDlV-9" target="ana09vw1ysFFUrKszDlV-11" edge="1">
          <mxGeometry relative="1" as="geometry" />
        </mxCell>
        <mxCell id="ana09vw1ysFFUrKszDlV-8" value="Price list of &lt;br&gt;products/services" style="edgeLabel;html=1;align=center;verticalAlign=middle;resizable=0;points=[];" parent="ana09vw1ysFFUrKszDlV-7" vertex="1" connectable="0">
          <mxGeometry x="-0.1807" y="-1" relative="1" as="geometry">
            <mxPoint x="9" y="-1" as="offset" />
          </mxGeometry>
        </mxCell>
        <mxCell id="ana09vw1ysFFUrKszDlV-9" value="Business" style="html=1;dashed=0;whitespace=wrap;rounded=0;shadow=0;sketch=0;" parent="ana09vw1ysFFUrKszDlV-1" vertex="1">
          <mxGeometry x="99.92" y="250" width="100" height="50" as="geometry" />
        </mxCell>
        <UserObject label="3.0" link="data:page/id,id289-4QJ1B228_kz9Xg" id="ana09vw1ysFFUrKszDlV-10">
          <mxCell style="swimlane;fontStyle=0;childLayout=stackLayout;horizontal=1;startSize=20;fillColor=#ffffff;horizontalStack=0;resizeParent=1;resizeParentMax=0;resizeLast=0;collapsible=0;marginBottom=0;swimlaneFillColor=#ffffff;rounded=0;shadow=0;sketch=0;" parent="ana09vw1ysFFUrKszDlV-1" vertex="1">
            <mxGeometry x="370" y="250" width="180" height="50" as="geometry" />
          </mxCell>
        </UserObject>
        <mxCell id="ana09vw1ysFFUrKszDlV-11" value="Transaction Processing" style="text;html=1;align=center;verticalAlign=middle;resizable=0;points=[];autosize=1;strokeColor=none;fillColor=none;" parent="ana09vw1ysFFUrKszDlV-10" vertex="1">
          <mxGeometry y="20" width="180" height="30" as="geometry" />
        </mxCell>
        <mxCell id="ana09vw1ysFFUrKszDlV-12" value="Payload" style="edgeStyle=orthogonalEdgeStyle;rounded=0;orthogonalLoop=1;jettySize=auto;html=1;entryX=0.5;entryY=0;entryDx=0;entryDy=0;" parent="ana09vw1ysFFUrKszDlV-1" source="ana09vw1ysFFUrKszDlV-13" target="ana09vw1ysFFUrKszDlV-10" edge="1">
          <mxGeometry relative="1" as="geometry" />
        </mxCell>
        <mxCell id="ana09vw1ysFFUrKszDlV-13" value="2.0" style="swimlane;fontStyle=0;childLayout=stackLayout;horizontal=1;startSize=20;fillColor=#ffffff;horizontalStack=0;resizeParent=1;resizeParentMax=0;resizeLast=0;collapsible=0;marginBottom=0;swimlaneFillColor=#ffffff;rounded=0;shadow=0;sketch=0;" parent="ana09vw1ysFFUrKszDlV-1" vertex="1">
          <mxGeometry x="370" y="150" width="180" height="60" as="geometry" />
        </mxCell>
        <UserObject label="Purchasing/Deposit/&lt;br&gt;Withdrawal/Rollback" link="data:page/id,imSXEpY-YYAHbhkVbnDx" id="ana09vw1ysFFUrKszDlV-14">
          <mxCell style="text;html=1;align=center;verticalAlign=middle;resizable=0;points=[];autosize=1;strokeColor=none;fillColor=none;" parent="ana09vw1ysFFUrKszDlV-13" vertex="1">
            <mxGeometry y="20" width="180" height="40" as="geometry" />
          </mxCell>
        </UserObject>
        <mxCell id="ana09vw1ysFFUrKszDlV-15" value="" style="group" parent="ana09vw1ysFFUrKszDlV-1" vertex="1" connectable="0">
          <mxGeometry x="191" y="400" width="100" height="30" as="geometry" />
        </mxCell>
        <mxCell id="ana09vw1ysFFUrKszDlV-16" value="D1" style="html=1;dashed=0;whitespace=wrap;shape=mxgraph.dfd.dataStoreID;align=left;spacingLeft=3;points=[[0,0],[0.5,0],[1,0],[0,0.5],[1,0.5],[0,1],[0.5,1],[1,1]];" parent="ana09vw1ysFFUrKszDlV-15" vertex="1">
          <mxGeometry width="100" height="30" as="geometry" />
        </mxCell>
        <mxCell id="ana09vw1ysFFUrKszDlV-17" value="Users" style="text;strokeColor=none;align=center;fillColor=none;html=1;verticalAlign=middle;whiteSpace=wrap;rounded=0;movable=1;resizable=1;rotatable=1;deletable=1;editable=1;connectable=1;" parent="ana09vw1ysFFUrKszDlV-15" vertex="1">
          <mxGeometry x="30.079999999999984" width="60" height="30" as="geometry" />
        </mxCell>
        <mxCell id="ana09vw1ysFFUrKszDlV-18" value="" style="group" parent="ana09vw1ysFFUrKszDlV-1" vertex="1" connectable="0">
          <mxGeometry x="613" y="380" width="100" height="30" as="geometry" />
        </mxCell>
        <mxCell id="ana09vw1ysFFUrKszDlV-19" value="D2" style="html=1;dashed=0;whitespace=wrap;shape=mxgraph.dfd.dataStoreID;align=left;spacingLeft=3;points=[[0,0],[0.5,0],[1,0],[0,0.5],[1,0.5],[0,1],[0.5,1],[1,1]];" parent="ana09vw1ysFFUrKszDlV-18" vertex="1">
          <mxGeometry width="100" height="30" as="geometry" />
        </mxCell>
        <mxCell id="ana09vw1ysFFUrKszDlV-20" value="Transactions" style="text;strokeColor=none;align=center;fillColor=none;html=1;verticalAlign=middle;whiteSpace=wrap;rounded=0;" parent="ana09vw1ysFFUrKszDlV-18" vertex="1">
          <mxGeometry x="37.079999999999984" width="60" height="30" as="geometry" />
        </mxCell>
        <mxCell id="e8N96YLWgkHF_TPCuTHg-0" style="edgeStyle=orthogonalEdgeStyle;rounded=0;orthogonalLoop=1;jettySize=auto;html=1;" parent="ana09vw1ysFFUrKszDlV-1" source="ana09vw1ysFFUrKszDlV-23" target="ana09vw1ysFFUrKszDlV-11" edge="1">
          <mxGeometry relative="1" as="geometry" />
        </mxCell>
        <mxCell id="e8N96YLWgkHF_TPCuTHg-1" value="Amount of desired &lt;br&gt;withdrawal/deposit" style="edgeLabel;html=1;align=center;verticalAlign=middle;resizable=0;points=[];" parent="e8N96YLWgkHF_TPCuTHg-0" vertex="1" connectable="0">
          <mxGeometry x="-0.34" y="-1" relative="1" as="geometry">
            <mxPoint x="16" y="-1" as="offset" />
          </mxGeometry>
        </mxCell>
        <mxCell id="ana09vw1ysFFUrKszDlV-23" value="Teller" style="html=1;dashed=0;whitespace=wrap;rounded=0;shadow=0;sketch=0;" parent="ana09vw1ysFFUrKszDlV-1" vertex="1">
          <mxGeometry x="99.92" y="330" width="100" height="50" as="geometry" />
        </mxCell>
        <mxCell id="ana09vw1ysFFUrKszDlV-27" value="Confirmed&lt;br&gt;transactions" style="edgeStyle=orthogonalEdgeStyle;rounded=0;orthogonalLoop=1;jettySize=auto;html=1;entryX=0.5;entryY=0;entryDx=0;entryDy=0;" parent="ana09vw1ysFFUrKszDlV-1" source="ana09vw1ysFFUrKszDlV-11" target="ana09vw1ysFFUrKszDlV-20" edge="1">
          <mxGeometry x="-0.3472" y="5" relative="1" as="geometry">
            <mxPoint as="offset" />
          </mxGeometry>
        </mxCell>
        <mxCell id="ana09vw1ysFFUrKszDlV-31" value="Update&lt;br&gt;user balance" style="edgeStyle=orthogonalEdgeStyle;rounded=0;orthogonalLoop=1;jettySize=auto;html=1;entryX=0.75;entryY=0;entryDx=0;entryDy=0;" parent="ana09vw1ysFFUrKszDlV-1" source="ana09vw1ysFFUrKszDlV-11" target="ana09vw1ysFFUrKszDlV-17" edge="1">
          <mxGeometry relative="1" as="geometry">
            <mxPoint x="390" y="405" as="sourcePoint" />
            <Array as="points">
              <mxPoint x="490" y="380" />
              <mxPoint x="266" y="380" />
            </Array>
          </mxGeometry>
        </mxCell>
        <mxCell id="ana09vw1ysFFUrKszDlV-32" value="Confirmed transactions" style="edgeStyle=orthogonalEdgeStyle;rounded=0;orthogonalLoop=1;jettySize=auto;html=1;" parent="ana09vw1ysFFUrKszDlV-1" source="ana09vw1ysFFUrKszDlV-20" edge="1">
          <mxGeometry relative="1" as="geometry">
            <Array as="points">
              <mxPoint x="700" y="120" />
            </Array>
            <mxPoint x="550" y="120" as="targetPoint" />
          </mxGeometry>
        </mxCell>
        <mxCell id="ana09vw1ysFFUrKszDlV-33" style="edgeStyle=orthogonalEdgeStyle;rounded=0;orthogonalLoop=1;jettySize=auto;html=1;exitX=1;exitY=1;exitDx=0;exitDy=0;entryX=1;entryY=0.25;entryDx=0;entryDy=0;" parent="ana09vw1ysFFUrKszDlV-1" source="ana09vw1ysFFUrKszDlV-17" target="ana09vw1ysFFUrKszDlV-5" edge="1">
          <mxGeometry relative="1" as="geometry">
            <mxPoint x="800" y="80" as="targetPoint" />
            <Array as="points">
              <mxPoint x="270" y="430" />
              <mxPoint x="270" y="460" />
              <mxPoint x="780" y="460" />
              <mxPoint x="780" y="85" />
            </Array>
          </mxGeometry>
        </mxCell>
        <mxCell id="ana09vw1ysFFUrKszDlV-34" value="User&#39;s balance" style="edgeLabel;html=1;align=center;verticalAlign=middle;resizable=0;points=[];" parent="ana09vw1ysFFUrKszDlV-33" vertex="1" connectable="0">
          <mxGeometry x="-0.5565" y="1" relative="1" as="geometry">
            <mxPoint x="44" as="offset" />
          </mxGeometry>
        </mxCell>
      </root>
    </mxGraphModel>
  </diagram>
  <diagram name="DFD - 2.0" id="imSXEpY-YYAHbhkVbnDx">
    <mxGraphModel dx="1194" dy="741" grid="1" gridSize="10" guides="1" tooltips="1" connect="1" arrows="1" fold="1" page="1" pageScale="1" pageWidth="850" pageHeight="1100" math="0" shadow="0">
      <root>
        <mxCell id="VxsBwgoJTYBpNbv-jyJQ-0" />
        <mxCell id="VxsBwgoJTYBpNbv-jyJQ-1" parent="VxsBwgoJTYBpNbv-jyJQ-0" />
        <mxCell id="0J7dOEx9ts4USLsaQn9E-2" value="RFID data" style="edgeStyle=orthogonalEdgeStyle;rounded=0;orthogonalLoop=1;jettySize=auto;html=1;entryX=-0.007;entryY=0.167;entryDx=0;entryDy=0;entryPerimeter=0;" parent="VxsBwgoJTYBpNbv-jyJQ-1" source="KdHCr_gavj9PWl3aLg0q-0" target="0J7dOEx9ts4USLsaQn9E-1" edge="1">
          <mxGeometry relative="1" as="geometry" />
        </mxCell>
        <mxCell id="KdHCr_gavj9PWl3aLg0q-0" value="User" style="html=1;dashed=0;whitespace=wrap;rounded=0;sketch=0;shadow=0;" parent="VxsBwgoJTYBpNbv-jyJQ-1" vertex="1">
          <mxGeometry x="20" y="40" width="100" height="50" as="geometry" />
        </mxCell>
        <mxCell id="lww1VqEVpDrcnnzNUB8v-0" value="User data" style="edgeStyle=orthogonalEdgeStyle;rounded=0;orthogonalLoop=1;jettySize=auto;html=1;" parent="VxsBwgoJTYBpNbv-jyJQ-1" source="0J7dOEx9ts4USLsaQn9E-0" target="lww1VqEVpDrcnnzNUB8v-1" edge="1">
          <mxGeometry x="0.0843" relative="1" as="geometry">
            <mxPoint x="490" y="280" as="targetPoint" />
            <Array as="points">
              <mxPoint x="270" y="285" />
            </Array>
            <mxPoint as="offset" />
          </mxGeometry>
        </mxCell>
        <mxCell id="0J7dOEx9ts4USLsaQn9E-0" value="2.1" style="swimlane;fontStyle=0;childLayout=stackLayout;horizontal=1;startSize=20;fillColor=#ffffff;horizontalStack=0;resizeParent=1;resizeParentMax=0;resizeLast=0;collapsible=0;marginBottom=0;swimlaneFillColor=#ffffff;rounded=0;shadow=0;sketch=0;" parent="VxsBwgoJTYBpNbv-jyJQ-1" vertex="1">
          <mxGeometry x="229.99999999999994" y="40" width="155" height="50" as="geometry" />
        </mxCell>
        <mxCell id="0J7dOEx9ts4USLsaQn9E-1" value="Check if the user exists" style="text;html=1;align=center;verticalAlign=middle;resizable=0;points=[];autosize=1;strokeColor=none;fillColor=none;" parent="0J7dOEx9ts4USLsaQn9E-0" vertex="1">
          <mxGeometry y="20" width="155" height="30" as="geometry" />
        </mxCell>
        <mxCell id="ydDx_miS0QXEjrHGnFaK-3" value="Price list of&amp;nbsp;&lt;br&gt;product/service" style="edgeStyle=orthogonalEdgeStyle;rounded=0;orthogonalLoop=1;jettySize=auto;html=1;entryX=0.006;entryY=0.361;entryDx=0;entryDy=0;entryPerimeter=0;" parent="VxsBwgoJTYBpNbv-jyJQ-1" edge="1">
          <mxGeometry relative="1" as="geometry">
            <mxPoint x="140" y="385" as="sourcePoint" />
          </mxGeometry>
        </mxCell>
        <mxCell id="UJYF0sdb6LgdagF0As33-0" value="User data&lt;br&gt;and updated&lt;br&gt;user balance" style="edgeStyle=orthogonalEdgeStyle;rounded=0;orthogonalLoop=1;jettySize=auto;html=1;" parent="VxsBwgoJTYBpNbv-jyJQ-1" source="1lbxmd4neoBTM_lgJ2ds-0" edge="1">
          <mxGeometry relative="1" as="geometry">
            <mxPoint x="770" y="70" as="targetPoint" />
          </mxGeometry>
        </mxCell>
        <mxCell id="1lbxmd4neoBTM_lgJ2ds-0" value="2.2" style="swimlane;fontStyle=0;childLayout=stackLayout;horizontal=1;startSize=20;fillColor=#ffffff;horizontalStack=0;resizeParent=1;resizeParentMax=0;resizeLast=0;collapsible=0;marginBottom=0;swimlaneFillColor=#ffffff;rounded=0;shadow=0;sketch=0;" parent="VxsBwgoJTYBpNbv-jyJQ-1" vertex="1">
          <mxGeometry x="490" y="40" width="170" height="60" as="geometry" />
        </mxCell>
        <mxCell id="1lbxmd4neoBTM_lgJ2ds-1" value="Adding desired &lt;br&gt;deposit amount" style="text;html=1;align=center;verticalAlign=middle;resizable=0;points=[];autosize=1;strokeColor=none;fillColor=none;" parent="1lbxmd4neoBTM_lgJ2ds-0" vertex="1">
          <mxGeometry y="20" width="170" height="40" as="geometry" />
        </mxCell>
        <mxCell id="1lbxmd4neoBTM_lgJ2ds-2" value="User data" style="edgeStyle=orthogonalEdgeStyle;rounded=0;orthogonalLoop=1;jettySize=auto;html=1;" parent="VxsBwgoJTYBpNbv-jyJQ-1" source="0J7dOEx9ts4USLsaQn9E-1" target="1lbxmd4neoBTM_lgJ2ds-1" edge="1">
          <mxGeometry x="-0.3333" relative="1" as="geometry">
            <Array as="points">
              <mxPoint x="470" y="70" />
              <mxPoint x="470" y="70" />
            </Array>
            <mxPoint as="offset" />
          </mxGeometry>
        </mxCell>
        <mxCell id="7nkl1-AjXY0JB5eISaXT-1" value="2.3" style="swimlane;fontStyle=0;childLayout=stackLayout;horizontal=1;startSize=20;fillColor=#ffffff;horizontalStack=0;resizeParent=1;resizeParentMax=0;resizeLast=0;collapsible=0;marginBottom=0;swimlaneFillColor=#ffffff;rounded=0;shadow=0;sketch=0;" parent="VxsBwgoJTYBpNbv-jyJQ-1" vertex="1">
          <mxGeometry x="490" y="120" width="170" height="50" as="geometry" />
        </mxCell>
        <mxCell id="7nkl1-AjXY0JB5eISaXT-2" value="Purchasing product/service" style="text;html=1;align=center;verticalAlign=middle;resizable=0;points=[];autosize=1;strokeColor=none;fillColor=none;" parent="7nkl1-AjXY0JB5eISaXT-1" vertex="1">
          <mxGeometry y="20" width="170" height="30" as="geometry" />
        </mxCell>
        <mxCell id="UJYF0sdb6LgdagF0As33-2" value="User data&lt;br&gt;and withdrawal&amp;nbsp;&lt;br&gt;amount" style="edgeStyle=orthogonalEdgeStyle;rounded=0;orthogonalLoop=1;jettySize=auto;html=1;" parent="VxsBwgoJTYBpNbv-jyJQ-1" source="b32g6v_MhoCsUm1_Cxid-2" edge="1">
          <mxGeometry relative="1" as="geometry">
            <mxPoint x="770" y="215" as="targetPoint" />
          </mxGeometry>
        </mxCell>
        <mxCell id="b32g6v_MhoCsUm1_Cxid-2" value="2.4" style="swimlane;fontStyle=0;childLayout=stackLayout;horizontal=1;startSize=20;fillColor=#ffffff;horizontalStack=0;resizeParent=1;resizeParentMax=0;resizeLast=0;collapsible=0;marginBottom=0;swimlaneFillColor=#ffffff;rounded=0;shadow=0;sketch=0;" parent="VxsBwgoJTYBpNbv-jyJQ-1" vertex="1">
          <mxGeometry x="490" y="190" width="170" height="50" as="geometry" />
        </mxCell>
        <mxCell id="b32g6v_MhoCsUm1_Cxid-3" value="Withdrawing desired amount" style="text;html=1;align=center;verticalAlign=middle;resizable=0;points=[];autosize=1;strokeColor=none;fillColor=none;" parent="b32g6v_MhoCsUm1_Cxid-2" vertex="1">
          <mxGeometry y="20" width="170" height="30" as="geometry" />
        </mxCell>
        <mxCell id="b32g6v_MhoCsUm1_Cxid-4" value="User data" style="edgeStyle=orthogonalEdgeStyle;rounded=0;orthogonalLoop=1;jettySize=auto;html=1;" parent="VxsBwgoJTYBpNbv-jyJQ-1" source="0J7dOEx9ts4USLsaQn9E-1" target="b32g6v_MhoCsUm1_Cxid-2" edge="1">
          <mxGeometry relative="1" as="geometry">
            <Array as="points">
              <mxPoint x="320" y="210" />
            </Array>
          </mxGeometry>
        </mxCell>
        <mxCell id="-AESX_DHMGDYVX_7WB1o-0" value="User data" style="edgeStyle=orthogonalEdgeStyle;rounded=0;orthogonalLoop=1;jettySize=auto;html=1;entryX=0.006;entryY=0.183;entryDx=0;entryDy=0;entryPerimeter=0;" parent="VxsBwgoJTYBpNbv-jyJQ-1" source="0J7dOEx9ts4USLsaQn9E-1" target="7nkl1-AjXY0JB5eISaXT-2" edge="1">
          <mxGeometry x="-0.0832" relative="1" as="geometry">
            <Array as="points">
              <mxPoint x="360" y="146" />
            </Array>
            <mxPoint as="offset" />
          </mxGeometry>
        </mxCell>
        <mxCell id="UJYF0sdb6LgdagF0As33-1" value="User data" style="edgeStyle=orthogonalEdgeStyle;rounded=0;orthogonalLoop=1;jettySize=auto;html=1;" parent="VxsBwgoJTYBpNbv-jyJQ-1" source="7nkl1-AjXY0JB5eISaXT-2" edge="1">
          <mxGeometry relative="1" as="geometry">
            <mxPoint x="770" y="150" as="targetPoint" />
            <Array as="points">
              <mxPoint x="770" y="150" />
            </Array>
          </mxGeometry>
        </mxCell>
        <mxCell id="lww1VqEVpDrcnnzNUB8v-1" value="2.5" style="swimlane;fontStyle=0;childLayout=stackLayout;horizontal=1;startSize=20;fillColor=#ffffff;horizontalStack=0;resizeParent=1;resizeParentMax=0;resizeLast=0;collapsible=0;marginBottom=0;swimlaneFillColor=#ffffff;rounded=0;shadow=0;sketch=0;" parent="VxsBwgoJTYBpNbv-jyJQ-1" vertex="1">
          <mxGeometry x="490" y="260" width="170" height="50" as="geometry" />
        </mxCell>
        <mxCell id="lww1VqEVpDrcnnzNUB8v-2" value="Check if the transaction exists" style="text;html=1;align=center;verticalAlign=middle;resizable=0;points=[];autosize=1;strokeColor=none;fillColor=none;" parent="lww1VqEVpDrcnnzNUB8v-1" vertex="1">
          <mxGeometry y="20" width="170" height="30" as="geometry" />
        </mxCell>
        <mxCell id="lww1VqEVpDrcnnzNUB8v-3" value="User data and&amp;nbsp;&lt;br&gt;transaction ID" style="edgeStyle=orthogonalEdgeStyle;rounded=0;orthogonalLoop=1;jettySize=auto;html=1;exitX=1.008;exitY=0.313;exitDx=0;exitDy=0;exitPerimeter=0;" parent="VxsBwgoJTYBpNbv-jyJQ-1" source="Gaukf1h5OhtwMk-5Bbmd-1" edge="1">
          <mxGeometry relative="1" as="geometry">
            <mxPoint x="780" y="390" as="targetPoint" />
          </mxGeometry>
        </mxCell>
        <mxCell id="Gaukf1h5OhtwMk-5Bbmd-0" value="2.5" style="swimlane;fontStyle=0;childLayout=stackLayout;horizontal=1;startSize=20;fillColor=#ffffff;horizontalStack=0;resizeParent=1;resizeParentMax=0;resizeLast=0;collapsible=0;marginBottom=0;swimlaneFillColor=#ffffff;rounded=0;shadow=0;sketch=0;" parent="VxsBwgoJTYBpNbv-jyJQ-1" vertex="1">
          <mxGeometry x="490" y="360" width="170" height="50" as="geometry" />
        </mxCell>
        <mxCell id="Gaukf1h5OhtwMk-5Bbmd-1" value="Rollback request" style="text;html=1;align=center;verticalAlign=middle;resizable=0;points=[];autosize=1;strokeColor=none;fillColor=none;" parent="Gaukf1h5OhtwMk-5Bbmd-0" vertex="1">
          <mxGeometry y="20" width="170" height="30" as="geometry" />
        </mxCell>
        <mxCell id="Gaukf1h5OhtwMk-5Bbmd-3" value="Transaction ID" style="edgeStyle=orthogonalEdgeStyle;rounded=0;orthogonalLoop=1;jettySize=auto;html=1;entryX=0.5;entryY=0;entryDx=0;entryDy=0;" parent="VxsBwgoJTYBpNbv-jyJQ-1" source="lww1VqEVpDrcnnzNUB8v-2" target="Gaukf1h5OhtwMk-5Bbmd-0" edge="1">
          <mxGeometry relative="1" as="geometry" />
        </mxCell>
      </root>
    </mxGraphModel>
  </diagram>
  <diagram id="id289-4QJ1B228_kz9Xg" name="DFD - 3.0">
    <mxGraphModel dx="796" dy="494" grid="1" gridSize="10" guides="1" tooltips="1" connect="1" arrows="1" fold="1" page="1" pageScale="1" pageWidth="850" pageHeight="1100" math="0" shadow="0">
      <root>
        <mxCell id="0" />
        <mxCell id="1" parent="0" />
        <mxCell id="d1kzcddfodD-PjQ_Cg0n-1" style="edgeStyle=orthogonalEdgeStyle;rounded=0;orthogonalLoop=1;jettySize=auto;html=1;exitX=0.5;exitY=1;exitDx=0;exitDy=0;" parent="1" edge="1">
          <mxGeometry relative="1" as="geometry">
            <mxPoint x="380" y="527" as="sourcePoint" />
            <mxPoint x="380" y="527" as="targetPoint" />
          </mxGeometry>
        </mxCell>
        <mxCell id="d1kzcddfodD-PjQ_Cg0n-2" value="" style="group" parent="1" vertex="1" connectable="0">
          <mxGeometry x="599" y="466" width="100" height="30" as="geometry" />
        </mxCell>
        <mxCell id="d1kzcddfodD-PjQ_Cg0n-3" value="D2" style="html=1;dashed=0;whitespace=wrap;shape=mxgraph.dfd.dataStoreID;align=left;spacingLeft=3;points=[[0,0],[0.5,0],[1,0],[0,0.5],[1,0.5],[0,1],[0.5,1],[1,1]];" parent="d1kzcddfodD-PjQ_Cg0n-2" vertex="1">
          <mxGeometry width="100" height="30" as="geometry" />
        </mxCell>
        <mxCell id="d1kzcddfodD-PjQ_Cg0n-4" value="Transactions" style="text;strokeColor=none;align=center;fillColor=none;html=1;verticalAlign=middle;whiteSpace=wrap;rounded=0;" parent="d1kzcddfodD-PjQ_Cg0n-2" vertex="1">
          <mxGeometry x="37.079999999999984" width="60" height="30" as="geometry" />
        </mxCell>
        <mxCell id="d1kzcddfodD-PjQ_Cg0n-5" value="" style="group" parent="1" vertex="1" connectable="0">
          <mxGeometry x="332" y="576" width="100" height="30" as="geometry" />
        </mxCell>
        <mxCell id="d1kzcddfodD-PjQ_Cg0n-6" value="D1" style="html=1;dashed=0;whitespace=wrap;shape=mxgraph.dfd.dataStoreID;align=left;spacingLeft=3;points=[[0,0],[0.5,0],[1,0],[0,0.5],[1,0.5],[0,1],[0.5,1],[1,1]];" parent="d1kzcddfodD-PjQ_Cg0n-5" vertex="1">
          <mxGeometry width="100" height="30" as="geometry" />
        </mxCell>
        <mxCell id="d1kzcddfodD-PjQ_Cg0n-7" value="Users" style="text;strokeColor=none;align=center;fillColor=none;html=1;verticalAlign=middle;whiteSpace=wrap;rounded=0;movable=1;resizable=1;rotatable=1;deletable=1;editable=1;connectable=1;" parent="d1kzcddfodD-PjQ_Cg0n-5" vertex="1">
          <mxGeometry x="30.079999999999984" width="60" height="30" as="geometry" />
        </mxCell>
        <mxCell id="d1kzcddfodD-PjQ_Cg0n-8" value="Price list of&amp;nbsp;&lt;br&gt;product/service" style="edgeStyle=orthogonalEdgeStyle;rounded=0;orthogonalLoop=1;jettySize=auto;html=1;entryX=-0.019;entryY=0.183;entryDx=0;entryDy=0;entryPerimeter=0;" parent="1" source="d1kzcddfodD-PjQ_Cg0n-9" target="d1kzcddfodD-PjQ_Cg0n-11" edge="1">
          <mxGeometry x="-0.0621" relative="1" as="geometry">
            <mxPoint as="offset" />
          </mxGeometry>
        </mxCell>
        <mxCell id="d1kzcddfodD-PjQ_Cg0n-9" value="Business" style="html=1;dashed=0;whitespace=wrap;rounded=0;sketch=0;shadow=0;" parent="1" vertex="1">
          <mxGeometry x="40" y="192" width="100" height="50" as="geometry" />
        </mxCell>
        <mxCell id="d1kzcddfodD-PjQ_Cg0n-10" value="3.1" style="swimlane;fontStyle=0;childLayout=stackLayout;horizontal=1;startSize=20;fillColor=#ffffff;horizontalStack=0;resizeParent=1;resizeParentMax=0;resizeLast=0;collapsible=0;marginBottom=0;swimlaneFillColor=#ffffff;rounded=0;shadow=0;sketch=0;" parent="1" vertex="1">
          <mxGeometry x="260.99999999999994" y="186" width="184" height="60" as="geometry" />
        </mxCell>
        <mxCell id="d1kzcddfodD-PjQ_Cg0n-11" value="Adding price and description of &lt;br&gt;product/service" style="text;html=1;align=center;verticalAlign=middle;resizable=0;points=[];autosize=1;strokeColor=none;fillColor=none;" parent="d1kzcddfodD-PjQ_Cg0n-10" vertex="1">
          <mxGeometry y="20" width="184" height="40" as="geometry" />
        </mxCell>
        <mxCell id="d1kzcddfodD-PjQ_Cg0n-12" value="3.2" style="swimlane;fontStyle=0;childLayout=stackLayout;horizontal=1;startSize=20;fillColor=#ffffff;horizontalStack=0;resizeParent=1;resizeParentMax=0;resizeLast=0;collapsible=0;marginBottom=0;swimlaneFillColor=#ffffff;rounded=0;shadow=0;sketch=0;" parent="1" vertex="1">
          <mxGeometry x="559.5" y="180" width="185" height="60" as="geometry" />
        </mxCell>
        <mxCell id="d1kzcddfodD-PjQ_Cg0n-13" value="Verification of the user account&lt;br&gt;for transaction eligibility" style="text;html=1;align=center;verticalAlign=middle;resizable=0;points=[];autosize=1;strokeColor=none;fillColor=none;" parent="d1kzcddfodD-PjQ_Cg0n-12" vertex="1">
          <mxGeometry y="20" width="185" height="40" as="geometry" />
        </mxCell>
        <mxCell id="d1kzcddfodD-PjQ_Cg0n-14" value="Price of&amp;nbsp;&lt;br&gt;product/service" style="edgeStyle=orthogonalEdgeStyle;rounded=0;orthogonalLoop=1;jettySize=auto;html=1;" parent="1" source="d1kzcddfodD-PjQ_Cg0n-11" target="d1kzcddfodD-PjQ_Cg0n-13" edge="1">
          <mxGeometry relative="1" as="geometry">
            <Array as="points">
              <mxPoint x="500" y="212" />
              <mxPoint x="500" y="212" />
            </Array>
          </mxGeometry>
        </mxCell>
        <mxCell id="d1kzcddfodD-PjQ_Cg0n-15" value="3.3" style="swimlane;fontStyle=0;childLayout=stackLayout;horizontal=1;startSize=20;fillColor=#ffffff;horizontalStack=0;resizeParent=1;resizeParentMax=0;resizeLast=0;collapsible=0;marginBottom=0;swimlaneFillColor=#ffffff;rounded=0;shadow=0;sketch=0;" parent="1" vertex="1">
          <mxGeometry x="557.5" y="326" width="187" height="50" as="geometry" />
        </mxCell>
        <mxCell id="d1kzcddfodD-PjQ_Cg0n-16" value="Adding transaction to database" style="text;html=1;align=center;verticalAlign=middle;resizable=0;points=[];autosize=1;strokeColor=none;fillColor=none;" parent="d1kzcddfodD-PjQ_Cg0n-15" vertex="1">
          <mxGeometry y="20" width="187" height="30" as="geometry" />
        </mxCell>
        <mxCell id="d1kzcddfodD-PjQ_Cg0n-17" value="Verified user data" style="edgeStyle=orthogonalEdgeStyle;rounded=0;orthogonalLoop=1;jettySize=auto;html=1;" parent="1" source="d1kzcddfodD-PjQ_Cg0n-13" target="d1kzcddfodD-PjQ_Cg0n-15" edge="1">
          <mxGeometry relative="1" as="geometry" />
        </mxCell>
        <mxCell id="d1kzcddfodD-PjQ_Cg0n-18" value="Confirmed transaction" style="edgeStyle=orthogonalEdgeStyle;rounded=0;orthogonalLoop=1;jettySize=auto;html=1;entryX=0.25;entryY=0;entryDx=0;entryDy=0;" parent="1" source="d1kzcddfodD-PjQ_Cg0n-16" target="d1kzcddfodD-PjQ_Cg0n-4" edge="1">
          <mxGeometry relative="1" as="geometry" />
        </mxCell>
        <mxCell id="d1kzcddfodD-PjQ_Cg0n-19" value="Updated balanced" style="edgeStyle=orthogonalEdgeStyle;rounded=0;orthogonalLoop=1;jettySize=auto;html=1;entryX=0.25;entryY=0;entryDx=0;entryDy=0;" parent="1" source="d1kzcddfodD-PjQ_Cg0n-20" target="d1kzcddfodD-PjQ_Cg0n-7" edge="1">
          <mxGeometry relative="1" as="geometry" />
        </mxCell>
        <mxCell id="d1kzcddfodD-PjQ_Cg0n-20" value="3.4" style="swimlane;fontStyle=0;childLayout=stackLayout;horizontal=1;startSize=20;fillColor=#ffffff;horizontalStack=0;resizeParent=1;resizeParentMax=0;resizeLast=0;collapsible=0;marginBottom=0;swimlaneFillColor=#ffffff;rounded=0;shadow=0;sketch=0;" parent="1" vertex="1">
          <mxGeometry x="283.5" y="456" width="187" height="60" as="geometry" />
        </mxCell>
        <mxCell id="d1kzcddfodD-PjQ_Cg0n-21" value="Adding all transaction&lt;br&gt;and updating user&#39;s balance" style="text;html=1;align=center;verticalAlign=middle;resizable=0;points=[];autosize=1;strokeColor=none;fillColor=none;" parent="d1kzcddfodD-PjQ_Cg0n-20" vertex="1">
          <mxGeometry y="20" width="187" height="40" as="geometry" />
        </mxCell>
        <mxCell id="d1kzcddfodD-PjQ_Cg0n-22" value="User&#39;s transaction" style="edgeStyle=orthogonalEdgeStyle;rounded=0;orthogonalLoop=1;jettySize=auto;html=1;entryX=1.016;entryY=0.138;entryDx=0;entryDy=0;entryPerimeter=0;" parent="1" source="d1kzcddfodD-PjQ_Cg0n-3" target="d1kzcddfodD-PjQ_Cg0n-21" edge="1">
          <mxGeometry relative="1" as="geometry" />
        </mxCell>
        <mxCell id="_06HmOt5JGbxQs3wBBa5-2" value="Transaction Processing" style="edgeStyle=orthogonalEdgeStyle;rounded=0;orthogonalLoop=1;jettySize=auto;html=1;" parent="1" source="_06HmOt5JGbxQs3wBBa5-1" target="d1kzcddfodD-PjQ_Cg0n-12" edge="1">
          <mxGeometry relative="1" as="geometry" />
        </mxCell>
        <mxCell id="_06HmOt5JGbxQs3wBBa5-1" value="Teller" style="html=1;dashed=0;whitespace=wrap;rounded=0;sketch=0;shadow=0;" parent="1" vertex="1">
          <mxGeometry x="602" y="70" width="100" height="50" as="geometry" />
        </mxCell>
      </root>
    </mxGraphModel>
  </diagram>
  <diagram id="vLxSIvvGvf5TwaDp3V52" name="Potential Systems Integration">
    <mxGraphModel dx="1434" dy="756" grid="1" gridSize="10" guides="1" tooltips="1" connect="1" arrows="1" fold="1" page="1" pageScale="1" pageWidth="850" pageHeight="1100" math="0" shadow="0">
      <root>
        <mxCell id="0" />
        <mxCell id="1" parent="0" />
        <mxCell id="dGFkLgq-muARQjPI1FD3-5" value="&lt;p style=&quot;margin:0px;margin-top:4px;text-align:center;&quot;&gt;&lt;b&gt;Food Ordering System&lt;/b&gt;&lt;/p&gt;&lt;hr size=&quot;1&quot;&gt;&lt;div style=&quot;height:2px;&quot;&gt;People will just order food, in the automated cashier, charge their IDs, and place their orders in a queue. It&#39;s also possible if there was a mobile app integration where students could opt to just ordering via mobile app.&lt;/div&gt;" style="verticalAlign=top;align=left;overflow=fill;fontSize=12;fontFamily=Helvetica;html=1;rounded=1;glass=0;strokeWidth=1;fillColor=none;whiteSpace=wrap;" parent="1" vertex="1">
          <mxGeometry x="90" y="120" width="270" height="170" as="geometry" />
        </mxCell>
        <mxCell id="dGFkLgq-muARQjPI1FD3-6" value="&lt;p style=&quot;margin:0px;margin-top:4px;text-align:center;&quot;&gt;&lt;b&gt;Internet Connection Subscription System&lt;/b&gt;&lt;/p&gt;&lt;hr size=&quot;1&quot;&gt;&lt;div style=&quot;height:2px;&quot;&gt;Instead of students going to the ICTS in order to prepay internet connectivity, they could automatically be charged through their balances in their accounts.&lt;/div&gt;" style="verticalAlign=top;align=left;overflow=fill;fontSize=12;fontFamily=Helvetica;html=1;rounded=1;glass=0;strokeWidth=1;fillColor=none;whiteSpace=wrap;" parent="1" vertex="1">
          <mxGeometry x="460" y="120" width="270" height="170" as="geometry" />
        </mxCell>
        <mxCell id="dGFkLgq-muARQjPI1FD3-7" value="&lt;font style=&quot;font-size: 29px;&quot;&gt;Potential System Integrations&lt;/font&gt;" style="text;html=1;align=center;verticalAlign=middle;resizable=0;points=[];autosize=1;strokeColor=none;fillColor=none;" parent="1" vertex="1">
          <mxGeometry x="225" y="35" width="400" height="50" as="geometry" />
        </mxCell>
        <mxCell id="dGFkLgq-muARQjPI1FD3-8" value="&lt;p style=&quot;margin:0px;margin-top:4px;text-align:center;&quot;&gt;&lt;b&gt;Online General Merchandise Store&lt;/b&gt;&lt;/p&gt;&lt;hr size=&quot;1&quot;&gt;&lt;div style=&quot;height:2px;&quot;&gt;Instead of students having to go to the department store or the AUP factory to come up-front, choose the products, and pay in the cashier, they could just order the things they need online and make it available for pick up in a certain location.&lt;/div&gt;" style="verticalAlign=top;align=left;overflow=fill;fontSize=12;fontFamily=Helvetica;html=1;rounded=1;glass=0;strokeWidth=1;fillColor=none;whiteSpace=wrap;" parent="1" vertex="1">
          <mxGeometry x="90" y="360" width="270" height="170" as="geometry" />
        </mxCell>
        <mxCell id="dGFkLgq-muARQjPI1FD3-9" value="&lt;p style=&quot;margin:0px;margin-top:4px;text-align:center;&quot;&gt;&lt;br&gt;&lt;/p&gt;&lt;hr size=&quot;1&quot;&gt;&lt;div style=&quot;height:2px;&quot;&gt;&lt;br&gt;&lt;/div&gt;" style="verticalAlign=top;align=left;overflow=fill;fontSize=12;fontFamily=Helvetica;html=1;rounded=1;glass=0;strokeWidth=1;fillColor=none;whiteSpace=wrap;" parent="1" vertex="1">
          <mxGeometry x="460" y="360" width="270" height="170" as="geometry" />
        </mxCell>
      </root>
    </mxGraphModel>
  </diagram>
  <diagram id="RN_eHtgomLvi64trVLYa" name="DFD - Level 1 (Old)">
    <mxGraphModel dx="1434" dy="756" grid="1" gridSize="10" guides="1" tooltips="1" connect="1" arrows="1" fold="1" page="1" pageScale="1" pageWidth="850" pageHeight="1100" math="0" shadow="0">
      <root>
        <mxCell id="0" />
        <mxCell id="1" parent="0" />
        <mxCell id="WQ7Ogi0F5bMNJH0k-N9k-1" value="RFID data" style="edgeStyle=orthogonalEdgeStyle;rounded=0;orthogonalLoop=1;jettySize=auto;html=1;entryX=-0.015;entryY=0.184;entryDx=0;entryDy=0;entryPerimeter=0;" parent="1" source="WQ7Ogi0F5bMNJH0k-N9k-3" target="WQ7Ogi0F5bMNJH0k-N9k-5" edge="1">
          <mxGeometry relative="1" as="geometry">
            <Array as="points">
              <mxPoint x="250" y="150" />
              <mxPoint x="250" y="97" />
            </Array>
          </mxGeometry>
        </mxCell>
        <mxCell id="WQ7Ogi0F5bMNJH0k-N9k-2" value="RFID data" style="edgeStyle=orthogonalEdgeStyle;rounded=0;orthogonalLoop=1;jettySize=auto;html=1;entryX=-0.004;entryY=-0.042;entryDx=0;entryDy=0;entryPerimeter=0;" parent="1" source="WQ7Ogi0F5bMNJH0k-N9k-3" target="WQ7Ogi0F5bMNJH0k-N9k-13" edge="1">
          <mxGeometry x="0.0038" relative="1" as="geometry">
            <mxPoint as="offset" />
          </mxGeometry>
        </mxCell>
        <mxCell id="WQ7Ogi0F5bMNJH0k-N9k-3" value="User" style="html=1;dashed=0;whitespace=wrap;rounded=0;shadow=0;sketch=0;" parent="1" vertex="1">
          <mxGeometry x="99.92" y="140" width="100" height="50" as="geometry" />
        </mxCell>
        <mxCell id="WQ7Ogi0F5bMNJH0k-N9k-4" value="1.0" style="swimlane;fontStyle=0;childLayout=stackLayout;horizontal=1;startSize=20;fillColor=#ffffff;horizontalStack=0;resizeParent=1;resizeParentMax=0;resizeLast=0;collapsible=0;marginBottom=0;swimlaneFillColor=#ffffff;rounded=0;shadow=0;sketch=0;" parent="1" vertex="1">
          <mxGeometry x="370" y="70" width="140" height="60" as="geometry" />
        </mxCell>
        <mxCell id="WQ7Ogi0F5bMNJH0k-N9k-5" value="View account information&lt;br&gt;&amp;nbsp;and&amp;nbsp;transaction" style="text;html=1;align=center;verticalAlign=middle;resizable=0;points=[];autosize=1;strokeColor=none;fillColor=none;" parent="WQ7Ogi0F5bMNJH0k-N9k-4" vertex="1">
          <mxGeometry y="20" width="140" height="40" as="geometry" />
        </mxCell>
        <mxCell id="WQ7Ogi0F5bMNJH0k-N9k-6" value="" style="edgeStyle=orthogonalEdgeStyle;rounded=0;orthogonalLoop=1;jettySize=auto;html=1;entryX=-0.021;entryY=0.167;entryDx=0;entryDy=0;entryPerimeter=0;" parent="1" source="WQ7Ogi0F5bMNJH0k-N9k-8" target="WQ7Ogi0F5bMNJH0k-N9k-10" edge="1">
          <mxGeometry relative="1" as="geometry" />
        </mxCell>
        <mxCell id="WQ7Ogi0F5bMNJH0k-N9k-7" value="Price list of &lt;br&gt;products/services" style="edgeLabel;html=1;align=center;verticalAlign=middle;resizable=0;points=[];" parent="WQ7Ogi0F5bMNJH0k-N9k-6" vertex="1" connectable="0">
          <mxGeometry x="-0.1807" y="-1" relative="1" as="geometry">
            <mxPoint x="9" y="-1" as="offset" />
          </mxGeometry>
        </mxCell>
        <mxCell id="WQ7Ogi0F5bMNJH0k-N9k-8" value="Business" style="html=1;dashed=0;whitespace=wrap;rounded=0;shadow=0;sketch=0;" parent="1" vertex="1">
          <mxGeometry x="99.92" y="250" width="100" height="50" as="geometry" />
        </mxCell>
        <mxCell id="WQ7Ogi0F5bMNJH0k-N9k-9" value="3.0" style="swimlane;fontStyle=0;childLayout=stackLayout;horizontal=1;startSize=20;fillColor=#ffffff;horizontalStack=0;resizeParent=1;resizeParentMax=0;resizeLast=0;collapsible=0;marginBottom=0;swimlaneFillColor=#ffffff;rounded=0;shadow=0;sketch=0;" parent="1" vertex="1">
          <mxGeometry x="370" y="250" width="140" height="50" as="geometry" />
        </mxCell>
        <mxCell id="WQ7Ogi0F5bMNJH0k-N9k-10" value="Transaction" style="text;html=1;align=center;verticalAlign=middle;resizable=0;points=[];autosize=1;strokeColor=none;fillColor=none;" parent="WQ7Ogi0F5bMNJH0k-N9k-9" vertex="1">
          <mxGeometry y="20" width="140" height="30" as="geometry" />
        </mxCell>
        <mxCell id="WQ7Ogi0F5bMNJH0k-N9k-11" value="User data" style="edgeStyle=orthogonalEdgeStyle;rounded=0;orthogonalLoop=1;jettySize=auto;html=1;entryX=0.5;entryY=0;entryDx=0;entryDy=0;" parent="1" source="WQ7Ogi0F5bMNJH0k-N9k-12" target="WQ7Ogi0F5bMNJH0k-N9k-9" edge="1">
          <mxGeometry relative="1" as="geometry" />
        </mxCell>
        <mxCell id="WQ7Ogi0F5bMNJH0k-N9k-12" value="2.0" style="swimlane;fontStyle=0;childLayout=stackLayout;horizontal=1;startSize=20;fillColor=#ffffff;horizontalStack=0;resizeParent=1;resizeParentMax=0;resizeLast=0;collapsible=0;marginBottom=0;swimlaneFillColor=#ffffff;rounded=0;shadow=0;sketch=0;" parent="1" vertex="1">
          <mxGeometry x="369.99999999999994" y="150" width="140" height="50" as="geometry" />
        </mxCell>
        <mxCell id="WQ7Ogi0F5bMNJH0k-N9k-13" value="Purchasing" style="text;html=1;align=center;verticalAlign=middle;resizable=0;points=[];autosize=1;strokeColor=none;fillColor=none;" parent="WQ7Ogi0F5bMNJH0k-N9k-12" vertex="1">
          <mxGeometry y="20" width="140" height="30" as="geometry" />
        </mxCell>
        <mxCell id="6iqFDAxhwVy3p7X8h5NU-10" value="" style="group" parent="1" vertex="1" connectable="0">
          <mxGeometry x="191" y="380" width="100" height="30" as="geometry" />
        </mxCell>
        <mxCell id="6iqFDAxhwVy3p7X8h5NU-4" value="D1" style="html=1;dashed=0;whitespace=wrap;shape=mxgraph.dfd.dataStoreID;align=left;spacingLeft=3;points=[[0,0],[0.5,0],[1,0],[0,0.5],[1,0.5],[0,1],[0.5,1],[1,1]];" parent="6iqFDAxhwVy3p7X8h5NU-10" vertex="1">
          <mxGeometry width="100" height="30" as="geometry" />
        </mxCell>
        <mxCell id="6iqFDAxhwVy3p7X8h5NU-6" value="Users" style="text;strokeColor=none;align=center;fillColor=none;html=1;verticalAlign=middle;whiteSpace=wrap;rounded=0;movable=1;resizable=1;rotatable=1;deletable=1;editable=1;connectable=1;" parent="6iqFDAxhwVy3p7X8h5NU-10" vertex="1">
          <mxGeometry x="30.079999999999984" width="60" height="30" as="geometry" />
        </mxCell>
        <mxCell id="6iqFDAxhwVy3p7X8h5NU-14" value="" style="group" parent="1" vertex="1" connectable="0">
          <mxGeometry x="613" y="380" width="100" height="30" as="geometry" />
        </mxCell>
        <mxCell id="6iqFDAxhwVy3p7X8h5NU-5" value="D2" style="html=1;dashed=0;whitespace=wrap;shape=mxgraph.dfd.dataStoreID;align=left;spacingLeft=3;points=[[0,0],[0.5,0],[1,0],[0,0.5],[1,0.5],[0,1],[0.5,1],[1,1]];" parent="6iqFDAxhwVy3p7X8h5NU-14" vertex="1">
          <mxGeometry width="100" height="30" as="geometry" />
        </mxCell>
        <mxCell id="6iqFDAxhwVy3p7X8h5NU-7" value="Transactions" style="text;strokeColor=none;align=center;fillColor=none;html=1;verticalAlign=middle;whiteSpace=wrap;rounded=0;" parent="6iqFDAxhwVy3p7X8h5NU-14" vertex="1">
          <mxGeometry x="37.079999999999984" width="60" height="30" as="geometry" />
        </mxCell>
        <mxCell id="9VuN8PqdcmT45rPl_Au6-1" style="edgeStyle=orthogonalEdgeStyle;rounded=0;orthogonalLoop=1;jettySize=auto;html=1;entryX=-0.012;entryY=0.167;entryDx=0;entryDy=0;entryPerimeter=0;" parent="1" source="9VuN8PqdcmT45rPl_Au6-3" target="9VuN8PqdcmT45rPl_Au6-5" edge="1">
          <mxGeometry relative="1" as="geometry" />
        </mxCell>
        <mxCell id="9VuN8PqdcmT45rPl_Au6-2" value="RFID of User" style="edgeLabel;html=1;align=center;verticalAlign=middle;resizable=0;points=[];" parent="9VuN8PqdcmT45rPl_Au6-1" vertex="1" connectable="0">
          <mxGeometry x="-0.1981" y="1" relative="1" as="geometry">
            <mxPoint x="6" as="offset" />
          </mxGeometry>
        </mxCell>
        <mxCell id="9VuN8PqdcmT45rPl_Au6-3" value="Teller" style="html=1;dashed=0;whitespace=wrap;rounded=0;shadow=0;sketch=0;" parent="1" vertex="1">
          <mxGeometry x="20" y="480" width="100" height="50" as="geometry" />
        </mxCell>
        <mxCell id="YZ3FTcngdHwqyIq4Hw8--2" value="Update &lt;br&gt;user balance" style="edgeStyle=orthogonalEdgeStyle;rounded=0;orthogonalLoop=1;jettySize=auto;html=1;exitX=0.25;exitY=0;exitDx=0;exitDy=0;entryX=0.25;entryY=1;entryDx=0;entryDy=0;" parent="1" source="9VuN8PqdcmT45rPl_Au6-4" target="6iqFDAxhwVy3p7X8h5NU-6" edge="1">
          <mxGeometry x="-0.0071" relative="1" as="geometry">
            <mxPoint as="offset" />
          </mxGeometry>
        </mxCell>
        <mxCell id="9VuN8PqdcmT45rPl_Au6-4" value="5.0" style="swimlane;fontStyle=0;childLayout=stackLayout;horizontal=1;startSize=20;fillColor=#ffffff;horizontalStack=0;resizeParent=1;resizeParentMax=0;resizeLast=0;collapsible=0;marginBottom=0;swimlaneFillColor=#ffffff;rounded=0;shadow=0;sketch=0;" parent="1" vertex="1">
          <mxGeometry x="200.92000000000002" y="480" width="140" height="50" as="geometry" />
        </mxCell>
        <mxCell id="9VuN8PqdcmT45rPl_Au6-5" value="Loading" style="text;html=1;align=center;verticalAlign=middle;resizable=0;points=[];autosize=1;strokeColor=none;fillColor=none;" parent="9VuN8PqdcmT45rPl_Au6-4" vertex="1">
          <mxGeometry y="20" width="140" height="30" as="geometry" />
        </mxCell>
        <mxCell id="-SXg5wlJv_hu3NXP4Xxy-1" value="Confirmed&lt;br&gt;transactions" style="edgeStyle=orthogonalEdgeStyle;rounded=0;orthogonalLoop=1;jettySize=auto;html=1;entryX=0.5;entryY=0;entryDx=0;entryDy=0;" parent="1" source="WQ7Ogi0F5bMNJH0k-N9k-10" target="6iqFDAxhwVy3p7X8h5NU-7" edge="1">
          <mxGeometry relative="1" as="geometry" />
        </mxCell>
        <mxCell id="nJSYTykoGbfzUeacq24p-1" value="4.0" style="swimlane;fontStyle=0;childLayout=stackLayout;horizontal=1;startSize=20;fillColor=#ffffff;horizontalStack=0;resizeParent=1;resizeParentMax=0;resizeLast=0;collapsible=0;marginBottom=0;swimlaneFillColor=#ffffff;rounded=0;shadow=0;sketch=0;" parent="1" vertex="1">
          <mxGeometry x="390" y="360" width="140" height="50" as="geometry" />
        </mxCell>
        <mxCell id="nJSYTykoGbfzUeacq24p-2" value="Deduction" style="text;html=1;align=center;verticalAlign=middle;resizable=0;points=[];autosize=1;strokeColor=none;fillColor=none;" parent="nJSYTykoGbfzUeacq24p-1" vertex="1">
          <mxGeometry y="20" width="140" height="30" as="geometry" />
        </mxCell>
        <mxCell id="nJSYTykoGbfzUeacq24p-5" value="Total&lt;br&gt;transaction" style="edgeStyle=orthogonalEdgeStyle;rounded=0;orthogonalLoop=1;jettySize=auto;html=1;" parent="1" source="6iqFDAxhwVy3p7X8h5NU-5" target="nJSYTykoGbfzUeacq24p-2" edge="1">
          <mxGeometry relative="1" as="geometry">
            <Array as="points">
              <mxPoint x="570" y="395" />
              <mxPoint x="570" y="395" />
            </Array>
          </mxGeometry>
        </mxCell>
        <mxCell id="nJSYTykoGbfzUeacq24p-8" value="Update&lt;br&gt;user balance" style="edgeStyle=orthogonalEdgeStyle;rounded=0;orthogonalLoop=1;jettySize=auto;html=1;entryX=1;entryY=0.5;entryDx=0;entryDy=0;" parent="1" source="nJSYTykoGbfzUeacq24p-2" target="6iqFDAxhwVy3p7X8h5NU-4" edge="1">
          <mxGeometry relative="1" as="geometry" />
        </mxCell>
        <mxCell id="YZ3FTcngdHwqyIq4Hw8--1" value="Confirmed transactions" style="edgeStyle=orthogonalEdgeStyle;rounded=0;orthogonalLoop=1;jettySize=auto;html=1;entryX=1.012;entryY=0.771;entryDx=0;entryDy=0;entryPerimeter=0;" parent="1" source="6iqFDAxhwVy3p7X8h5NU-7" target="WQ7Ogi0F5bMNJH0k-N9k-5" edge="1">
          <mxGeometry relative="1" as="geometry">
            <Array as="points">
              <mxPoint x="700" y="120" />
              <mxPoint x="512" y="120" />
            </Array>
          </mxGeometry>
        </mxCell>
        <mxCell id="YZ3FTcngdHwqyIq4Hw8--4" style="edgeStyle=orthogonalEdgeStyle;rounded=0;orthogonalLoop=1;jettySize=auto;html=1;exitX=1;exitY=1;exitDx=0;exitDy=0;entryX=1;entryY=0.25;entryDx=0;entryDy=0;" parent="1" source="6iqFDAxhwVy3p7X8h5NU-6" target="WQ7Ogi0F5bMNJH0k-N9k-4" edge="1">
          <mxGeometry relative="1" as="geometry">
            <mxPoint x="800" y="80" as="targetPoint" />
            <Array as="points">
              <mxPoint x="281" y="460" />
              <mxPoint x="780" y="460" />
              <mxPoint x="780" y="85" />
            </Array>
          </mxGeometry>
        </mxCell>
        <mxCell id="RFj69_4knfkkd8Io_gYx-1" value="User&#39;s balance" style="edgeLabel;html=1;align=center;verticalAlign=middle;resizable=0;points=[];" parent="YZ3FTcngdHwqyIq4Hw8--4" vertex="1" connectable="0">
          <mxGeometry x="-0.5565" y="1" relative="1" as="geometry">
            <mxPoint x="44" as="offset" />
          </mxGeometry>
        </mxCell>
      </root>
    </mxGraphModel>
  </diagram>
  <diagram id="KtixJEMu6nUpIen1G6Wx" name="Architecture">
    <mxGraphModel dx="1674" dy="806" grid="1" gridSize="10" guides="1" tooltips="1" connect="1" arrows="1" fold="1" page="1" pageScale="1" pageWidth="850" pageHeight="1100" math="0" shadow="0">
      <root>
        <mxCell id="0" />
        <mxCell id="1" parent="0" />
        <mxCell id="ONehQelM0lcVBQvoJGxS-7" style="edgeStyle=orthogonalEdgeStyle;rounded=0;orthogonalLoop=1;jettySize=auto;html=1;fontColor=#999999;shape=link;startArrow=none;" parent="1" source="ONehQelM0lcVBQvoJGxS-15" target="ONehQelM0lcVBQvoJGxS-2" edge="1">
          <mxGeometry relative="1" as="geometry" />
        </mxCell>
        <mxCell id="ONehQelM0lcVBQvoJGxS-8" style="edgeStyle=orthogonalEdgeStyle;rounded=0;orthogonalLoop=1;jettySize=auto;html=1;fontColor=#999999;shape=link;startArrow=none;" parent="1" source="ONehQelM0lcVBQvoJGxS-21" target="ONehQelM0lcVBQvoJGxS-5" edge="1">
          <mxGeometry relative="1" as="geometry" />
        </mxCell>
        <mxCell id="ONehQelM0lcVBQvoJGxS-13" value="" style="group" parent="1" vertex="1" connectable="0">
          <mxGeometry x="680" y="200" width="141.99999999999994" height="180" as="geometry" />
        </mxCell>
        <mxCell id="ONehQelM0lcVBQvoJGxS-5" value="Database Server" style="points=[];aspect=fixed;html=1;align=center;shadow=0;dashed=0;image;image=img/lib/allied_telesis/computer_and_terminals/Server_Desktop.svg;strokeColor=default;fillColor=#000000;" parent="ONehQelM0lcVBQvoJGxS-13" vertex="1">
          <mxGeometry width="142" height="180" as="geometry" />
        </mxCell>
        <mxCell id="ONehQelM0lcVBQvoJGxS-9" value="" style="dashed=0;outlineConnect=0;html=1;align=center;labelPosition=center;verticalLabelPosition=bottom;verticalAlign=top;shape=mxgraph.weblogos.mongodb;strokeColor=default;fontColor=#999999;fillColor=#999999;" parent="ONehQelM0lcVBQvoJGxS-13" vertex="1">
          <mxGeometry x="75.44" y="70" width="30.16" height="63.1" as="geometry" />
        </mxCell>
        <mxCell id="ONehQelM0lcVBQvoJGxS-14" value="" style="group" parent="1" vertex="1" connectable="0">
          <mxGeometry x="10" y="305" width="100" height="75" as="geometry" />
        </mxCell>
        <mxCell id="ONehQelM0lcVBQvoJGxS-2" value="&lt;font color=&quot;#000000&quot;&gt;Smart Card Scanner&lt;/font&gt;" style="fontColor=#0066CC;verticalAlign=top;verticalLabelPosition=bottom;labelPosition=center;align=center;html=1;outlineConnect=0;fillColor=#CCCCCC;strokeColor=default;gradientColor=none;gradientDirection=north;strokeWidth=2;shape=mxgraph.networks.scanner;" parent="ONehQelM0lcVBQvoJGxS-14" vertex="1">
          <mxGeometry width="100" height="75" as="geometry" />
        </mxCell>
        <mxCell id="ONehQelM0lcVBQvoJGxS-10" value="" style="shape=image;html=1;verticalAlign=top;verticalLabelPosition=bottom;labelBackgroundColor=#ffffff;imageAspect=0;aspect=fixed;image=https://cdn4.iconfinder.com/data/icons/vecico-connectivity/288/nfc-128.png;strokeColor=default;fontColor=#999999;fillColor=#999999;rotation=-60;" parent="ONehQelM0lcVBQvoJGxS-14" vertex="1">
          <mxGeometry x="41.5" y="38.629999999999995" width="17" height="17" as="geometry" />
        </mxCell>
        <mxCell id="ONehQelM0lcVBQvoJGxS-16" value="" style="edgeStyle=orthogonalEdgeStyle;rounded=0;orthogonalLoop=1;jettySize=auto;html=1;fontColor=#999999;shape=link;endArrow=none;" parent="1" source="ONehQelM0lcVBQvoJGxS-6" target="ONehQelM0lcVBQvoJGxS-15" edge="1">
          <mxGeometry relative="1" as="geometry">
            <mxPoint x="260" y="285.5" as="sourcePoint" />
            <mxPoint x="110" y="285.5" as="targetPoint" />
          </mxGeometry>
        </mxCell>
        <mxCell id="ONehQelM0lcVBQvoJGxS-15" value="" style="shape=image;html=1;verticalAlign=top;verticalLabelPosition=bottom;labelBackgroundColor=#ffffff;imageAspect=0;aspect=fixed;image=https://cdn4.iconfinder.com/data/icons/scripting-and-programming-languages/512/660277-Python_logo-128.png;strokeColor=default;fontColor=#999999;fillColor=#999999;" parent="1" vertex="1">
          <mxGeometry x="130" y="221" width="128" height="128" as="geometry" />
        </mxCell>
        <mxCell id="ONehQelM0lcVBQvoJGxS-18" value="" style="group" parent="1" vertex="1" connectable="0">
          <mxGeometry x="290" y="190" width="211.11" height="190" as="geometry" />
        </mxCell>
        <mxCell id="ONehQelM0lcVBQvoJGxS-6" value="&lt;font color=&quot;#000000&quot;&gt;Computer&lt;/font&gt;" style="verticalLabelPosition=bottom;html=1;verticalAlign=top;align=center;strokeColor=none;fillColor=#999999;shape=mxgraph.azure.computer;pointerEvents=1;fontColor=#999999;" parent="ONehQelM0lcVBQvoJGxS-18" vertex="1">
          <mxGeometry width="211.11" height="190" as="geometry" />
        </mxCell>
        <mxCell id="ONehQelM0lcVBQvoJGxS-11" value="" style="shape=image;verticalLabelPosition=bottom;labelBackgroundColor=default;verticalAlign=top;aspect=fixed;imageAspect=0;image=http://s3-eu-west-1.amazonaws.com/qt-files/logos/Qt-logo-large.png;" parent="ONehQelM0lcVBQvoJGxS-18" vertex="1">
          <mxGeometry x="42.41999999999996" y="27.5" width="126.27" height="93" as="geometry" />
        </mxCell>
        <mxCell id="ONehQelM0lcVBQvoJGxS-20" value="" style="edgeStyle=orthogonalEdgeStyle;rounded=0;orthogonalLoop=1;jettySize=auto;html=1;fontColor=#999999;shape=link;endArrow=none;" parent="1" source="ONehQelM0lcVBQvoJGxS-6" target="ONehQelM0lcVBQvoJGxS-21" edge="1">
          <mxGeometry relative="1" as="geometry">
            <mxPoint x="551" y="285.5" as="sourcePoint" />
            <mxPoint x="760" y="285.5" as="targetPoint" />
          </mxGeometry>
        </mxCell>
        <mxCell id="ONehQelM0lcVBQvoJGxS-21" value="" style="shape=image;html=1;verticalAlign=top;verticalLabelPosition=bottom;labelBackgroundColor=#ffffff;imageAspect=0;aspect=fixed;image=https://cdn4.iconfinder.com/data/icons/scripting-and-programming-languages/512/660277-Python_logo-128.png;strokeColor=default;fontColor=#999999;fillColor=#999999;imageBorder=none;imageBackground=none;labelBorderColor=none;fillStyle=hatch;" parent="1" vertex="1">
          <mxGeometry x="530" y="221" width="128" height="128" as="geometry" />
        </mxCell>
      </root>
    </mxGraphModel>
  </diagram>
</mxfile>
